<svg width="1754" height="1030" viewBox="0 0 1754 1030" fill="none" xmlns="http://www.w3.org/2000/svg">
<g opacity="0.2" filter="url(#filter0_f_310_1769)">
<circle cx="1331" cy="607" r="223" fill="#218B53"/>
</g>
<g opacity="0.2" filter="url(#filter1_f_310_1769)">
<ellipse cx="432" cy="574" rx="232" ry="231" fill="#8593E8"/>
</g>
<g opacity="0.2" filter="url(#filter2_f_310_1769)">
<circle cx="867.5" cy="486.5" r="233.5" fill="#5D6EF3"/>
</g>
<path d="M560.069 148.95H524.669L519.419 165H484.469L523.319 58.8H561.719L600.419 165H565.319L560.069 148.95ZM551.969 123.9L542.369 94.35L532.769 123.9H551.969ZM682.084 110.55C688.484 112.05 693.434 115.15 696.934 119.85C700.534 124.45 702.334 129.8 702.334 135.9C702.334 145.2 699.234 152.4 693.034 157.5C686.934 162.5 678.134 165 666.634 165H610.984V58.8H665.134C675.934 58.8 684.434 61.15 690.634 65.85C696.834 70.55 699.934 77.4 699.934 86.4C699.934 92.6 698.284 97.85 694.984 102.15C691.784 106.35 687.484 109.15 682.084 110.55ZM644.284 100.2H657.184C660.184 100.2 662.384 99.6 663.784 98.4C665.284 97.2 666.034 95.35 666.034 92.85C666.034 90.25 665.284 88.35 663.784 87.15C662.384 85.85 660.184 85.2 657.184 85.2H644.284V100.2ZM659.434 138.3C662.434 138.3 664.634 137.75 666.034 136.65C667.534 135.45 668.284 133.55 668.284 130.95C668.284 125.85 665.334 123.3 659.434 123.3H644.284V138.3H659.434ZM768.273 166.05C758.273 166.05 749.073 163.7 740.673 159C732.373 154.3 725.773 147.8 720.873 139.5C715.973 131.2 713.523 121.85 713.523 111.45C713.523 101.05 715.973 91.7 720.873 83.4C725.773 75.1 732.373 68.65 740.673 64.05C749.073 59.35 758.273 57 768.273 57C778.273 57 787.423 59.35 795.723 64.05C804.023 68.65 810.573 75.1 815.373 83.4C820.273 91.7 822.723 101.05 822.723 111.45C822.723 121.85 820.273 131.2 815.373 139.5C810.573 147.8 803.973 154.3 795.573 159C787.273 163.7 778.173 166.05 768.273 166.05ZM768.273 135C774.873 135 779.973 132.9 783.573 128.7C787.173 124.4 788.973 118.65 788.973 111.45C788.973 104.15 787.173 98.4 783.573 94.2C779.973 89.9 774.873 87.75 768.273 87.75C761.573 87.75 756.423 89.9 752.823 94.2C749.223 98.4 747.423 104.15 747.423 111.45C747.423 118.65 749.223 124.4 752.823 128.7C756.423 132.9 761.573 135 768.273 135ZM870.286 58.8V118.65C870.286 123.55 871.336 127.45 873.436 130.35C875.636 133.15 879.136 134.55 883.936 134.55C888.736 134.55 892.286 133.15 894.586 130.35C896.886 127.45 898.036 123.55 898.036 118.65V58.8H931.186V118.65C931.186 128.75 929.086 137.4 924.886 144.6C920.686 151.7 914.936 157.05 907.636 160.65C900.336 164.25 892.186 166.05 883.186 166.05C874.186 166.05 866.186 164.25 859.186 160.65C852.286 157.05 846.886 151.7 842.986 144.6C839.086 137.5 837.136 128.85 837.136 118.65V58.8H870.286ZM1031.95 58.8V85.2H1003.75V165H970.449V85.2H942.549V58.8H1031.95ZM1105.02 58.8V118.65C1105.02 123.55 1106.07 127.45 1108.17 130.35C1110.37 133.15 1113.87 134.55 1118.67 134.55C1123.47 134.55 1127.02 133.15 1129.32 130.35C1131.62 127.45 1132.77 123.55 1132.77 118.65V58.8H1165.92V118.65C1165.92 128.75 1163.82 137.4 1159.62 144.6C1155.42 151.7 1149.67 157.05 1142.37 160.65C1135.07 164.25 1126.92 166.05 1117.92 166.05C1108.92 166.05 1100.92 164.25 1093.92 160.65C1087.02 157.05 1081.62 151.7 1077.72 144.6C1073.82 137.5 1071.87 128.85 1071.87 118.65V58.8H1105.02ZM1224.83 166.05C1212.13 166.05 1201.63 163.1 1193.33 157.2C1185.13 151.2 1180.68 142.45 1179.98 130.95H1215.38C1215.88 137.05 1218.58 140.1 1223.48 140.1C1225.28 140.1 1226.78 139.7 1227.98 138.9C1229.28 138 1229.93 136.65 1229.93 134.85C1229.93 132.35 1228.58 130.35 1225.88 128.85C1223.18 127.25 1218.98 125.45 1213.28 123.45C1206.48 121.05 1200.83 118.7 1196.33 116.4C1191.93 114.1 1188.13 110.75 1184.93 106.35C1181.73 101.95 1180.18 96.3 1180.28 89.4C1180.28 82.5 1182.03 76.65 1185.53 71.85C1189.13 66.95 1193.98 63.25 1200.08 60.75C1206.28 58.25 1213.23 57 1220.93 57C1233.93 57 1244.23 60 1251.83 66C1259.53 72 1263.58 80.45 1263.98 91.35H1228.13C1228.03 88.35 1227.28 86.2 1225.88 84.9C1224.48 83.6 1222.78 82.95 1220.78 82.95C1219.38 82.95 1218.23 83.45 1217.33 84.45C1216.43 85.35 1215.98 86.65 1215.98 88.35C1215.98 90.75 1217.28 92.75 1219.88 94.35C1222.58 95.85 1226.83 97.7 1232.63 99.9C1239.33 102.4 1244.83 104.8 1249.13 107.1C1253.53 109.4 1257.33 112.6 1260.53 116.7C1263.73 120.8 1265.33 125.95 1265.33 132.15C1265.33 138.65 1263.73 144.5 1260.53 149.7C1257.33 154.8 1252.68 158.8 1246.58 161.7C1240.48 164.6 1233.23 166.05 1224.83 166.05Z" fill="#0D0E11"/>
<defs>
<filter id="filter0_f_310_1769" x="908" y="184" width="846" height="846" filterUnits="userSpaceOnUse" color-interpolation-filters="sRGB">
<feFlood flood-opacity="0" result="BackgroundImageFix"/>
<feBlend mode="normal" in="SourceGraphic" in2="BackgroundImageFix" result="shape"/>
<feGaussianBlur stdDeviation="100" result="effect1_foregroundBlur_310_1769"/>
</filter>
<filter id="filter1_f_310_1769" x="0" y="143" width="864" height="862" filterUnits="userSpaceOnUse" color-interpolation-filters="sRGB">
<feFlood flood-opacity="0" result="BackgroundImageFix"/>
<feBlend mode="normal" in="SourceGraphic" in2="BackgroundImageFix" result="shape"/>
<feGaussianBlur stdDeviation="100" result="effect1_foregroundBlur_310_1769"/>
</filter>
<filter id="filter2_f_310_1769" x="384" y="3" width="967" height="967" filterUnits="userSpaceOnUse" color-interpolation-filters="sRGB">
<feFlood flood-opacity="0" result="BackgroundImageFix"/>
<feBlend mode="normal" in="SourceGraphic" in2="BackgroundImageFix" result="shape"/>
<feGaussianBlur stdDeviation="125" result="effect1_foregroundBlur_310_1769"/>
</filter>
</defs>
</svg>