<svg width="631" height="661" viewBox="0 0 631 661" fill="none" xmlns="http://www.w3.org/2000/svg">
<path fill-rule="evenodd" clip-rule="evenodd" d="M509.482 296.282L513.511 289.888L517.708 283.59C516.207 283.883 514.74 284.311 513.325 284.868C512.502 285.152 511.595 285.12 510.795 284.78C509.996 284.44 509.368 283.818 509.044 283.046C508.471 281.656 504.56 282.854 501.442 284.645C498.324 286.435 496.773 290.239 495.61 289.44C494.447 288.641 487.435 287.65 485.497 287.65C483.558 287.65 477.305 283.462 475.383 281.656C473.462 279.849 467.781 280.648 466.416 279.865C465.05 279.082 462.337 278.459 461.359 277.26C460.381 276.061 457.988 276.269 456.083 276.668C454.179 277.068 449.476 279.865 449.088 281.464C448.867 282.041 448.475 282.547 447.959 282.918L451.971 286.659L452.864 293.053L456.454 296.25C456.434 298.712 456.283 301.171 455.999 303.619C455.561 307.295 452.409 311.899 450.15 314.216C449.015 315.952 448.141 317.83 447.554 319.795C450.925 320.69 453.555 322.017 453.369 323.088C452.982 325.278 447.133 324.287 447.133 328.874C447.133 329.178 447.133 329.482 447.133 329.785L480.305 347.816L479.867 353.347C479.867 353.347 487.334 358.926 494.599 364.073C497.103 357.408 499.972 350.872 503.195 344.491C505.15 341.438 507.106 341.966 508.791 339.84C510.477 337.714 510.999 340.895 513.595 336.643C513.828 336.268 514.081 335.906 514.354 335.556L509.988 328.475L509.482 296.282Z" fill="#92C6AB"/>
<path d="M252.422 3.91818L264.558 3.82228M241.533 3.82228L253.669 3.91818M230.644 3.59847L242.78 3.83823M219.756 3.21485L231.892 3.63047M208.884 2.68733L221.003 3.2628M198.012 2L210.114 2.75128M347.505 9.86448L359.54 8.36192M336.684 11.0633L348.736 9.72062M271.486 15.2034L283.622 14.8357M260.597 15.3792L272.733 15.1874M249.708 15.4112L261.844 15.3792M238.819 15.2993L250.956 15.4112M227.931 15.0275L240.05 15.3153M217.042 14.6119L229.161 15.0595M206.153 14.0525L218.272 14.6758M195.298 13.3491L207.4 14.1324M184.443 12.5019L196.528 13.445M173.588 11.4949L185.673 12.5978M162.766 10.344L174.835 11.6228M151.962 9.04925C151.962 9.04925 159.297 9.92605 163.997 10.4879M141.174 7.61064L153.192 9.2091M377.171 17.4572L389.139 15.539M366.401 19.0397L378.402 17.2813M355.613 20.4783L367.631 18.8639M344.808 21.773L356.843 20.3185M333.987 22.9239L346.039 21.6292M323.149 23.931L335.217 22.7961M301.422 25.4975L313.524 24.6983M290.55 26.0729L302.652 25.4335M279.661 26.5045L291.78 26.009M268.772 26.7762L280.908 26.4566M257.883 26.9201L270.003 26.7603M246.977 26.9041H259.114M236.089 26.7603L248.225 26.9201M225.2 26.4566L237.336 26.7762M214.311 26.009L226.447 26.5045M203.439 25.4335L215.558 26.0729M192.567 24.6983L204.686 25.4975M181.729 23.8191L193.815 24.7782M170.874 22.7961L182.959 23.931M160.053 21.6292L172.121 22.9239M149.248 20.3185L161.283 21.773M138.46 18.8639L150.478 20.4783M385.245 27.8632L397.196 25.8492M374.491 29.5256L386.476 27.6554M363.72 31.0442L375.722 29.3338M352.933 32.4188L364.951 30.8683M342.111 33.6497L354.163 32.275M331.273 34.7526L343.342 33.5218M320.435 35.7117L332.52 34.6407M309.58 36.5109L321.665 35.5998M298.708 37.1823L310.81 36.431M287.819 37.7098L299.938 37.1183M276.93 38.0934L289.066 37.6618M266.041 38.3332L278.177 38.0614M255.153 38.4291L267.289 38.3172M244.264 38.3971L256.4 38.4291M233.375 38.2053L245.494 38.3971M222.486 37.8696L234.605 38.2373M211.597 37.406L223.717 37.9176M200.725 36.7987L212.845 37.47M189.853 36.0314L201.956 36.8626M178.998 35.1362L191.101 36.1273M168.16 34.0973L180.246 35.2481M157.339 32.9144L169.407 34.2251M146.534 31.5876L158.586 33.0582M135.763 30.117L147.781 31.7475M124.992 28.5186L136.994 30.2929M114.255 26.7762L126.223 28.7104M103.552 24.8741L115.486 26.9681M404.039 36.3351L415.939 34.0813M393.319 38.2053L405.253 36.1113M382.582 39.9476L394.55 37.9975M371.828 41.5461L383.813 39.7558M361.04 43.0167L373.042 41.3703M350.236 44.3434L362.271 42.8568M339.414 45.5263L351.466 44.1995M328.576 46.5653L340.645 45.3984M317.721 47.4604L329.807 46.4534M306.849 48.2277L318.952 47.3645M295.977 48.8511L308.096 48.1477M285.105 49.3466L297.225 48.7872M274.216 49.6823L286.336 49.2986M263.328 49.8901L275.464 49.6503M252.422 49.954L264.558 49.8741M241.533 49.8741L253.669 49.954M230.644 49.6503L242.78 49.8901M219.756 49.2986L231.892 49.6823M208.884 48.7872L221.003 49.3466M198.012 48.1477L210.114 48.8511M187.14 47.3645L199.242 48.2277M176.285 46.4534L188.387 47.4604M165.463 45.3984L177.532 46.5653M154.642 44.1995L166.694 45.5263M143.837 42.8568L155.872 44.3434M133.05 41.3703L145.068 43.0167M122.296 39.7558L134.28 41.5461M111.558 37.9975L123.526 39.9476M100.855 36.1113L112.789 38.2053M90.1686 34.0813L102.069 36.3351M79.5157 31.9074L91.3821 34.321M68.8966 29.6056L80.7294 32.1631M412.08 46.5653L423.963 44.2315M401.376 48.5154L413.293 46.3255M390.656 50.3377L402.607 48.3076M379.902 52.0161L391.886 50.1299M369.131 53.5506L381.132 51.8242M358.343 54.9572L370.362 53.3907M347.539 56.236L359.574 54.8134M336.701 57.3709L348.769 56.0921M325.862 58.362L337.948 57.243M315.007 59.2092L327.093 58.2501M304.135 59.9285L316.255 59.1293M293.263 60.5199L305.383 59.8645M282.375 60.9515L294.511 60.456M271.486 61.2552L283.622 60.9035M260.597 61.4151L272.733 61.2232M249.708 61.447L261.844 61.4151M238.819 61.3351L250.956 61.447M227.931 61.0953L240.05 61.3511M217.042 60.6957L229.161 61.1273M206.153 60.1683L218.272 60.7437M195.281 59.5129L207.4 60.2322M184.426 58.6976L196.528 59.5928M173.571 57.7705L185.656 58.8095M162.749 56.6836L174.818 57.8825M151.928 55.4688L163.98 56.8115M141.123 54.11L153.158 55.6126M130.353 52.6235L142.354 54.2699M119.582 50.993L131.566 52.7993M108.862 49.2347L120.812 51.1849M98.1413 47.3326L110.075 49.4425M87.4717 45.3025L99.3718 47.5563M76.8188 43.1286L88.6852 45.5423M66.1996 40.8268L78.0324 43.3843M55.6143 38.3811L67.4133 41.0985M420.12 56.7635L431.986 54.3498M409.433 58.7776L421.333 56.5237M398.73 60.6798L410.664 58.5538M387.993 62.438L399.943 60.472M377.239 64.0525L389.223 62.2302M366.451 65.5391L378.469 63.8767M355.647 66.8978L367.682 65.3792M344.842 68.1126L356.894 66.7379M334.004 69.1836L346.072 67.9847M323.149 70.1427L335.234 69.0717M312.294 70.9419L324.396 70.0308M301.422 71.6133L313.541 70.862M290.55 72.1568L302.669 71.5493M279.661 72.5564L291.78 72.1088M268.772 72.8281L280.908 72.5244M257.883 72.956L270.019 72.7961M246.977 72.94H259.114M236.089 72.7961L248.225 72.956M225.2 72.5244L237.336 72.8281M214.311 72.1088L226.447 72.5564M203.439 71.5493L215.558 72.1568M192.567 70.862L204.67 71.6133M181.712 70.0308L193.815 70.9419M170.857 69.0717L182.943 70.1427M160.036 67.9847L172.104 69.1836M149.214 66.7379L161.266 68.1126M138.41 65.3792L150.445 66.8978M127.639 63.8767L139.64 65.5391M116.885 62.2302C116.885 62.2302 124.189 63.3409 128.869 64.0525M106.148 60.472L118.115 62.438M95.4444 58.5538L107.378 60.6798M84.7578 56.5237L96.658 58.7776M74.1218 54.3498L85.9884 56.7635M63.5028 52.048L75.3355 54.6056M52.9174 49.6024L64.6995 52.3038M428.143 66.9138L439.993 64.4361M417.49 69.0078L429.357 66.674M406.787 70.9739L418.704 68.784M396.067 72.8121L408 70.7661M385.313 74.5065L397.297 72.6043M374.559 76.073L386.543 74.3147M363.771 77.4956L375.789 75.8972M352.95 78.8064L365.001 77.3518M342.128 79.9732L354.197 78.6625M331.29 80.9963L343.376 79.8454M320.435 81.8914L332.537 80.8844M309.58 82.6587L321.682 81.7955M298.708 83.2981L310.81 82.5787M287.819 83.7936L299.938 83.2341M276.93 84.1453L289.066 83.7456M266.041 84.385L278.177 84.1133M255.153 84.4649L267.289 84.3531M244.264 84.433L256.4 84.4649M233.375 84.2572L245.494 84.433M222.486 83.9375L234.605 84.2731M211.597 83.5059L223.717 83.9854M200.725 82.9144L212.828 83.5538M189.853 82.2111L201.956 82.9944M178.998 81.3639L191.084 82.291M168.143 80.3889L180.229 81.4598M157.322 79.2699L169.391 80.5008M146.5 78.0231L158.552 79.3978M135.713 76.6324L147.731 78.167M124.942 75.1299L136.943 76.8083M114.171 73.4835L126.156 75.3057M103.451 71.6932L115.402 73.6753M92.7474 69.791L104.664 71.901M82.0609 67.745L93.9611 70.0148M71.4081 65.5711L83.2745 67.9847M60.789 63.2693L72.6218 65.8268M50.2035 60.8236L62.0026 63.525M39.6518 58.2501L51.4172 61.1113M436.166 77.0481L447.999 74.4745M425.514 79.206L437.38 76.7923M414.844 81.236L426.744 78.9662M404.14 83.1382L416.058 81.0122M393.403 84.9125L405.354 82.9304M382.649 86.5589L394.634 84.7207M371.862 88.0615L383.88 86.3671M361.074 89.4362L373.092 87.9017M350.253 90.683L362.305 89.2923M339.431 91.8019L351.5 90.5551M328.593 92.7929L340.662 91.69M317.721 93.6401L329.824 92.681M306.866 94.3594L318.968 93.5602M295.977 94.9509L308.096 94.2954M285.105 95.4144C289.838 95.2084 297.225 94.8869 297.225 94.8869M274.216 95.7341L286.353 95.3665M263.328 95.9259L275.464 95.7021M252.422 95.9738L264.558 95.9099M241.533 95.9099L253.669 95.9738M230.644 95.7021L242.78 95.9259M219.756 95.3665L231.892 95.7341M208.867 94.8869L221.003 95.4144M197.995 94.2954L210.114 94.9509M187.14 93.5602C187.14 93.5602 194.516 94.0473 199.242 94.3594M176.285 92.681L188.37 93.6401M165.429 91.69L177.515 92.7929M154.608 90.5551L166.677 91.8019M143.804 89.2923L155.839 90.683M132.999 87.9017L145.034 89.4362M122.228 86.3671L134.229 88.0615M111.474 84.7207L123.459 86.5589M100.754 82.9304L112.705 84.9125M90.0337 81.0122L101.968 83.1382M79.3641 78.9662L91.2642 81.236M68.7112 76.7923L80.5776 79.206M58.092 74.4745L69.9248 77.0481M47.5067 72.0449L59.3057 74.7463M36.955 69.4873L48.7202 72.3326M26.437 66.7859L38.1517 69.775M444.19 87.1344L456.006 84.4969M433.554 89.3562L445.403 86.8786M422.884 91.4663L434.767 89.1165M412.198 93.4323L424.098 91.2265M401.477 95.2706L413.411 93.2085M390.723 96.9969L402.691 95.0787M379.969 98.5793L391.954 96.805M369.182 100.034L381.2 98.4035M358.377 101.361L370.412 99.8741M347.556 102.56L359.608 101.217M336.718 103.631L348.786 102.432M325.879 104.574L337.965 103.519M315.007 105.373L327.11 104.462M304.152 106.06L316.255 105.293M293.263 106.604L305.383 105.98M282.375 107.019L294.511 106.54M271.486 107.307L283.622 106.971M260.597 107.467L272.733 107.275M249.708 107.483L261.844 107.451M238.819 107.371L250.956 107.483M227.914 107.147L240.05 107.403M217.042 106.779L229.161 107.179M206.153 106.284L218.272 106.827M195.281 105.645L207.4 106.348M184.409 104.893L196.528 105.725M173.571 104.014L185.656 104.989M162.716 102.991L174.801 104.11M151.894 101.84L163.963 103.103M141.09 100.562L153.125 101.984M130.302 99.1548L142.32 100.721M119.514 97.6203L131.533 99.3307M108.777 95.9579L120.745 97.7961M98.0402 94.1676L109.991 96.1497M87.3368 92.2335L99.2707 94.3753M76.6671 90.1875L88.5672 92.4573M66.0142 88.0135L77.8808 90.4272M55.3951 85.6958L67.2279 88.2693M44.8098 83.2661L56.6088 85.9675M34.2581 80.7086L46.0065 83.5538M23.7401 78.0231L35.4548 81.0122M13.2558 75.2098L24.9368 78.3428M452.196 97.1887L463.995 94.4873M441.577 99.4905L453.41 96.917M430.924 101.648L442.791 99.2347M420.238 103.694L432.138 101.409M409.534 105.597L421.468 103.471M398.814 107.387L410.765 105.389M388.06 109.049L400.028 107.195M377.289 110.584L389.291 108.873M366.485 111.99L378.52 110.408M355.68 113.269L367.715 111.831M344.859 114.42L356.911 113.125M334.021 115.427L346.089 114.292M323.165 116.322L335.251 115.331M312.294 117.09L324.396 116.226M301.422 117.729L313.541 117.01M290.55 118.241L302.669 117.665M279.661 118.608L291.78 118.177M268.772 118.864L280.908 118.576M257.883 118.992L270.019 118.848M246.977 118.976H259.114M236.089 118.848L248.225 118.992M225.2 118.576L237.336 118.864M214.311 118.177L226.447 118.608M203.439 117.665L215.558 118.241M192.567 117.01L204.67 117.729M181.695 116.226L193.798 117.09M170.857 115.331L182.943 116.322M160.002 114.292L172.087 115.427M149.181 113.125L161.249 114.42M138.376 111.831L150.428 113.269M127.588 110.408L139.606 111.99M116.817 108.873L128.819 110.584M106.064 107.195L118.048 109.049M95.3433 105.389L107.294 107.387M84.6398 103.471L96.5568 105.597M73.9702 101.409L85.8535 103.694M63.3174 99.2347L75.1838 101.648M52.6983 96.917L64.5309 99.4905M42.1128 94.4873L53.9118 97.1887M31.5611 91.9298L43.3096 94.775M21.0263 89.2603L32.7579 92.2335M460.203 107.227L471.968 104.446M449.584 109.577L461.4 106.939M438.948 111.799L450.797 109.305M428.295 113.909L440.161 111.559M417.591 115.891L429.508 113.669M406.888 117.745L418.822 115.667M396.134 119.471L408.102 117.537M385.38 121.086L397.364 119.279M374.592 122.556L386.611 120.91M363.805 123.915L375.823 122.397M352.983 125.146L365.035 123.771M342.145 126.249L354.214 125.018M331.307 127.224L343.392 126.121M320.452 128.071L332.537 127.112M309.58 128.79L321.682 127.975M298.708 129.398L310.827 128.726M287.819 129.861L299.955 129.334M276.93 130.197L289.066 129.813M266.041 130.421L278.177 130.165M255.153 130.501L267.289 130.405M244.264 130.469L256.4 130.501M233.375 130.293L245.494 130.485M222.486 130.005L234.605 130.325M211.597 129.59L223.717 130.053M200.709 129.046L212.828 129.638M189.837 128.375L201.956 129.11M178.981 127.56L191.084 128.455M168.126 126.632L180.229 127.671M157.305 125.593L169.374 126.744M146.467 124.411L158.535 125.705M135.662 123.1L147.714 124.554M124.875 121.677L136.893 123.26M114.104 120.111L126.105 121.837M103.367 118.432L115.334 120.303M92.6295 116.626L104.58 118.624M81.9429 114.692L93.86 116.834M71.2564 112.63L83.1566 114.916M60.6204 110.456L72.47 112.87M50.0013 108.138L61.834 110.712M39.3991 105.709L51.1981 108.41M28.8473 103.167L40.6126 105.996M18.3294 100.481L30.061 103.455M7.84505 97.6842L19.5262 100.801M457.59 119.631L469.389 116.93M446.971 121.917L458.804 119.359M436.318 124.091L448.185 121.677M425.648 126.137L437.549 123.851M414.945 128.071L426.862 125.913M404.225 129.861L416.159 127.847M393.471 131.54L405.438 129.67M382.7 133.09L394.701 131.364M371.912 134.529L383.93 132.93M361.108 135.824L373.143 134.369M350.286 137.007L362.338 135.68M339.448 138.061L351.517 136.879M328.593 139.005L340.679 137.95M317.738 139.804L329.84 138.893M306.866 140.491L318.968 139.724M295.994 141.035L308.113 140.411M285.105 141.466L297.225 140.987M274.216 141.786L286.353 141.434M263.328 141.962L275.464 141.754M252.422 142.01L264.558 141.946M241.533 141.946L253.669 142.01M230.644 141.754L242.78 141.962M219.756 141.434L231.892 141.786M208.867 140.987L221.003 141.466M197.995 140.411L210.114 141.035M187.123 139.724L199.242 140.491M176.268 138.893L188.37 139.804M165.413 137.95L177.498 139.005M154.591 136.879L166.66 138.061M143.77 135.68L155.822 137.007M132.965 134.369L145 135.824M122.178 132.93L134.196 134.529M111.407 131.364L123.408 133.09M100.653 129.67L112.637 131.54M89.9325 127.847L101.883 129.861M79.2292 125.913L91.1631 128.071M68.5595 123.851L80.4596 126.137M57.9066 121.677L69.7731 124.091M47.2875 119.359L59.1203 121.917M36.7021 116.93L48.5011 119.631M26.1505 114.388L37.9157 117.218M15.6324 111.719L27.3472 114.676M5.1313 108.921L16.8292 112.022M486.717 124.602L498.432 121.565M465.597 129.67L477.379 126.904M454.994 132.019L466.81 129.382M444.358 134.241L456.208 131.748M433.689 136.351L445.572 134.001M423.002 138.349L434.902 136.127M412.282 140.219L424.216 138.125M401.545 141.962L413.512 140.012M390.791 143.592L402.775 141.77M380.02 145.095L392.021 143.4M369.215 146.469L381.25 144.919M358.411 147.716L370.446 146.31M347.573 148.851L359.641 147.588M336.734 149.874L348.82 148.739M325.879 150.753L337.982 149.762M315.024 151.521L327.127 150.657M304.152 152.16L316.255 151.441M293.263 152.688L305.383 152.096M282.375 153.071L294.511 152.624M271.486 153.343L283.622 153.039M260.597 153.503L272.733 153.327M249.708 153.519L261.844 153.487M238.819 153.423L250.956 153.519M227.914 153.199L240.05 153.439M217.042 152.847L229.161 153.231M206.153 152.384L218.272 152.895M195.281 151.792L207.4 152.432M184.409 151.073L196.511 151.856M173.554 150.226L185.656 151.153M162.699 149.267L174.784 150.322M151.877 148.18L163.946 149.379M141.056 146.965L153.108 148.308M130.251 145.638L142.286 147.109M119.464 144.184L131.482 145.798M108.693 142.601L120.694 144.343M97.9559 140.907L109.923 142.793M87.2357 139.085L99.1863 141.099M76.5322 137.134L88.4492 139.292M65.8626 135.072L77.7459 137.374M55.2098 132.882L67.0762 135.312M44.5907 130.581L56.4233 133.138M34.0052 128.151L45.8042 130.852M23.4535 125.609L35.2189 128.439M12.9186 122.94L24.6503 125.913M2.43442 120.159L14.1154 123.26M494.69 134.481L506.371 131.396M484.155 137.134L495.886 134.177M473.586 139.66L485.352 136.831M463.001 142.074L474.8 139.372M452.382 144.359L464.214 141.802M441.729 146.533L453.595 144.104M431.042 148.595L442.942 146.294M420.356 150.53L432.273 148.356M409.619 152.336L421.569 150.306M398.881 154.03L410.849 152.144M388.111 155.613L400.112 153.838M377.323 157.051L389.341 155.437M366.519 158.394L378.554 156.891M355.697 159.593L367.749 158.25M344.876 160.696L356.944 159.465M334.021 161.655L346.106 160.568M323.165 162.502L335.268 161.559M312.31 163.221L324.413 162.406M301.422 163.829L313.541 163.157M290.55 164.308L302.669 163.765M279.661 164.676L291.78 164.26M268.772 164.9L280.908 164.628M257.883 165.028L270.019 164.884M246.977 165.012H259.114M236.089 164.884L248.225 165.028M225.2 164.628L237.336 164.9M214.311 164.26L226.447 164.676M203.439 163.765L215.558 164.308M192.55 163.157L204.67 163.829M181.695 162.406L193.798 163.221M170.84 161.559L182.926 162.502M159.985 160.568L172.071 161.655M149.164 159.465L161.232 160.696M138.342 158.25L150.394 159.593M127.538 156.891L139.573 158.394M116.767 155.437L128.768 157.051M105.996 153.838L117.997 155.613M95.259 152.144L107.227 154.03M84.5219 150.306L96.4726 152.336M73.8353 148.356L85.7524 150.53M63.1656 146.294L75.0489 148.595M52.5128 144.104L64.3793 146.533M41.8937 141.802L53.7264 144.359M31.3083 139.372L43.1073 142.074M20.7397 136.831L32.505 139.66M10.2218 134.177L21.9533 137.134M481.576 149.634L493.324 146.741M470.99 152.096L482.789 149.347M460.388 154.462L472.204 151.824M449.752 156.684L461.602 154.19M439.099 158.81L450.966 156.444M428.413 160.808L440.313 158.57M417.693 162.678L429.626 160.584M406.955 164.436L418.923 162.47M396.201 166.083L408.186 164.244M385.431 167.601L397.432 165.907M374.643 169.008L386.661 167.441M363.822 170.287L375.873 168.848M353 171.453L365.069 170.159M342.162 172.508L354.231 171.326M331.324 173.436L343.409 172.397M320.452 174.235L332.554 173.324M309.58 174.922L321.699 174.155M298.708 175.482L310.827 174.842M287.819 175.929L299.955 175.434M276.93 176.249L289.066 175.881M266.041 176.457L278.177 176.217M255.153 176.537L267.289 176.441M244.264 176.505L256.4 176.537M233.375 176.345L245.494 176.521M222.469 176.073L234.605 176.377M211.597 175.673L223.717 176.105M200.709 175.146L212.828 175.721M189.837 174.507L201.956 175.21M178.981 173.755L191.084 174.587M168.126 172.876L180.212 173.851M157.271 171.869L169.357 172.988M146.45 170.75L158.519 171.997M135.628 169.519L147.68 170.894M124.841 168.161L136.859 169.663M114.053 166.69L126.071 168.32M103.282 165.092L115.284 166.866M92.5452 163.381L104.513 165.283M81.8249 161.543L93.7757 163.573M71.1385 159.593L83.0554 161.751M60.4519 157.515L72.352 159.817M49.8159 155.325L61.6823 157.755M39.1968 153.023L51.0295 155.581M28.5945 150.61L40.4104 153.295M18.0429 148.068L29.8081 150.881M7.50801 145.398L19.2395 148.356M489.549 159.577L501.28 156.636M478.997 162.102L490.762 159.289M468.395 164.516L480.194 161.831M457.776 166.802L469.608 164.244M447.123 168.976L458.989 166.546M436.453 171.038L448.336 168.736M425.75 172.988L437.667 170.814M415.029 174.81L426.98 172.764M404.292 176.521L416.26 174.602M393.521 178.119L405.523 176.329M382.751 179.59L394.752 177.943M371.946 180.948L383.981 179.43M361.125 182.179L373.177 180.789M350.303 183.298L362.355 182.051M339.465 184.305L351.534 183.186M328.61 185.184L340.695 184.193M317.738 185.952L329.84 185.088M306.866 186.607L318.985 185.872M295.994 187.134L308.113 186.527M285.105 187.534L297.225 187.071M274.216 187.822L286.353 187.502M263.328 187.998L275.464 187.806M252.422 188.046L264.558 187.982M241.533 187.982L253.669 188.046M230.644 187.806L242.78 187.998M219.756 187.502L231.892 187.822M208.867 187.071L221.003 187.534M197.995 186.527L210.114 187.134M187.123 185.872L199.225 186.607M176.251 185.088L188.353 185.952M165.413 184.193L177.498 185.184M154.558 183.186L166.643 184.305M143.736 182.051L155.805 183.298M132.932 180.789L144.967 182.179M122.127 179.43L134.162 180.948M111.339 177.943L123.358 179.59M100.585 176.329L112.57 178.119M89.8483 174.602L101.816 176.521M79.1281 172.764L91.0619 174.81M68.4246 170.814L80.3416 172.988M57.755 168.736L69.6551 171.038M47.119 166.546L58.9686 168.976M36.4998 164.244L48.3157 166.802M25.8976 161.831L37.6966 164.516M15.3459 159.289L27.1113 162.102M4.81103 156.636L16.5427 159.577M497.521 169.503L509.236 166.498M486.986 172.077L498.735 169.2M476.401 174.539L488.183 171.789M465.799 176.888L477.615 174.267M455.163 179.126L466.996 176.633M444.493 181.252L456.376 178.886M433.807 183.25L445.707 181.012M423.103 185.152L435.02 183.026M412.366 186.927L424.317 184.929M401.612 188.573L413.596 186.719M390.841 190.124L402.843 188.397M380.054 191.546L392.072 189.948M369.249 192.857L381.284 191.386M358.428 194.056L370.48 192.713M347.589 195.127L359.658 193.928M336.751 196.086L348.837 195.015M325.896 196.933L337.982 195.99M315.024 197.652L327.127 196.837M304.152 198.276L316.272 197.588M293.263 198.755L305.383 198.212M282.375 199.139L294.511 198.707M271.486 199.395L283.622 199.091M260.597 199.539L272.733 199.363M249.708 199.555L261.844 199.523M238.819 199.459L250.956 199.555M227.914 199.251L240.05 199.475M217.042 198.915L229.161 199.283M206.153 198.468L218.272 198.963M195.281 197.908L207.383 198.532M184.409 197.221L196.511 197.972M173.537 196.422L185.64 197.317M162.699 195.51L174.784 196.517M151.861 194.487L163.929 195.622M141.022 193.337L153.091 194.599M130.218 192.074L142.253 193.464M119.413 190.683L131.448 192.218M108.642 189.181L120.644 190.843M97.8885 187.566L109.873 189.356M87.1345 185.84L99.1021 187.758M76.4311 184.001L88.365 186.048M65.7277 182.035L77.6447 184.209M55.058 179.957L66.9413 182.259M44.4052 177.767L56.2717 180.197M33.7861 175.466L45.6188 178.023M23.2007 173.052L34.9997 175.737M12.6321 170.51L24.4143 173.324M2.11416 167.873L13.8457 170.814M536.896 170.846L548.493 167.409M526.463 173.803L538.093 170.494M515.995 176.665L527.659 173.468M505.494 179.398L517.192 176.345M494.959 182.035L506.691 179.094M484.391 184.545L496.156 181.732M473.805 186.959L485.604 184.273M463.186 189.244L475.002 186.687M452.533 191.418L464.383 188.989M441.864 193.496L453.747 191.179M431.16 195.447L443.077 193.257M420.44 197.285L432.374 195.223M409.703 199.011L421.67 197.077M398.932 200.61L410.917 198.819M388.161 202.112L400.163 200.434M377.357 203.487L389.392 201.952M366.552 204.75L378.587 203.343M355.731 205.9L367.783 204.622M344.893 206.939L356.961 205.773M334.037 207.867L346.123 206.828M323.182 208.666L335.268 207.755M312.31 209.353L324.413 208.586M301.439 209.929L313.541 209.273M290.55 210.376L302.669 209.865M279.661 210.728L291.797 210.328M268.772 210.952L280.908 210.696M257.883 211.063L270.019 210.936M246.977 211.048H259.114M236.089 210.936L248.225 211.063M225.2 210.696L237.336 210.952M214.311 210.328L226.447 210.728M203.422 209.865L215.558 210.376M192.55 209.273L204.67 209.929M181.678 208.586L193.798 209.353M170.823 207.755L182.926 208.666M159.985 206.828L172.071 207.867M149.147 205.773L161.216 206.939M138.309 204.622L150.377 205.9M127.504 203.343L139.556 204.75M116.716 201.952L128.735 203.487M105.929 200.434L117.947 202.112M95.1747 198.819L107.159 200.61M84.4376 197.077L96.4052 199.011M73.7173 195.223L85.6681 197.285M63.0308 193.257L74.9478 195.447M52.3611 191.179L64.2444 193.496M41.7083 188.989L53.5747 191.418M31.0892 186.687L42.9218 189.244M20.5037 184.273L32.3027 186.959M9.93525 181.732L21.7005 184.545M534.402 183.586L545.998 180.213M523.934 186.479L535.582 183.25M513.45 189.276L525.131 186.159M502.932 191.962L514.647 188.957M492.38 194.535L504.129 191.658M481.795 196.981L493.594 194.248M471.193 199.331L483.009 196.709M460.557 201.569L472.406 199.075M449.904 203.695L461.77 201.329M439.217 205.709L451.117 203.455M428.497 207.611L440.431 205.485M417.777 209.401L429.728 207.403M407.023 211.063L419.007 209.193M396.252 212.63L408.253 210.888M385.464 214.085L397.483 212.454M374.677 215.411L386.695 213.925M363.855 216.642L375.907 215.267M353.017 217.745L365.086 216.498M342.179 218.736L354.264 217.617M331.324 219.615L343.409 218.624M320.469 220.383L332.571 219.519M309.597 221.038L321.699 220.303M298.708 221.565L310.827 220.958M287.819 221.997L299.955 221.518M276.93 222.301L289.066 221.949M266.041 222.493L278.177 222.269M255.153 222.572L267.289 222.477M244.264 222.541L256.4 222.572M233.375 222.397L245.494 222.556M222.469 222.125L234.605 222.413M211.597 221.741L223.717 222.157M200.709 221.262L212.828 221.789M189.837 220.654L201.956 221.31M178.965 219.919L191.067 220.718M168.109 219.088L180.212 220.015M157.254 218.145L169.34 219.2M146.433 217.074L158.502 218.257M135.612 215.907L147.663 217.202M124.79 214.612L136.842 216.035M114.003 213.205L126.021 214.756M103.232 211.687L115.233 213.365M92.4778 210.057L104.462 211.863M81.7407 208.314L93.6915 210.248M71.0205 206.46L82.9542 208.522M60.317 204.494L72.234 206.668M49.6474 202.4L61.5475 204.718M39.0114 200.21L50.8778 202.656M28.3922 197.908L40.225 200.466M17.8069 195.494L29.6059 198.18M7.23827 192.969L19.0035 195.766M552.724 190.283L564.27 186.751M542.324 193.337L553.904 189.932M531.873 196.294L543.504 193.001M521.406 199.123L533.07 195.958M510.905 201.856L522.603 198.803M500.37 204.478L512.102 201.553M489.801 206.987L501.567 204.19M479.199 209.401L490.998 206.716M468.58 211.687L480.413 209.129M457.927 213.877L469.794 211.431M447.258 215.939L459.141 213.621M436.571 217.905L448.471 215.715M425.851 219.759L437.785 217.681M415.114 221.486L427.064 219.551M404.343 223.116L416.327 221.294M393.572 224.635L405.573 222.94M382.784 226.025L394.803 224.459M371.98 227.32L384.015 225.881M361.158 228.503L373.21 227.176M350.32 229.574L362.389 228.375M339.465 230.517L351.551 229.446M328.61 231.364L340.712 230.421M317.738 232.083L329.857 231.268M306.866 232.707L318.985 232.019M295.994 233.202L308.113 232.643M285.105 233.602L297.225 233.154M274.216 233.874L286.353 233.554M263.328 234.034L275.464 233.842M252.422 234.081L264.558 234.018M241.533 234.018L253.669 234.081M230.644 233.842L242.78 234.034M219.756 233.554L231.892 233.874M208.867 233.154L221.003 233.602M197.995 232.643L210.114 233.202M187.123 232.019L199.225 232.707M176.251 231.268L188.353 232.083M165.396 230.421L177.481 231.364M154.541 229.446L166.626 230.517M143.719 228.375L155.788 229.574M132.898 227.176L144.95 228.503M122.093 225.881L134.128 227.32M111.289 224.459L123.324 226.025M100.518 222.94L112.519 224.635M89.764 221.294L101.748 223.116M79.0269 219.551L90.9945 221.486M68.3235 217.681L80.2574 219.759M57.6201 215.715L69.5371 217.905M46.9504 213.621L58.8337 215.939M36.3144 211.431L48.1641 213.877M25.6953 209.129L37.5281 211.687M15.0931 206.716L26.8921 209.401M4.54139 204.19L16.3067 206.987M550.229 203.071L561.809 199.618M539.812 206.076L551.426 202.72M529.345 208.954L541.009 205.741M518.861 211.735L530.542 208.634M508.343 214.404L520.057 211.431M497.791 216.978L509.539 214.117M487.206 219.424L498.988 216.69M476.586 221.773L488.419 219.152M465.967 224.011L477.8 221.518M455.298 226.137L467.181 223.771M444.611 228.167L456.511 225.897M433.908 230.069L445.842 227.943M423.188 231.876L435.138 229.861M412.434 233.554L424.401 231.668M401.663 235.136L413.664 233.378M390.892 236.607L402.893 234.961M380.087 237.966L392.122 236.447M369.283 239.213L381.318 237.822M358.445 240.347L370.513 239.085M347.606 241.37L359.692 240.235M336.751 242.298L348.854 241.259M325.896 243.097L337.999 242.186M315.024 243.784L327.144 243.001M304.152 244.36L316.272 243.704M293.263 244.839L305.4 244.312M282.375 245.191L294.511 244.791M271.486 245.431L283.622 245.159M260.597 245.574L272.733 245.415M249.708 245.59L261.844 245.558M238.819 245.495L250.956 245.59M227.914 245.303L240.05 245.511M217.025 244.983L229.161 245.319M206.153 244.551L218.272 245.031M195.264 244.024L207.383 244.615M184.392 243.369L196.511 244.088M173.537 242.617L185.64 243.448M162.682 241.738L174.768 242.713M151.827 240.763L163.912 241.85M141.005 239.66L153.074 240.875M130.184 238.461L142.236 239.804M119.38 237.15L131.415 238.605M108.592 235.728L120.61 237.31M97.821 234.177L109.822 235.888M87.067 232.531L99.0516 234.369M76.3299 230.773L88.2807 232.723M65.6097 228.918L77.5436 230.98M54.9232 226.936L66.8402 229.126M44.2535 224.842L56.1368 227.16M33.6007 222.652L45.4671 225.098M22.9816 220.351L34.8142 222.908M12.3961 217.937L24.1951 220.622M1.82764 215.411L13.6098 218.209M558.151 212.79L569.698 209.289M547.735 215.827L559.331 212.438M526.817 221.597L538.481 218.432M516.299 224.315L528.013 221.278M505.764 226.936L517.512 224.011M495.195 229.43L506.961 226.633M484.61 231.844L496.409 229.158M473.974 234.129L485.807 231.572M463.338 236.319L475.187 233.874M452.668 238.397L464.552 236.064M441.965 240.363L453.882 238.158M431.245 242.218L443.195 240.14M420.524 243.976L432.475 242.01M409.77 245.606L421.738 243.784M398.983 247.141L410.984 245.431M388.195 248.564L400.213 246.981M377.391 249.89L389.425 248.42M366.569 251.089L378.621 249.746M355.748 252.192L367.816 250.961M344.893 253.167L356.978 252.064M334.037 254.046L346.14 253.071M323.182 254.814L335.285 253.95M312.31 255.469L324.43 254.734M301.439 256.012L313.558 255.405M290.55 256.444L302.669 255.964M279.661 256.78L291.797 256.412M268.772 256.987L280.908 256.748M257.883 257.099L270.019 256.971M246.977 257.083H259.114M236.089 256.971L248.225 257.099M225.2 256.748L237.336 256.987M214.311 256.412L226.447 256.78M203.422 255.964L215.558 256.444M192.55 255.405L204.67 256.012M181.678 254.734L193.798 255.469M170.823 253.95L182.926 254.814M159.968 253.071L172.054 254.046M149.113 252.064L161.199 253.167M138.292 250.961L150.36 252.192M127.47 249.746L139.522 251.089M116.666 248.42L128.701 249.89M105.878 246.981L117.896 248.564M95.1073 245.431L107.109 247.141M84.3533 243.784L96.3377 245.606M73.6331 242.01L85.5837 243.976M62.9128 240.14L74.8466 242.218M52.2263 238.158L64.1264 240.363M41.5565 236.064L53.4399 238.397M30.9038 233.874L42.7702 236.319M20.2846 231.572L32.1174 234.129M617.501 205.533L628.828 201.409M607.286 209.129L618.647 205.117M586.739 216.019L598.201 212.23M576.423 219.312L587.919 215.635M566.057 222.493L577.603 218.944M555.657 225.578L567.237 222.141M545.223 228.551L556.837 225.226M534.756 231.428L546.42 228.215M524.271 234.193L535.953 231.108M513.737 236.863L525.468 233.89M503.185 239.42L514.95 236.559M492.599 241.866L504.398 239.133M481.997 244.216L493.813 241.594M471.361 246.454L483.211 243.96M460.708 248.596L472.575 246.198M450.022 250.61L461.922 248.356M439.318 252.528L451.236 250.386M428.598 254.35L440.532 252.32M417.844 256.044L429.812 254.142M407.09 257.643L419.075 255.853M396.303 259.129L408.321 257.467M385.515 260.52L397.533 258.97M374.694 261.783L386.745 260.36M363.872 262.95L375.924 261.655M353.034 264.005L365.103 262.822M342.196 264.948L354.281 263.893M331.324 265.795L343.426 264.852M320.469 266.514L332.571 265.699M309.597 267.138L321.699 266.45M298.708 267.649L310.827 267.074M287.819 268.049L299.955 267.601M276.93 268.353L289.066 268.017M266.041 268.528L278.177 268.321M255.153 268.608L267.289 268.512M244.264 268.576L256.4 268.608M233.375 268.432L245.494 268.592M222.469 268.177L234.605 268.448M211.597 267.825L223.717 268.225M200.709 267.346L212.828 267.873M189.837 266.77L201.956 267.409M178.965 266.083L191.067 266.85M168.093 265.284L180.195 266.163M157.254 264.388L169.34 265.379M146.416 263.365L158.485 264.5M135.578 262.246L147.647 263.493M124.757 261.016L136.808 262.39M113.969 259.673L126.004 261.159M103.181 258.234L115.199 259.833M92.4104 256.684L104.412 258.41M81.6564 255.021L93.6408 256.86M70.9193 253.247L82.8869 255.213M60.2159 251.361L72.1498 253.455M49.5125 249.379L61.4295 251.585M38.8428 247.285L50.7429 249.619M28.2068 245.095L40.0732 247.54M604.893 222.189L616.287 218.241M594.61 225.626L606.055 221.789M584.295 228.95L595.79 225.242M573.945 232.179L585.475 228.583M563.562 235.296L575.142 231.812M553.145 238.317L564.759 234.945M542.695 241.243L554.342 237.982M532.227 244.056L543.891 240.923M521.709 246.773L533.424 243.736M511.174 249.379L522.906 246.47M500.606 251.872L512.371 249.091M490.004 254.27L501.803 251.601M479.385 256.572L491.217 254.014M468.732 258.762L480.598 256.316M458.062 260.84L469.945 258.506M447.375 262.822L459.276 260.6M436.655 264.692L448.589 262.598M425.918 266.45L437.886 264.484M415.181 268.113L427.149 266.259M404.41 269.663L416.395 267.921M393.622 271.102L405.641 269.488M382.818 272.445L394.853 270.942M371.997 273.676L384.049 272.301M361.175 274.794L373.227 273.532M350.337 275.817L362.406 274.667M339.482 276.729L351.567 275.705M328.61 277.528L340.712 276.617M317.755 278.215L329.857 277.432M306.866 278.807L318.985 278.151M295.994 279.286L308.113 278.743M285.105 279.654L297.225 279.238M274.216 279.925L286.353 279.622M263.328 280.069L275.464 279.894M252.422 280.117L264.558 280.053M241.533 280.053L253.669 280.117M230.644 279.894L242.78 280.069M219.756 279.622L231.892 279.925M208.867 279.238L221.003 279.654M197.995 278.743L210.114 279.286M187.106 278.151L199.225 278.807M165.379 276.617L177.481 277.528M154.541 275.705L166.626 276.729M143.702 274.667L155.771 275.817M132.864 273.532L144.933 274.794M122.06 272.301L134.095 273.676M111.255 270.942L123.29 272.445M100.467 269.488L112.486 271.102M89.6965 267.921L101.698 269.663M78.9427 266.259L90.9271 268.113M68.2223 264.484L80.1731 266.45M57.5021 262.598L69.436 264.692M46.8155 260.6L58.7325 262.822M592.183 238.573L603.645 234.817M581.851 241.85L593.363 238.206M571.484 245.015L583.03 241.482M561.068 248.068L572.664 244.647M550.634 251.041L562.264 247.732M540.166 253.902L551.831 250.706M529.665 256.652L541.363 253.583M519.147 259.305L530.879 256.348M508.596 261.863L520.344 259.017M498.01 264.309L509.792 261.575M487.391 266.658L499.207 264.037M476.755 268.896L488.605 266.387M466.102 271.038L477.969 268.64M455.416 273.068L467.316 270.798M444.729 274.986L456.646 272.844M433.992 276.824L445.943 274.778M423.255 278.535L435.223 276.617M412.501 280.149L424.485 278.343M401.713 281.652L413.731 279.973M390.926 283.059L402.944 281.492M380.121 284.353L392.156 282.899M369.3 285.536L381.352 284.209M358.461 286.623L370.53 285.408M347.623 287.598L359.709 286.511M336.768 288.477L348.854 287.502M325.896 289.245L337.999 288.381M315.024 289.9L327.144 289.165M304.152 290.459L316.272 289.836M293.263 290.907L305.4 290.395M282.375 291.243L294.511 290.859M271.486 291.482L283.622 291.211M260.597 291.61L272.733 291.45M249.708 291.626L261.844 291.594M238.819 291.546L250.956 291.626M227.914 291.339L240.05 291.546M217.025 291.051L229.161 291.371M206.153 290.635L218.272 291.083M195.264 290.124L207.383 290.699M86.9997 279.174L98.9841 280.917M76.2457 277.496L88.2301 279.35M65.5086 275.705L77.4761 277.688M589.739 251.489L601.235 247.812M579.373 254.702L590.919 251.121M568.99 257.803L580.57 254.334M558.573 260.808L570.17 257.467M548.105 263.717L559.753 260.472M537.621 266.514L549.302 263.397M527.12 269.232L538.818 266.211M516.568 271.821L528.317 268.928M506 274.315L517.782 271.534M495.397 276.713L507.213 274.043M484.778 279.014L496.611 276.457M431.329 288.925L443.296 286.943M420.592 290.603L432.559 288.733M409.821 292.17L421.805 290.411M399.033 293.64L411.051 291.994M388.229 294.999L400.264 293.465M377.424 296.246L389.459 294.839M366.603 297.397L378.655 296.118M355.765 298.452L367.833 297.269M344.909 299.379L356.995 298.324M334.054 300.226L346.157 299.283M323.182 300.945L335.285 300.13M312.31 301.585L324.43 300.881M301.439 302.096L313.558 301.505M290.55 302.512L302.669 302.048M279.661 302.832L291.797 302.48M268.772 303.023L280.908 302.8M257.883 303.135L270.019 303.007M246.977 303.119H259.114M236.089 303.007L248.225 303.135M84.2859 290.411L96.2872 292.17M73.5488 288.733L85.5163 290.603M576.895 267.521L588.458 264.005M566.495 270.574L578.092 267.17M556.044 273.516L567.675 270.223M545.577 276.361L557.241 273.196M535.076 279.11L546.774 276.041M524.541 281.764L536.273 278.807M439.403 299.283L451.353 297.237M428.666 301.025L440.633 299.091M417.912 302.64L429.896 300.833M407.141 304.174L419.142 302.464M396.353 305.597L408.371 303.998M385.549 306.908L397.584 305.437M374.727 308.122L386.779 306.764M363.889 309.241L375.958 307.995M353.051 310.248L365.136 309.113M342.196 311.16L354.281 310.137M331.341 311.959L343.443 311.048M320.469 312.646L332.571 311.863M309.597 313.238L321.716 312.582M298.708 313.733L310.827 313.174M287.819 314.117L299.955 313.685M276.93 314.404L289.066 314.085M266.041 314.58L278.177 314.372M255.153 314.644L267.289 314.564M244.264 314.612L256.4 314.644M233.358 314.484L245.494 314.628M574.4 280.309L585.98 276.856M563.984 283.298L575.597 279.957M553.516 286.191L565.18 282.963M543.032 288.989L554.713 285.872M532.514 291.674L544.229 288.669M521.979 294.264L533.727 291.371M436.74 311.399L448.69 309.401M426.003 313.094L437.97 311.207M415.232 314.676L427.216 312.902M404.444 316.163L416.462 314.5M393.656 317.537L405.674 315.987M382.852 318.816L394.887 317.394M372.014 319.999L384.082 318.672M361.192 321.07L373.261 319.871M350.337 322.045L362.423 320.958M339.482 322.908L351.584 321.933M328.627 323.676L340.729 322.812M317.755 324.331L329.857 323.596M306.883 324.89L318.985 324.267M295.994 325.354L308.113 324.842M285.105 325.706L297.241 325.306M274.216 325.961L286.353 325.674M263.328 326.105L275.464 325.945M252.422 326.153L264.558 326.105M241.533 326.105L253.669 326.153M230.644 325.945L242.78 326.105M550.988 298.835L562.652 295.67M540.487 301.569L552.185 298.516M529.952 304.206L541.683 301.265M519.4 306.748L531.149 303.918M423.322 325.146L435.307 323.308M412.551 326.681L424.553 324.954M401.764 328.119L413.782 326.521M390.959 329.462L402.994 327.975M380.138 330.709L392.19 329.318M369.317 331.844L381.385 330.565M358.478 332.883L370.547 331.716M347.623 333.81L359.709 332.771M336.768 334.657L348.871 333.714M325.913 335.376L338.015 334.561M315.041 336.016L327.144 335.312M304.152 336.543L316.272 335.952M293.263 336.975L305.4 336.495M282.375 337.294L294.511 336.927M271.486 337.518L283.622 337.262M260.597 337.646L272.733 337.502M249.708 337.662L261.844 337.63M238.819 337.582L250.956 337.662M227.914 337.39L240.05 337.598M537.924 314.133L549.639 311.128M527.373 316.722L539.121 313.829M516.804 319.2L528.587 316.435M431.413 335.584L443.381 333.682M420.642 337.183L432.627 335.392M409.871 338.685L421.873 337.007M399.067 340.076L411.102 338.509M388.262 341.387L400.297 339.932M377.441 342.585L389.493 341.243M366.62 343.688L378.688 342.457M355.765 344.679L367.85 343.56M344.926 345.591L357.012 344.567M334.054 346.39L346.157 345.479M323.199 347.077L335.302 346.294M312.31 347.685L324.43 347.013M301.439 348.18L313.558 347.621M290.55 348.58L302.669 348.132M279.661 348.867L291.797 348.532M268.772 349.075L280.908 348.851M257.883 349.171L270.019 349.059M246.977 349.155H259.114M236.089 349.059L248.225 349.171M450.224 344.232L462.158 342.154M439.487 345.974L451.438 344.024M428.733 347.637L440.718 345.782M417.962 349.203L429.964 347.461M407.175 350.658L419.193 349.027M396.387 352.016L408.405 350.498M385.565 353.279L397.617 351.872M374.744 354.446L386.796 353.135M363.906 355.501L375.975 354.318M353.068 356.476L365.153 355.389M342.212 357.339L354.298 356.364M331.341 358.107L343.443 357.243M320.469 358.778L332.588 358.027M309.597 359.337L321.716 358.698M298.708 359.801L310.844 359.273M287.836 360.169L299.955 359.753M276.93 360.44L289.066 360.137M266.041 360.616L278.177 360.424M255.153 360.68L267.289 360.6M244.264 360.648L256.4 360.68M233.358 360.52L245.494 360.664M458.281 354.542L470.215 352.416M447.561 356.348L459.512 354.334M436.807 358.059L448.774 356.156M426.053 359.673L438.037 357.867M415.282 361.192L427.283 359.497M404.495 362.614L416.513 361.032M393.69 363.941L405.725 362.454M382.868 365.172L394.92 363.797M372.047 366.291L384.099 365.028M361.209 367.314L373.278 366.163M350.354 368.257L362.439 367.202M339.499 369.088L351.584 368.145M328.627 369.807L340.729 368.992M317.755 370.447L329.874 369.743M306.883 370.99L319.002 370.383M295.994 371.422L308.113 370.926M285.105 371.757L297.241 371.374M274.216 372.013L286.353 371.725M263.328 372.141L275.464 371.981M252.422 372.189L264.558 372.141M466.338 364.836L478.255 362.646M455.618 366.69L467.569 364.612M444.898 368.465L456.848 366.483M434.144 370.127L446.111 368.257M423.373 371.709L435.374 369.951M412.602 373.18L424.603 371.534M401.797 374.555L413.832 373.02M390.993 375.85L403.028 374.411M380.172 377.032L392.224 375.706M369.333 378.119L381.402 376.904M358.495 379.11L370.581 378.007M347.64 380.021L359.726 379.014M336.785 380.821L348.887 379.91M325.913 381.508L338.015 380.725M315.041 382.115L327.16 381.444M304.152 382.627L316.272 382.052M293.263 383.043L305.4 382.579M282.391 383.346L294.511 382.995M271.486 383.554L283.622 383.314M260.597 383.682L272.733 383.538M495.735 370.974L507.601 368.512M485.082 373.084L496.965 370.734M474.395 375.082L486.295 372.844M463.692 377L475.609 374.858M452.972 378.823L464.905 376.793M442.218 380.549L454.185 378.615M431.464 382.179L443.448 380.357M420.693 383.714L432.694 382.004M409.905 385.153L421.923 383.538M399.101 386.495L411.136 384.993M388.296 387.742L400.331 386.351M377.475 388.893L389.527 387.598M366.637 389.948L378.705 388.765M355.781 390.907L367.867 389.836M344.926 391.77L357.029 390.795M334.071 392.538L346.174 391.674M323.199 393.209L335.302 392.458M312.31 393.784L324.43 393.129M301.439 394.264L313.558 393.72M290.55 394.632L302.686 394.2M279.661 394.919L291.797 394.599M268.772 395.111L280.908 394.887M257.883 395.207L270.019 395.095M493.122 383.266L504.988 380.853M482.436 385.312L494.336 383.011M471.749 387.279L483.666 385.089M461.029 389.165L472.963 387.071M450.308 390.939L462.259 388.941M439.554 392.617L451.522 390.731M428.784 394.216L440.785 392.426M418.013 395.702L430.014 394.024M407.225 397.109L419.243 395.543M396.404 398.404L408.456 396.949M385.599 399.619L397.651 398.26M374.761 400.738L386.83 399.491M363.923 401.761L375.991 400.61M353.068 402.688L365.153 401.649M342.212 403.519L354.315 402.576M331.357 404.238L343.46 403.423M320.469 404.878L332.588 404.174M309.597 405.437L321.716 404.814M298.708 405.885L310.844 405.373M287.836 406.236L299.955 405.837M276.93 406.492L289.066 406.188M266.041 406.652L278.177 406.46M255.153 406.716L267.289 406.636M490.476 395.527L502.359 393.177M479.789 397.541L491.706 395.287M469.086 399.459L481.019 397.317M458.365 401.297L470.316 399.251M447.628 403.023L459.596 401.089M436.874 404.67L448.859 402.832M426.104 406.22L438.105 404.494M415.316 407.675L427.334 406.045M404.528 409.05L416.563 407.515M393.707 410.312L405.759 408.89M382.885 411.479L394.954 410.169M372.064 412.566L384.133 411.352M361.209 413.557L373.294 412.454M350.354 414.453L362.456 413.445M339.499 415.236L351.601 414.341M328.627 415.955L340.746 415.156M317.755 416.563L329.874 415.875M306.883 417.074L319.002 416.499M295.994 417.49L308.113 417.01M285.105 417.809L297.241 417.442M274.216 418.049L286.353 417.777M263.328 418.177L275.464 418.033M487.846 407.771L499.73 405.469M477.143 409.737L489.06 407.531M466.439 411.623L478.373 409.513M455.702 413.413L467.653 411.415M444.965 415.108L456.933 413.206M434.194 416.706L446.196 414.916M423.424 418.225L435.425 416.531M412.636 419.648L424.654 418.049M401.831 420.958L413.866 419.488M391.01 422.205L403.062 420.814M380.189 423.34L392.257 422.061M369.35 424.379L381.419 423.212M358.512 425.338L370.581 424.267M347.657 426.201L359.742 425.242M336.785 426.968L348.887 426.105M325.913 427.64L338.032 426.889M315.041 428.215L327.16 427.56M304.152 428.711L316.288 428.151M293.28 429.094L305.4 428.647M282.391 429.398L294.511 429.062M271.486 429.606L283.622 429.366M506.539 415.859L518.406 413.397M495.886 417.969L507.77 415.619M485.2 419.999L497.1 417.729M474.496 421.917L486.413 419.759M463.776 423.756L475.727 421.71M453.039 425.514L465.007 423.564M442.285 427.16L454.269 425.322M431.514 428.727L443.515 426.984M420.744 430.197L432.745 428.551M409.939 431.588L421.974 430.038M399.134 432.883L411.169 431.428M388.313 434.066L400.365 432.739M377.492 435.185L389.544 433.938M366.637 436.192L378.722 435.057M355.798 437.119L367.884 436.08M344.943 437.934L357.029 437.007M334.071 438.669L346.174 437.854M323.199 439.325L335.302 438.605M312.327 439.868L324.447 439.245M301.439 440.332L313.558 439.82M290.55 440.699L302.686 440.284M279.661 440.971L291.797 440.651M268.772 441.147L280.908 440.939M257.883 441.243L270.019 441.131M503.91 428.151L515.793 425.738M493.24 430.213L505.14 427.912M482.553 432.195L494.471 429.99M471.85 434.082L483.767 431.972M461.113 435.888L473.064 433.874M450.376 437.598L462.343 435.68M439.622 439.213L451.606 437.406M428.834 440.731L440.835 439.037M418.046 442.17L430.065 440.571M407.259 443.513L419.277 442.01M396.437 444.775L408.489 443.369M385.616 445.942L397.668 444.632M374.778 447.013L386.846 445.814M363.94 447.988L376.008 446.885M353.084 448.883L365.17 447.876M342.229 449.667L354.315 448.772M331.357 450.386L343.46 449.587M320.485 450.993L332.588 450.306M309.597 451.521L321.716 450.93M298.708 451.953L310.844 451.457M287.836 452.288L299.955 451.905M276.93 452.528L289.066 452.256M266.041 452.688L278.177 452.512M255.153 452.752L267.289 452.672M501.28 440.412L513.164 438.062M490.611 442.442L502.511 440.188M479.907 444.376L491.824 442.218M469.187 446.23L481.121 444.168M458.45 447.988L470.417 446.022M447.696 449.651L459.68 447.797M436.942 451.233L448.926 449.475M426.154 452.72L438.172 451.057M415.366 454.126L427.385 452.56M404.562 455.437L416.597 453.967M393.741 456.652L405.792 455.293M382.919 457.787L394.971 456.524M372.081 458.826L384.15 457.659M361.226 459.769L373.311 458.714M350.371 460.632L362.456 459.673M339.499 461.4L351.601 460.536M328.644 462.071L340.746 461.32M317.755 462.662L329.874 462.007M306.883 463.158L319.002 462.598M295.994 463.557L308.113 463.094M285.105 463.861L297.241 463.509M274.216 464.085L286.353 463.845M263.328 464.229L275.464 464.069M572.917 436.304L584.632 433.298M509.32 450.594L521.187 448.18M498.651 452.672L510.534 450.354M487.964 454.654L499.864 452.432M477.244 456.556L489.178 454.43M466.524 458.362L478.474 456.332M455.786 460.073L467.754 458.155M445.033 461.703L457.017 459.881M434.262 463.254L446.246 461.527M423.474 464.708L435.492 463.078M412.67 466.067L424.705 464.548M401.865 467.346L413.9 465.923M391.044 468.529L403.095 467.202M380.205 469.616L392.274 468.401M369.367 470.623L381.436 469.504M358.512 471.55L370.598 470.511M347.657 472.365L359.759 471.438M336.785 473.1L348.887 472.285M325.913 473.756L338.032 473.036M315.041 474.315L327.16 473.692M304.152 474.779L316.288 474.251M293.28 475.162L305.4 474.731M282.391 475.45L294.511 475.114M271.486 475.642L283.622 475.418M260.597 475.754L272.733 475.626M249.708 475.77L261.844 475.738M591.391 443.481L603.055 440.332M580.873 446.198L592.588 443.161M570.338 448.835L582.07 445.894M559.787 451.393L571.552 448.548M506.691 462.87L518.557 460.488M496.004 464.9L507.905 462.63M485.301 466.834L497.218 464.66M474.598 468.705L486.531 466.626M463.86 470.463L475.811 468.497M453.106 472.141L465.091 470.271M442.353 473.74L454.337 471.965M431.565 475.242L443.583 473.564M420.777 476.665L432.795 475.082M409.973 477.992L422.008 476.505M399.168 479.238L411.203 477.848M388.33 480.389L400.399 479.095M377.508 481.444L389.577 480.261M366.653 482.419L378.739 481.332M355.798 483.314L367.901 482.307M344.943 484.098L357.046 483.203M334.071 484.817L346.174 484.018M323.199 485.424L335.319 484.737M312.327 485.952L324.447 485.361M301.439 486.399L313.558 485.904M290.55 486.751L302.686 486.352M279.661 487.007L291.797 486.719M268.772 487.183L280.908 486.991M257.883 487.279L270.019 487.167M588.846 456.077L600.527 452.992M578.311 458.762L590.043 455.773M567.776 461.352L579.525 458.458M557.208 463.861L568.973 461.064M546.622 466.291L558.404 463.573M536.003 468.625L547.819 466.019M525.367 470.878L537.217 468.353M493.358 477.112L505.275 474.875M482.655 479.015L494.588 476.889M471.934 480.821L483.885 478.791M461.197 482.563L473.148 480.629M450.443 484.21L462.411 482.371M439.672 485.76L451.657 484.018M428.885 487.231L440.903 485.584M418.097 488.605L430.115 487.071M407.276 489.9L419.327 488.462M396.471 491.115L408.523 489.756M385.633 492.234L397.702 490.971M374.795 493.257L386.863 492.106M363.94 494.2L376.025 493.145M353.084 495.063L365.187 494.104M342.229 495.83L354.332 494.967M331.357 496.502L343.46 495.751M320.485 497.093L332.605 496.438M309.597 497.605L321.716 497.029M298.725 498.02L310.844 497.541M287.836 498.34L299.955 497.972M276.93 498.58L289.066 498.308M266.041 498.724L278.177 498.548M255.153 498.788L267.289 498.708M586.284 468.657L597.998 465.619M575.749 471.294L587.48 468.353M565.197 473.836L576.946 470.99M554.612 476.297L566.394 473.548M544.009 478.679L555.825 476.025M533.39 480.981L545.223 478.423M522.754 483.187L534.604 480.725M469.271 492.937L481.222 490.955M458.517 494.632L470.485 492.745M447.763 496.246L459.748 494.44M436.992 497.765L448.994 496.07M426.205 499.203L438.223 497.589M415.4 500.546L427.435 499.043M404.579 501.809L416.631 500.402M393.757 502.976L405.826 501.665M382.936 504.063L395.005 502.848M372.081 505.07L384.166 503.951M361.243 505.981L373.328 504.958M350.371 506.796L362.473 505.869M339.516 507.531L351.618 506.716M328.644 508.187L340.746 507.451M317.755 508.746L329.874 508.123M306.883 509.226L319.002 508.698M295.994 509.625L308.13 509.178M285.105 509.913L297.241 509.577M274.216 510.137L286.353 509.881M263.328 510.265L275.464 510.105M573.17 483.794L584.918 480.917M562.601 486.304L574.383 483.506M552.016 488.733L563.815 486.016M541.414 491.067L553.23 488.462M530.778 493.321L542.61 490.795M455.854 506.7L467.822 504.846M445.083 508.267L457.068 506.508M434.295 509.753L446.314 508.091M423.508 511.144L435.526 509.593M412.703 512.471L424.738 511M401.882 513.685L413.934 512.311M391.06 514.836L403.129 513.557M380.222 515.891L392.291 514.708M369.384 516.85L381.453 515.763M358.529 517.745L370.614 516.754M347.657 518.529L359.759 517.634M336.802 519.248L348.904 518.449M325.93 519.871L338.032 519.168M315.041 520.399L327.16 519.791M304.152 520.846L316.288 520.351M293.28 521.214L305.4 520.799M282.391 521.486L294.511 521.182M271.486 521.678L283.622 521.47M260.597 521.79L272.733 521.662M581.16 493.736L592.891 490.811M570.591 496.278L582.356 493.449M560.022 498.74L571.805 496.006M549.42 501.121L561.219 498.468M538.801 503.423L550.617 500.85M528.148 505.629L539.998 503.167M453.174 518.737L465.158 516.93M442.403 520.271L454.404 518.561M431.615 521.726L443.634 520.111M420.811 523.084L432.846 521.566M410.006 524.363L422.041 522.94M399.185 525.562L411.237 524.235M388.363 526.681L400.415 525.434M377.508 527.704L389.594 526.553M366.67 528.631L378.756 527.592M355.815 529.494L367.901 528.535M344.943 530.261L357.046 529.398M334.071 530.933L346.19 530.166M323.199 531.54L335.319 530.869M312.327 532.036L324.447 531.476M301.439 532.467L313.558 531.988M290.55 532.803L302.686 532.419M279.661 533.059L291.797 532.771M268.772 533.219L280.908 533.027M578.581 506.253L590.329 503.359M568.012 508.746L579.777 505.965M557.427 511.16L569.209 508.474M546.807 513.509L558.623 510.888M536.172 515.747L548.021 513.238M525.519 517.921L537.385 515.508M450.494 530.773L462.478 528.999M439.723 532.276L451.724 530.597M428.919 533.682L440.954 532.1M418.131 535.025L430.166 533.522M407.309 536.272L419.361 534.865M396.488 537.423L408.54 536.128M385.65 538.51L397.719 537.295M374.812 539.501L386.88 538.382M363.956 540.412L376.042 539.389M353.101 541.227L365.187 540.316M342.229 541.962L354.332 541.147M331.357 542.618L343.477 541.882M320.485 543.193L332.605 542.554M309.597 543.673L321.733 543.129M298.725 544.072L310.844 543.625M287.836 544.392L299.955 544.04M276.93 544.616L289.066 544.36M565.416 521.182L577.198 518.449M554.814 523.564L566.63 520.91M544.195 525.866L556.028 523.292M533.559 528.072L545.409 525.594M522.889 530.198L534.772 527.816M458.585 541.243L470.569 539.421M447.814 542.793L459.815 541.051M437.026 544.248L449.044 542.618M426.238 545.639L438.256 544.088M415.434 546.934L427.469 545.479M404.612 548.148L416.664 546.79M393.774 549.283L405.843 548.02M382.953 550.322L395.022 549.155M372.098 551.281L384.183 550.21M361.243 552.16L373.345 551.185M350.388 552.96L362.49 552.065M339.516 553.679L351.618 552.88M328.644 554.302L340.763 553.599M317.772 554.846L329.891 554.238M306.883 555.309L319.002 554.782M295.994 555.677L308.13 555.261M285.105 555.965L297.241 555.645M274.216 556.173L286.353 555.933M562.82 533.602L574.62 530.917M552.201 535.936L564.034 533.331M541.582 538.19L553.415 535.68M530.93 540.364L542.796 537.95M455.905 553.279L467.889 551.489M445.134 554.782L457.135 553.104M434.346 556.221L446.364 554.622M423.541 557.563L435.576 556.061M412.737 558.842L424.772 557.419M401.916 560.025L413.967 558.698M391.077 561.112L403.146 559.881M380.239 562.135L392.308 561M369.384 563.062L381.47 562.023M358.529 563.925L370.631 562.966M347.674 564.692L359.776 563.829M336.802 565.364L348.904 564.597M325.93 565.971L338.032 565.3M315.041 566.483L327.16 565.907M304.169 566.914L316.288 566.435M293.28 567.266L305.4 566.882M282.391 567.538L294.511 567.234M271.486 567.729L283.622 567.506M560.225 546.006L572.024 543.353M549.589 548.308L561.422 545.735M538.953 550.514L550.802 548.036M528.3 552.64L540.166 550.258M442.454 566.77L454.455 565.124M431.649 568.177L443.684 566.611M420.845 569.488L432.88 568.017M410.04 570.719L422.075 569.344M399.202 571.87L411.27 570.591M388.38 572.94L400.449 571.758M377.525 573.932L389.611 572.829M366.67 574.843L378.773 573.82M355.815 575.658L367.917 574.747M344.96 576.393L357.062 575.578M334.088 577.065L346.19 576.313M323.199 577.64L335.319 576.985M312.327 578.12L324.447 577.576M301.439 578.535L313.558 578.072M290.55 578.855L302.686 578.487M279.661 579.111L291.797 578.823M568.214 556.045L580.013 553.359M557.612 558.378L569.428 555.773M546.976 560.632L558.826 558.123M536.323 562.806L548.19 560.377M428.969 580.118L440.987 578.583M418.148 581.396L430.2 579.958M407.326 582.595L419.395 581.253M396.505 583.73L408.574 582.467M385.667 584.769L397.735 583.602M374.828 585.728L386.897 584.657M363.973 586.591L376.059 585.616M353.101 587.391L365.204 586.496M342.229 588.11L354.349 587.311M331.357 588.733L343.477 588.03M320.485 589.293L332.605 588.669M309.597 589.756L321.733 589.229M298.725 590.14L310.844 589.708M287.836 590.444L299.955 590.092M415.451 593.305L427.503 591.898M404.629 594.472L416.698 593.161M393.808 595.559L405.86 594.344M382.953 596.566L395.039 595.447M372.115 597.509L384.2 596.454M361.26 598.356L373.345 597.397M350.388 599.123L362.49 598.26M339.516 599.811L351.635 599.028M328.644 600.402L340.763 599.731M317.772 600.93L329.891 600.338M306.883 601.377L319.002 600.882M295.994 601.729L308.13 601.329M423.575 603.967L435.61 602.512M412.754 605.182L424.806 603.823M401.932 606.333L413.984 605.054M391.094 607.387L403.163 606.205M380.256 608.363L392.325 607.276M369.401 609.274L381.486 608.267M358.546 610.089L370.631 609.178M347.674 610.824L359.776 610.009M336.802 611.496L348.921 610.744M325.93 612.071L338.049 611.416M315.041 612.567L327.16 612.007M304.169 612.982L316.288 612.519M293.28 613.334L305.4 612.95M410.057 617.058L422.109 615.732M399.219 618.177L411.287 616.93M388.38 619.2L400.466 618.049M377.542 620.159L389.628 619.088M366.687 621.022L378.773 620.047M355.832 621.822L367.917 620.927M344.96 622.541L357.062 621.742M334.088 623.18L346.19 622.461M323.199 623.724L335.319 623.1M312.327 624.203L324.447 623.676M301.439 624.603L313.575 624.155M396.522 630.006L408.59 628.791M385.684 631.013L397.752 629.878M374.828 631.94L386.914 630.901M363.973 632.787L376.076 631.828M353.118 633.554L365.221 632.691M342.246 634.242L354.349 633.458M331.374 634.849L343.477 634.162M320.485 635.377L332.605 634.785M309.597 635.824L321.733 635.313M382.97 642.81L395.055 641.707M372.115 643.705L384.217 642.698M361.26 644.52L373.362 643.609M350.388 645.255L362.507 644.424M339.532 645.927L351.635 645.175M328.644 646.518L340.763 645.847M317.772 647.014L329.891 646.454M306.883 647.445L319.002 646.966M336.802 657.611L348.921 656.892M325.93 658.171L338.049 657.531M315.041 658.65L327.177 658.107M304.169 659.05L316.288 658.602" stroke="#218B53" stroke-opacity="0.49" stroke-width="2" stroke-linecap="square" stroke-linejoin="round"/>
</svg>