<svg width="459" height="272" viewBox="0 0 459 272" fill="none" xmlns="http://www.w3.org/2000/svg">
<rect opacity="0.2" x="26" width="433" height="252.927" rx="15" fill="url(#paint0_linear_747_2)"/>
<rect y="17" width="436.549" height="255" rx="15" fill="url(#paint1_linear_747_2)"/>
<mask id="mask0_747_2" style="mask-type:alpha" maskUnits="userSpaceOnUse" x="0" y="17" width="437" height="255">
<rect y="17" width="436.549" height="255" rx="41.5761" fill="#ED713C"/>
</mask>
<g mask="url(#mask0_747_2)">
<ellipse opacity="0.1" cx="33.9537" cy="312.19" rx="222.432" ry="156.603" fill="black"/>
<ellipse opacity="0.08" cx="402.595" cy="-23.1899" rx="222.432" ry="156.603" fill="black"/>
<rect x="45.7343" y="108.467" width="45.7337" height="30.4891" rx="6.92935" fill="url(#paint2_radial_747_2)"/>
<path fill-rule="evenodd" clip-rule="evenodd" d="M68.6003 108.771L63.5188 116.738C63.5188 116.738 65.5514 123.71 63.5188 129.686L68.6003 138.65L73.6818 129.686C73.6818 129.686 71.6492 124.706 73.6818 116.738C73.6818 116.738 68.6003 108.771 68.6003 108.771Z" stroke="#C7C7B6" stroke-width="1.80163" stroke-linejoin="bevel"/>
<path d="M45.734 117.104H63.5193" stroke="#C7C7B6" stroke-width="1.80163" stroke-linejoin="bevel"/>
<path d="M73.1737 117.104H91.4672" stroke="#C7C7B6" stroke-width="1.80163" stroke-linejoin="bevel"/>
<path d="M45.734 129.299H63.5193" stroke="#C7C7B6" stroke-width="1.80163" stroke-linejoin="bevel"/>
<path d="M73.1737 129.299H91.4672" stroke="#C7C7B6" stroke-width="1.80163" stroke-linejoin="bevel"/>
<path opacity="0.9" d="M102 121.828C102.464 122.292 102.833 122.844 103.084 123.45C103.336 124.057 103.465 124.707 103.465 125.364C103.465 126.021 103.336 126.671 103.084 127.278C102.833 127.884 102.464 128.436 102 128.9M104.828 119C105.664 119.836 106.327 120.828 106.779 121.92C107.231 123.012 107.464 124.182 107.464 125.364C107.464 126.546 107.231 127.716 106.779 128.808C106.327 129.9 105.664 130.892 104.828 131.728M107.12 115C108.956 115.836 110.892 119.845 111.071 120.92C111.311 122.355 111.756 124.182 111.756 125.364C111.756 126.546 111.523 128.716 111.071 129.808C110.619 130.9 108.956 133.892 108.12 134.728" stroke="white" stroke-width="2" stroke-linecap="round" stroke-linejoin="round"/>
</g>
<path d="M48.0217 228.383L52.2108 240.262H52.3762L56.5653 228.383H58.3567L53.1754 242.494H51.4116L46.2303 228.383H48.0217ZM63.1561 242.742C62.4854 242.742 61.8768 242.616 61.3302 242.363C60.7836 242.106 60.3495 241.736 60.028 241.254C59.7065 240.767 59.5457 240.179 59.5457 239.49C59.5457 238.884 59.6651 238.392 59.904 238.016C60.1428 237.634 60.4621 237.336 60.8617 237.12C61.2613 236.904 61.7023 236.743 62.1846 236.638C62.6715 236.527 63.1606 236.44 63.6521 236.376C64.2952 236.293 64.8165 236.231 65.2162 236.19C65.6204 236.144 65.9143 236.068 66.0981 235.962C66.2864 235.857 66.3806 235.673 66.3806 235.411V235.356C66.3806 234.676 66.1945 234.148 65.8225 233.771C65.455 233.395 64.8969 233.206 64.1482 233.206C63.3719 233.206 62.7633 233.376 62.3224 233.716C61.8814 234.056 61.5714 234.419 61.3922 234.805L59.8489 234.254C60.1245 233.611 60.4919 233.11 60.9513 232.752C61.4152 232.389 61.9204 232.136 62.4671 231.994C63.0183 231.847 63.5603 231.773 64.0931 231.773C64.433 231.773 64.8234 231.815 65.2644 231.897C65.7099 231.975 66.1394 232.139 66.5528 232.387C66.9708 232.635 67.3176 233.009 67.5932 233.51C67.8688 234.01 68.0066 234.681 68.0066 235.521V242.494H66.3806V241.061H66.2979C66.1876 241.291 66.0039 241.536 65.7467 241.798C65.4895 242.06 65.1473 242.283 64.7201 242.467C64.2929 242.65 63.7716 242.742 63.1561 242.742ZM63.4041 241.282C64.0472 241.282 64.5892 241.155 65.0301 240.903C65.4757 240.65 65.811 240.324 66.0361 239.924C66.2657 239.525 66.3806 239.104 66.3806 238.663V237.175C66.3117 237.258 66.1601 237.334 65.9258 237.402C65.6962 237.467 65.4297 237.524 65.1266 237.575C64.828 237.621 64.5363 237.662 64.2516 237.699C63.9714 237.731 63.744 237.758 63.5694 237.781C63.1469 237.837 62.7518 237.926 62.3844 238.05C62.0215 238.17 61.7275 238.351 61.5025 238.594C61.282 238.833 61.1717 239.159 61.1717 239.573C61.1717 240.138 61.3807 240.565 61.7987 240.854C62.2213 241.139 62.7564 241.282 63.4041 241.282ZM73.2934 228.383V242.494H71.6674V228.383H73.2934ZM76.9645 242.494V231.911H78.5906V242.494H76.9645ZM77.7913 230.147C77.4744 230.147 77.2011 230.039 76.9714 229.823C76.7464 229.608 76.6338 229.348 76.6338 229.045C76.6338 228.742 76.7464 228.482 76.9714 228.266C77.2011 228.05 77.4744 227.943 77.7913 227.943C78.1083 227.943 78.3793 228.05 78.6044 228.266C78.834 228.482 78.9489 228.742 78.9489 229.045C78.9489 229.348 78.834 229.608 78.6044 229.823C78.3793 230.039 78.1083 230.147 77.7913 230.147ZM86.2579 242.715C85.376 242.715 84.5974 242.492 83.9222 242.046C83.247 241.596 82.7187 240.962 82.3375 240.145C81.9563 239.322 81.7656 238.351 81.7656 237.23C81.7656 236.119 81.9563 235.154 82.3375 234.336C82.7187 233.519 83.2493 232.887 83.9291 232.442C84.6089 231.996 85.3943 231.773 86.2855 231.773C86.9745 231.773 87.5188 231.888 87.9184 232.118C88.3226 232.343 88.6303 232.6 88.8416 232.89C89.0575 233.174 89.2252 233.409 89.3446 233.592H89.4824V228.383H91.1084V242.494H89.5375V240.868H89.3446C89.2252 241.061 89.0552 241.304 88.8347 241.598C88.6143 241.888 88.2996 242.147 87.8908 242.377C87.482 242.602 86.9377 242.715 86.2579 242.715ZM86.4784 241.254C87.1306 241.254 87.6818 241.084 88.132 240.744C88.5821 240.4 88.9243 239.924 89.1586 239.318C89.3928 238.707 89.51 238.002 89.51 237.203C89.51 236.413 89.3951 235.721 89.1655 235.129C88.9358 234.532 88.5959 234.068 88.1457 233.737C87.6956 233.402 87.1398 233.234 86.4784 233.234C85.7894 233.234 85.2152 233.411 84.7559 233.765C84.3011 234.114 83.9589 234.589 83.7293 235.191C83.5042 235.788 83.3917 236.459 83.3917 237.203C83.3917 237.956 83.5065 238.64 83.7362 239.256C83.9704 239.867 84.3149 240.354 84.7697 240.717C85.229 241.075 85.7986 241.254 86.4784 241.254Z" fill="white" fill-opacity="0.5"/>
<path d="M105.615 242.728C104.526 242.724 103.596 242.437 102.824 241.867C102.052 241.298 101.462 240.468 101.053 239.38C100.645 238.291 100.44 236.98 100.44 235.446C100.44 233.916 100.645 232.609 101.053 231.525C101.467 230.441 102.059 229.614 102.831 229.045C103.607 228.475 104.535 228.191 105.615 228.191C106.694 228.191 107.62 228.478 108.391 229.052C109.163 229.621 109.753 230.448 110.162 231.532C110.575 232.612 110.782 233.916 110.782 235.446C110.782 236.984 110.578 238.298 110.169 239.387C109.76 240.471 109.17 241.3 108.398 241.874C107.626 242.444 106.699 242.728 105.615 242.728ZM105.615 240.889C106.57 240.889 107.316 240.423 107.854 239.49C108.396 238.558 108.667 237.21 108.667 235.446C108.667 234.274 108.543 233.285 108.295 232.476C108.051 231.663 107.7 231.048 107.241 230.63C106.786 230.207 106.244 229.996 105.615 229.996C104.664 229.996 103.917 230.464 103.375 231.401C102.833 232.338 102.56 233.686 102.555 235.446C102.555 236.622 102.677 237.616 102.921 238.429C103.169 239.237 103.52 239.851 103.975 240.269C104.429 240.682 104.976 240.889 105.615 240.889ZM118.611 228.191C119.241 228.195 119.861 228.31 120.472 228.535C121.082 228.76 121.634 229.128 122.125 229.637C122.621 230.147 123.016 230.836 123.31 231.704C123.609 232.568 123.76 233.643 123.765 234.929C123.765 236.165 123.641 237.265 123.393 238.229C123.145 239.189 122.789 240 122.325 240.661C121.866 241.323 121.308 241.826 120.651 242.17C119.994 242.515 119.254 242.687 118.432 242.687C117.592 242.687 116.845 242.522 116.193 242.191C115.541 241.86 115.01 241.403 114.601 240.82C114.192 240.232 113.938 239.557 113.836 238.794H115.938C116.076 239.401 116.356 239.892 116.779 240.269C117.206 240.641 117.757 240.827 118.432 240.827C119.466 240.827 120.272 240.377 120.85 239.476C121.429 238.571 121.721 237.308 121.726 235.687H121.615C121.376 236.082 121.078 236.422 120.72 236.707C120.366 236.991 119.969 237.212 119.528 237.368C119.087 237.524 118.616 237.602 118.115 237.602C117.302 237.602 116.563 237.402 115.897 237.003C115.231 236.603 114.7 236.054 114.305 235.356C113.91 234.658 113.712 233.861 113.712 232.965C113.712 232.074 113.915 231.266 114.319 230.54C114.728 229.814 115.297 229.24 116.028 228.818C116.762 228.39 117.624 228.181 118.611 228.191ZM118.618 229.982C118.081 229.982 117.596 230.115 117.164 230.382C116.737 230.643 116.4 230.999 116.152 231.45C115.903 231.895 115.779 232.391 115.779 232.938C115.779 233.484 115.899 233.98 116.138 234.426C116.381 234.867 116.712 235.218 117.13 235.48C117.552 235.737 118.035 235.866 118.577 235.866C118.981 235.866 119.358 235.788 119.707 235.632C120.056 235.476 120.361 235.26 120.623 234.984C120.885 234.704 121.089 234.387 121.236 234.033C121.383 233.68 121.457 233.308 121.457 232.917C121.457 232.398 121.333 231.916 121.085 231.47C120.841 231.025 120.506 230.666 120.079 230.395C119.652 230.12 119.165 229.982 118.618 229.982ZM132.349 227.722L127.801 244.616H125.962L130.509 227.722H132.349ZM134.764 242.494V240.951L139.539 236.004C140.049 235.466 140.469 234.996 140.8 234.591C141.135 234.183 141.385 233.794 141.551 233.427C141.716 233.059 141.799 232.669 141.799 232.256C141.799 231.787 141.688 231.383 141.468 231.043C141.248 230.699 140.947 230.434 140.565 230.251C140.184 230.062 139.755 229.968 139.277 229.968C138.772 229.968 138.331 230.072 137.954 230.278C137.577 230.485 137.288 230.777 137.086 231.153C136.884 231.53 136.783 231.971 136.783 232.476H134.75C134.75 231.617 134.948 230.866 135.343 230.223C135.738 229.58 136.28 229.082 136.969 228.728C137.658 228.37 138.441 228.191 139.318 228.191C140.205 228.191 140.986 228.367 141.661 228.721C142.341 229.07 142.871 229.548 143.253 230.154C143.634 230.756 143.824 231.436 143.824 232.194C143.824 232.717 143.726 233.229 143.528 233.73C143.335 234.231 142.998 234.789 142.515 235.404C142.033 236.015 141.362 236.757 140.503 237.63L137.699 240.565V240.668H144.052V242.494H134.764ZM152.014 242.687C151.15 242.687 150.374 242.522 149.685 242.191C149 241.856 148.454 241.396 148.045 240.813C147.636 240.23 147.418 239.564 147.39 238.815H149.457C149.508 239.421 149.777 239.92 150.264 240.31C150.75 240.7 151.334 240.896 152.014 240.896C152.556 240.896 153.036 240.772 153.454 240.524C153.876 240.271 154.207 239.924 154.446 239.483C154.689 239.042 154.811 238.539 154.811 237.974C154.811 237.4 154.687 236.888 154.439 236.438C154.191 235.988 153.849 235.634 153.412 235.377C152.98 235.12 152.484 234.989 151.924 234.984C151.497 234.984 151.067 235.058 150.636 235.205C150.204 235.352 149.855 235.544 149.588 235.783L147.638 235.494L148.431 228.383H156.189V230.209H150.202L149.754 234.157H149.836C150.112 233.891 150.477 233.668 150.932 233.489C151.391 233.31 151.883 233.22 152.406 233.22C153.265 233.22 154.03 233.425 154.701 233.833C155.376 234.242 155.906 234.8 156.292 235.508C156.683 236.21 156.876 237.019 156.871 237.933C156.876 238.847 156.669 239.662 156.251 240.379C155.838 241.095 155.263 241.66 154.528 242.074C153.798 242.483 152.96 242.687 152.014 242.687Z" fill="white"/>
<path opacity="0.9" d="M52.7738 190.281C51.7239 190.281 50.7843 190.084 49.9549 189.69C49.1254 189.291 48.4666 188.745 47.9784 188.052C47.4955 187.359 47.2382 186.567 47.2067 185.674H50.0415C50.094 186.336 50.3801 186.876 50.8998 187.296C51.4195 187.711 52.0442 187.918 52.7738 187.918C53.346 187.918 53.8552 187.787 54.3014 187.525C54.7477 187.262 55.0994 186.897 55.3566 186.43C55.6138 185.963 55.7398 185.43 55.7346 184.832C55.7398 184.223 55.6112 183.682 55.3487 183.209C55.0862 182.737 54.7267 182.367 54.2699 182.099C53.8132 181.826 53.2883 181.69 52.6951 181.69C52.2121 181.684 51.7371 181.774 51.2699 181.957C50.8027 182.141 50.4326 182.383 50.1596 182.682L47.5217 182.249L48.3643 173.934H57.7189V176.375H50.7817L50.3171 180.65H50.4116C50.7108 180.299 51.1334 180.007 51.6793 179.776C52.2253 179.54 52.8237 179.422 53.4746 179.422C54.4511 179.422 55.3225 179.653 56.0889 180.115C56.8553 180.572 57.459 181.202 57.9 182.005C58.3409 182.808 58.5614 183.727 58.5614 184.761C58.5614 185.826 58.3147 186.776 57.8212 187.611C57.333 188.441 56.6532 189.094 55.7818 189.572C54.9156 190.044 53.913 190.281 52.7738 190.281ZM61.8922 190.06V187.95L67.4908 182.461C68.0263 181.921 68.4725 181.44 68.8295 181.02C69.1864 180.6 69.4541 180.194 69.6326 179.8C69.8111 179.406 69.9004 178.986 69.9004 178.54C69.9004 178.031 69.7849 177.595 69.5539 177.233C69.3229 176.865 69.0053 176.582 68.6011 176.382C68.1969 176.183 67.7376 176.083 67.2231 176.083C66.6929 176.083 66.2283 176.193 65.8294 176.414C65.4304 176.629 65.1207 176.936 64.9002 177.335C64.685 177.734 64.5774 178.209 64.5774 178.76H61.7977C61.7977 177.737 62.0313 176.847 62.4986 176.091C62.9658 175.335 63.6088 174.75 64.4277 174.335C65.2519 173.92 66.1968 173.713 67.2625 173.713C68.3439 173.713 69.294 173.915 70.113 174.319C70.9319 174.724 71.5671 175.277 72.0185 175.981C72.4752 176.684 72.7036 177.487 72.7036 178.39C72.7036 178.994 72.5881 179.587 72.3571 180.17C72.1261 180.753 71.7193 181.398 71.1366 182.107C70.5592 182.816 69.7481 183.674 68.7035 184.682L65.9239 187.509V187.619H72.9477V190.06H61.8922ZM82.0897 190.281C80.9191 190.281 79.8797 190.084 78.9715 189.69C78.0686 189.296 77.3599 188.758 76.8454 188.076C76.3362 187.388 76.0843 186.609 76.0895 185.737C76.0843 185.06 76.2313 184.438 76.5305 183.871C76.8297 183.304 77.2339 182.831 77.7431 182.454C78.2576 182.07 78.8298 181.826 79.4597 181.721V181.611C78.6303 181.427 77.9583 181.005 77.4439 180.343C76.9347 179.677 76.6827 178.907 76.688 178.036C76.6827 177.207 76.9137 176.466 77.3809 175.816C77.8481 175.165 78.4885 174.653 79.3022 174.28C80.1159 173.902 81.0451 173.713 82.0897 173.713C83.1239 173.713 84.0451 173.902 84.8536 174.28C85.6672 174.653 86.3077 175.165 86.7749 175.816C87.2473 176.466 87.4836 177.207 87.4836 178.036C87.4836 178.907 87.2237 179.677 86.704 180.343C86.1896 181.005 85.5255 181.427 84.7118 181.611V181.721C85.3418 181.826 85.9087 182.07 86.4127 182.454C86.9219 182.831 87.3261 183.304 87.6253 183.871C87.9298 184.438 88.082 185.06 88.082 185.737C88.082 186.609 87.8248 187.388 87.3103 188.076C86.7959 188.758 86.0872 189.296 85.1843 189.69C84.2866 190.084 83.2551 190.281 82.0897 190.281ZM82.0897 188.028C82.6934 188.028 83.2183 187.926 83.6646 187.721C84.1108 187.511 84.4572 187.217 84.704 186.839C84.9507 186.462 85.0767 186.026 85.0819 185.532C85.0767 185.018 84.9428 184.564 84.6803 184.17C84.4231 183.771 84.0688 183.459 83.6173 183.233C83.1711 183.007 82.6619 182.894 82.0897 182.894C81.5123 182.894 80.9978 183.007 80.5464 183.233C80.0949 183.459 79.7379 183.771 79.4755 184.17C79.2182 184.564 79.0922 185.018 79.0975 185.532C79.0922 186.026 79.213 186.462 79.4597 186.839C79.7064 187.212 80.0529 187.504 80.4991 187.714C80.9506 187.924 81.4808 188.028 82.0897 188.028ZM82.0897 180.682C82.5832 180.682 83.0189 180.582 83.3968 180.383C83.78 180.183 84.0819 179.905 84.3024 179.548C84.5229 179.191 84.6357 178.779 84.641 178.312C84.6357 177.85 84.5255 177.445 84.3102 177.099C84.095 176.747 83.7958 176.477 83.4126 176.288C83.0294 176.094 82.5884 175.997 82.0897 175.997C81.5805 175.997 81.1317 176.094 80.7432 176.288C80.36 176.477 80.0608 176.747 79.8455 177.099C79.6356 177.445 79.5332 177.85 79.5384 178.312C79.5332 178.779 79.6382 179.191 79.8534 179.548C80.0739 179.9 80.3757 180.178 80.759 180.383C81.1474 180.582 81.591 180.682 82.0897 180.682ZM91.3636 190.06V187.95L96.9622 182.461C97.4977 181.921 97.9439 181.44 98.3008 181.02C98.6578 180.6 98.9255 180.194 99.104 179.8C99.2825 179.406 99.3717 178.986 99.3717 178.54C99.3717 178.031 99.2562 177.595 99.0253 177.233C98.7943 176.865 98.4767 176.582 98.0725 176.382C97.6683 176.183 97.2089 176.083 96.6945 176.083C96.1643 176.083 95.6997 176.193 95.3007 176.414C94.9018 176.629 94.5921 176.936 94.3716 177.335C94.1564 177.734 94.0487 178.209 94.0487 178.76H91.2691C91.2691 177.737 91.5027 176.847 91.9699 176.091C92.4371 175.335 93.0802 174.75 93.8991 174.335C94.7233 173.92 95.6682 173.713 96.7339 173.713C97.8153 173.713 98.7654 173.915 99.5843 174.319C100.403 174.724 101.038 175.277 101.49 175.981C101.947 176.684 102.175 177.487 102.175 178.39C102.175 178.994 102.059 179.587 101.829 180.17C101.598 180.753 101.191 181.398 100.608 182.107C100.031 182.816 99.2195 183.674 98.1748 184.682L95.3952 187.509V187.619H102.419V190.06H91.3636ZM117.809 190.281C116.675 190.281 115.668 190.086 114.786 189.698C113.909 189.309 113.216 188.769 112.707 188.076C112.198 187.383 111.927 186.582 111.896 185.674H114.856C114.883 186.11 115.027 186.49 115.29 186.816C115.552 187.136 115.901 187.385 116.337 187.564C116.773 187.742 117.261 187.832 117.801 187.832C118.379 187.832 118.891 187.732 119.337 187.532C119.783 187.328 120.132 187.044 120.384 186.682C120.636 186.32 120.76 185.902 120.754 185.43C120.76 184.942 120.634 184.511 120.376 184.139C120.119 183.766 119.746 183.475 119.258 183.265C118.775 183.055 118.193 182.95 117.51 182.95H116.085V180.698H117.51C118.072 180.698 118.563 180.6 118.983 180.406C119.408 180.212 119.741 179.939 119.983 179.587C120.224 179.23 120.342 178.818 120.337 178.351C120.342 177.894 120.24 177.498 120.03 177.162C119.825 176.821 119.534 176.556 119.156 176.367C118.783 176.178 118.345 176.083 117.841 176.083C117.347 176.083 116.891 176.172 116.471 176.351C116.051 176.529 115.712 176.784 115.455 177.115C115.198 177.44 115.061 177.829 115.045 178.28H112.234C112.255 177.377 112.515 176.585 113.014 175.902C113.518 175.214 114.19 174.679 115.03 174.296C115.87 173.907 116.812 173.713 117.857 173.713C118.933 173.713 119.867 173.915 120.66 174.319C121.458 174.718 122.075 175.256 122.51 175.934C122.946 176.611 123.164 177.359 123.164 178.178C123.169 179.086 122.901 179.847 122.361 180.461C121.825 181.076 121.122 181.477 120.25 181.666V181.792C121.384 181.95 122.253 182.37 122.857 183.052C123.466 183.729 123.767 184.572 123.762 185.58C123.762 186.483 123.505 187.291 122.991 188.005C122.481 188.714 121.778 189.27 120.88 189.674C119.988 190.078 118.964 190.281 117.809 190.281ZM126.867 187.068V184.745L133.709 173.934H135.646V177.241H134.465L129.859 184.54V184.666H139.41V187.068H126.867ZM134.56 190.06V186.359L134.591 185.32V173.934H137.347V190.06H134.56ZM148.226 190.281C147.176 190.281 146.236 190.084 145.407 189.69C144.577 189.291 143.918 188.745 143.43 188.052C142.947 187.359 142.69 186.567 142.659 185.674H145.493C145.546 186.336 145.832 186.876 146.352 187.296C146.871 187.711 147.496 187.918 148.226 187.918C148.798 187.918 149.307 187.787 149.753 187.525C150.199 187.262 150.551 186.897 150.808 186.43C151.066 185.963 151.192 185.43 151.186 184.832C151.192 184.223 151.063 183.682 150.8 183.209C150.538 182.737 150.178 182.367 149.722 182.099C149.265 181.826 148.74 181.69 148.147 181.69C147.664 181.684 147.189 181.774 146.722 181.957C146.254 182.141 145.884 182.383 145.611 182.682L142.973 182.249L143.816 173.934H153.171V176.375H146.233L145.769 180.65H145.863C146.163 180.299 146.585 180.007 147.131 179.776C147.677 179.54 148.275 179.422 148.926 179.422C149.903 179.422 150.774 179.653 151.541 180.115C152.307 180.572 152.911 181.202 153.352 182.005C153.793 182.808 154.013 183.727 154.013 184.761C154.013 185.826 153.766 186.776 153.273 187.611C152.785 188.441 152.105 189.094 151.234 189.572C150.367 190.044 149.365 190.281 148.226 190.281ZM163.25 190.281C162.478 190.275 161.725 190.141 160.99 189.879C160.255 189.611 159.593 189.178 159.005 188.58C158.418 187.976 157.95 187.175 157.604 186.178C157.257 185.175 157.087 183.934 157.092 182.454C157.092 181.073 157.239 179.842 157.533 178.76C157.827 177.679 158.25 176.766 158.801 176.02C159.352 175.27 160.016 174.697 160.793 174.304C161.575 173.91 162.449 173.713 163.415 173.713C164.428 173.713 165.326 173.913 166.108 174.312C166.895 174.711 167.531 175.256 168.014 175.949C168.497 176.637 168.796 177.414 168.911 178.28H166.037C165.89 177.661 165.588 177.167 165.132 176.8C164.68 176.427 164.108 176.241 163.415 176.241C162.297 176.241 161.436 176.726 160.832 177.697C160.234 178.669 159.932 180.002 159.927 181.698H160.037C160.294 181.236 160.628 180.839 161.037 180.509C161.446 180.178 161.908 179.923 162.423 179.745C162.943 179.561 163.491 179.469 164.069 179.469C165.014 179.469 165.861 179.695 166.612 180.146C167.368 180.598 167.966 181.22 168.407 182.013C168.848 182.8 169.066 183.703 169.061 184.721C169.066 185.782 168.825 186.734 168.336 187.58C167.848 188.42 167.168 189.081 166.297 189.564C165.426 190.047 164.41 190.286 163.25 190.281ZM163.234 187.918C163.806 187.918 164.318 187.779 164.769 187.501C165.221 187.223 165.578 186.847 165.84 186.375C166.103 185.902 166.231 185.372 166.226 184.784C166.231 184.207 166.105 183.685 165.848 183.217C165.596 182.75 165.247 182.38 164.801 182.107C164.355 181.834 163.846 181.698 163.273 181.698C162.848 181.698 162.452 181.779 162.084 181.942C161.717 182.104 161.397 182.33 161.124 182.619C160.851 182.902 160.635 183.233 160.478 183.611C160.326 183.984 160.247 184.383 160.242 184.808C160.247 185.37 160.378 185.887 160.635 186.359C160.893 186.832 161.247 187.21 161.698 187.493C162.15 187.777 162.662 187.918 163.234 187.918ZM179.199 190.06L186.057 176.485V176.375H178.097V173.934H189.081V176.43L182.231 190.06H179.199ZM197.723 190.281C196.553 190.281 195.513 190.084 194.605 189.69C193.702 189.296 192.993 188.758 192.479 188.076C191.97 187.388 191.718 186.609 191.723 185.737C191.718 185.06 191.865 184.438 192.164 183.871C192.463 183.304 192.867 182.831 193.377 182.454C193.891 182.07 194.463 181.826 195.093 181.721V181.611C194.264 181.427 193.592 181.005 193.077 180.343C192.568 179.677 192.316 178.907 192.321 178.036C192.316 177.207 192.547 176.466 193.014 175.816C193.482 175.165 194.122 174.653 194.936 174.28C195.749 173.902 196.679 173.713 197.723 173.713C198.757 173.713 199.679 173.902 200.487 174.28C201.301 174.653 201.941 175.165 202.408 175.816C202.881 176.466 203.117 177.207 203.117 178.036C203.117 178.907 202.857 179.677 202.338 180.343C201.823 181.005 201.159 181.427 200.345 181.611V181.721C200.975 181.826 201.542 182.07 202.046 182.454C202.555 182.831 202.96 183.304 203.259 183.871C203.563 184.438 203.716 185.06 203.716 185.737C203.716 186.609 203.458 187.388 202.944 188.076C202.429 188.758 201.721 189.296 200.818 189.69C199.92 190.084 198.889 190.281 197.723 190.281ZM197.723 188.028C198.327 188.028 198.852 187.926 199.298 187.721C199.744 187.511 200.091 187.217 200.337 186.839C200.584 186.462 200.71 186.026 200.715 185.532C200.71 185.018 200.576 184.564 200.314 184.17C200.057 183.771 199.702 183.459 199.251 183.233C198.805 183.007 198.295 182.894 197.723 182.894C197.146 182.894 196.631 183.007 196.18 183.233C195.728 183.459 195.371 183.771 195.109 184.17C194.852 184.564 194.726 185.018 194.731 185.532C194.726 186.026 194.846 186.462 195.093 186.839C195.34 187.212 195.686 187.504 196.133 187.714C196.584 187.924 197.114 188.028 197.723 188.028ZM197.723 180.682C198.217 180.682 198.652 180.582 199.03 180.383C199.414 180.183 199.715 179.905 199.936 179.548C200.156 179.191 200.269 178.779 200.274 178.312C200.269 177.85 200.159 177.445 199.944 177.099C199.729 176.747 199.429 176.477 199.046 176.288C198.663 176.094 198.222 175.997 197.723 175.997C197.214 175.997 196.765 176.094 196.377 176.288C195.993 176.477 195.694 176.747 195.479 177.099C195.269 177.445 195.167 177.85 195.172 178.312C195.167 178.779 195.272 179.191 195.487 179.548C195.707 179.9 196.009 180.178 196.392 180.383C196.781 180.582 197.224 180.682 197.723 180.682ZM212.596 173.713C213.367 173.718 214.118 173.855 214.848 174.123C215.583 174.385 216.244 174.815 216.832 175.414C217.42 176.007 217.887 176.802 218.234 177.8C218.58 178.797 218.753 180.031 218.753 181.501C218.759 182.887 218.612 184.125 218.312 185.217C218.018 186.304 217.596 187.223 217.045 187.973C216.493 188.724 215.829 189.296 215.052 189.69C214.276 190.084 213.401 190.281 212.43 190.281C211.412 190.281 210.509 190.081 209.722 189.682C208.939 189.283 208.307 188.737 207.824 188.044C207.341 187.351 207.044 186.559 206.934 185.666H209.808C209.955 186.307 210.254 186.816 210.706 187.194C211.163 187.567 211.737 187.753 212.43 187.753C213.548 187.753 214.409 187.267 215.013 186.296C215.617 185.325 215.919 183.976 215.919 182.249H215.808C215.551 182.711 215.218 183.11 214.808 183.446C214.399 183.776 213.934 184.031 213.415 184.209C212.9 184.388 212.354 184.477 211.777 184.477C210.832 184.477 209.981 184.251 209.226 183.8C208.475 183.349 207.879 182.729 207.438 181.942C207.002 181.154 206.782 180.254 206.777 179.241C206.777 178.191 207.018 177.249 207.501 176.414C207.989 175.574 208.669 174.913 209.54 174.43C210.412 173.941 211.43 173.703 212.596 173.713ZM212.604 176.075C212.037 176.075 211.525 176.214 211.068 176.493C210.617 176.766 210.26 177.138 209.997 177.611C209.74 178.078 209.611 178.6 209.611 179.178C209.617 179.75 209.745 180.27 209.997 180.737C210.254 181.204 210.604 181.574 211.044 181.847C211.491 182.12 212 182.257 212.572 182.257C212.997 182.257 213.394 182.175 213.761 182.013C214.129 181.85 214.449 181.624 214.722 181.335C215 181.041 215.215 180.708 215.367 180.335C215.525 179.963 215.601 179.569 215.596 179.154C215.596 178.603 215.465 178.094 215.202 177.627C214.945 177.159 214.591 176.784 214.139 176.501C213.693 176.217 213.181 176.075 212.604 176.075ZM228.029 190.367C226.733 190.367 225.62 190.039 224.691 189.383C223.767 188.721 223.055 187.769 222.557 186.525C222.063 185.275 221.816 183.771 221.816 182.013C221.822 180.254 222.071 178.758 222.565 177.524C223.063 176.285 223.775 175.34 224.698 174.69C225.628 174.039 226.738 173.713 228.029 173.713C229.321 173.713 230.431 174.039 231.36 174.69C232.289 175.34 233.001 176.285 233.494 177.524C233.993 178.763 234.242 180.259 234.242 182.013C234.242 183.776 233.993 185.283 233.494 186.532C233.001 187.777 232.289 188.727 231.36 189.383C230.436 190.039 229.326 190.367 228.029 190.367ZM228.029 187.903C229.037 187.903 229.832 187.406 230.415 186.414C231.003 185.417 231.297 183.95 231.297 182.013C231.297 180.732 231.163 179.656 230.895 178.784C230.628 177.913 230.25 177.257 229.762 176.816C229.273 176.369 228.696 176.146 228.029 176.146C227.027 176.146 226.234 176.645 225.651 177.642C225.069 178.635 224.775 180.091 224.769 182.013C224.764 183.299 224.893 184.38 225.155 185.257C225.423 186.133 225.801 186.795 226.289 187.241C226.777 187.682 227.357 187.903 228.029 187.903ZM250.304 173.934V190.06H247.382V176.776H247.288L243.516 179.186V176.508L247.524 173.934H250.304ZM255.091 190.06V187.95L260.69 182.461C261.225 181.921 261.671 181.44 262.028 181.02C262.385 180.6 262.653 180.194 262.832 179.8C263.01 179.406 263.099 178.986 263.099 178.54C263.099 178.031 262.984 177.595 262.753 177.233C262.522 176.865 262.204 176.582 261.8 176.382C261.396 176.183 260.936 176.083 260.422 176.083C259.892 176.083 259.427 176.193 259.028 176.414C258.629 176.629 258.32 176.936 258.099 177.335C257.884 177.734 257.776 178.209 257.776 178.76H254.997C254.997 177.737 255.23 176.847 255.697 176.091C256.165 175.335 256.808 174.75 257.627 174.335C258.451 173.92 259.396 173.713 260.461 173.713C261.543 173.713 262.493 173.915 263.312 174.319C264.131 174.724 264.766 175.277 265.217 175.981C265.674 176.684 265.902 177.487 265.902 178.39C265.902 178.994 265.787 179.587 265.556 180.17C265.325 180.753 264.918 181.398 264.335 182.107C263.758 182.816 262.947 183.674 261.902 184.682L259.123 187.509V187.619H266.147V190.06H255.091ZM275.289 190.281C274.118 190.281 273.079 190.084 272.17 189.69C271.267 189.296 270.559 188.758 270.044 188.076C269.535 187.388 269.283 186.609 269.288 185.737C269.283 185.06 269.43 184.438 269.729 183.871C270.029 183.304 270.433 182.831 270.942 182.454C271.456 182.07 272.029 181.826 272.659 181.721V181.611C271.829 181.427 271.157 181.005 270.643 180.343C270.134 179.677 269.882 178.907 269.887 178.036C269.882 177.207 270.113 176.466 270.58 175.816C271.047 175.165 271.687 174.653 272.501 174.28C273.315 173.902 274.244 173.713 275.289 173.713C276.323 173.713 277.244 173.902 278.052 174.28C278.866 174.653 279.507 175.165 279.974 175.816C280.446 176.466 280.682 177.207 280.682 178.036C280.682 178.907 280.423 179.677 279.903 180.343C279.388 181.005 278.724 181.427 277.911 181.611V181.721C278.541 181.826 279.108 182.07 279.612 182.454C280.121 182.831 280.525 183.304 280.824 183.871C281.129 184.438 281.281 185.06 281.281 185.737C281.281 186.609 281.024 187.388 280.509 188.076C279.995 188.758 279.286 189.296 278.383 189.69C277.485 190.084 276.454 190.281 275.289 190.281ZM275.289 188.028C275.892 188.028 276.417 187.926 276.863 187.721C277.31 187.511 277.656 187.217 277.903 186.839C278.15 186.462 278.276 186.026 278.281 185.532C278.276 185.018 278.142 184.564 277.879 184.17C277.622 183.771 277.268 183.459 276.816 183.233C276.37 183.007 275.861 182.894 275.289 182.894C274.711 182.894 274.197 183.007 273.745 183.233C273.294 183.459 272.937 183.771 272.674 184.17C272.417 184.564 272.291 185.018 272.296 185.532C272.291 186.026 272.412 186.462 272.659 186.839C272.905 187.212 273.252 187.504 273.698 187.714C274.149 187.924 274.68 188.028 275.289 188.028ZM275.289 180.682C275.782 180.682 276.218 180.582 276.596 180.383C276.979 180.183 277.281 179.905 277.501 179.548C277.722 179.191 277.835 178.779 277.84 178.312C277.835 177.85 277.724 177.445 277.509 177.099C277.294 176.747 276.995 176.477 276.611 176.288C276.228 176.094 275.787 175.997 275.289 175.997C274.779 175.997 274.331 176.094 273.942 176.288C273.559 176.477 273.26 176.747 273.044 177.099C272.834 177.445 272.732 177.85 272.737 178.312C272.732 178.779 272.837 179.191 273.052 179.548C273.273 179.9 273.575 180.178 273.958 180.383C274.346 180.582 274.79 180.682 275.289 180.682ZM290.161 173.713C290.933 173.718 291.683 173.855 292.413 174.123C293.148 174.385 293.809 174.815 294.397 175.414C294.985 176.007 295.453 176.802 295.799 177.8C296.146 178.797 296.319 180.031 296.319 181.501C296.324 182.887 296.177 184.125 295.878 185.217C295.584 186.304 295.161 187.223 294.61 187.973C294.059 188.724 293.395 189.296 292.618 189.69C291.841 190.084 290.967 190.281 289.996 190.281C288.977 190.281 288.074 190.081 287.287 189.682C286.505 189.283 285.872 188.737 285.389 188.044C284.906 187.351 284.61 186.559 284.499 185.666H287.374C287.521 186.307 287.82 186.816 288.271 187.194C288.728 187.567 289.303 187.753 289.996 187.753C291.114 187.753 291.975 187.267 292.578 186.296C293.182 185.325 293.484 183.976 293.484 182.249H293.374C293.117 182.711 292.783 183.11 292.374 183.446C291.964 183.776 291.5 184.031 290.98 184.209C290.466 184.388 289.92 184.477 289.342 184.477C288.397 184.477 287.547 184.251 286.791 183.8C286.04 183.349 285.444 182.729 285.003 181.942C284.568 181.154 284.347 180.254 284.342 179.241C284.342 178.191 284.583 177.249 285.066 176.414C285.555 175.574 286.234 174.913 287.106 174.43C287.977 173.941 288.996 173.703 290.161 173.713ZM290.169 176.075C289.602 176.075 289.09 176.214 288.633 176.493C288.182 176.766 287.825 177.138 287.563 177.611C287.305 178.078 287.177 178.6 287.177 179.178C287.182 179.75 287.311 180.27 287.563 180.737C287.82 181.204 288.169 181.574 288.61 181.847C289.056 182.12 289.565 182.257 290.137 182.257C290.563 182.257 290.959 182.175 291.326 182.013C291.694 181.85 292.014 181.624 292.287 181.335C292.565 181.041 292.781 180.708 292.933 180.335C293.09 179.963 293.166 179.569 293.161 179.154C293.161 178.603 293.03 178.094 292.767 177.627C292.51 177.159 292.156 176.784 291.704 176.501C291.258 176.217 290.746 176.075 290.169 176.075Z" fill="white"/>
<path d="M44.3181 77.5759H42.0582L47.1361 63.4653H49.5959L54.6738 77.5759H52.4139L48.4246 66.0283H48.3143L44.3181 77.5759ZM44.6971 72.0502H52.028V73.8416H44.6971V72.0502ZM60.8231 66.9929V68.6465H55.0424V66.9929H60.8231ZM56.5926 64.4574H58.6527V74.4685C58.6527 74.8682 58.7124 75.169 58.8319 75.3711C58.9513 75.5686 59.1052 75.7042 59.2935 75.7776C59.4864 75.8465 59.6954 75.881 59.9205 75.881C60.0858 75.881 60.2305 75.8695 60.3546 75.8465C60.4786 75.8236 60.575 75.8052 60.6439 75.7914L61.016 77.4932C60.8966 77.5392 60.7266 77.5851 60.5061 77.631C60.2857 77.6816 60.0101 77.7091 59.6793 77.7137C59.1373 77.7229 58.6321 77.6265 58.1635 77.4243C57.695 77.2222 57.3161 76.9099 57.0267 76.4873C56.7373 76.0647 56.5926 75.5342 56.5926 74.8957V64.4574ZM65.3894 63.4653V77.5759H63.3293V63.4653H65.3894ZM71.2407 77.8102C70.5701 77.8102 69.9638 77.6862 69.4218 77.4381C68.8798 77.1855 68.4503 76.8203 68.1333 76.3426C67.821 75.8649 67.6648 75.2793 67.6648 74.5857C67.6648 73.9885 67.7797 73.4971 68.0093 73.1112C68.239 72.7254 68.549 72.4199 68.9395 72.1949C69.3299 71.9698 69.7663 71.7998 70.2486 71.685C70.7309 71.5702 71.2223 71.4829 71.723 71.4232C72.3569 71.3497 72.8713 71.29 73.2664 71.244C73.6614 71.1935 73.9485 71.1131 74.1276 71.0029C74.3068 70.8927 74.3963 70.7135 74.3963 70.4655V70.4172C74.3963 69.8155 74.2264 69.3493 73.8865 69.0186C73.5512 68.6879 73.0505 68.5225 72.3845 68.5225C71.6909 68.5225 71.1443 68.6764 70.7446 68.9841C70.3496 69.2873 70.0763 69.6249 69.9247 69.997L67.9887 69.556C68.2183 68.9129 68.5536 68.3939 68.9946 67.9989C69.4401 67.5992 69.9523 67.3099 70.5311 67.1307C71.1098 66.947 71.7184 66.8551 72.3569 66.8551C72.7795 66.8551 73.2273 66.9057 73.7004 67.0067C74.1781 67.1032 74.6237 67.2823 75.0371 67.5441C75.4551 67.8059 75.7973 68.1803 76.0637 68.6672C76.3301 69.1495 76.4633 69.7765 76.4633 70.5482V77.5759H74.4514V76.129H74.3688C74.2356 76.3954 74.0358 76.6573 73.7693 76.9145C73.5029 77.1717 73.1607 77.3853 72.7427 77.5553C72.3247 77.7252 71.8241 77.8102 71.2407 77.8102ZM71.6886 76.1566C72.2581 76.1566 72.745 76.0441 73.1492 75.819C73.558 75.5939 73.8681 75.2999 74.0794 74.9371C74.2953 74.5696 74.4032 74.1769 74.4032 73.7589V72.3947C74.3297 72.4682 74.1873 72.5371 73.976 72.6014C73.7693 72.6611 73.5328 72.7139 73.2664 72.7598C73 72.8012 72.7404 72.8402 72.4878 72.877C72.2352 72.9091 72.0239 72.9367 71.8539 72.9596C71.4543 73.0102 71.0891 73.0951 70.7584 73.2146C70.4323 73.334 70.1705 73.5062 69.973 73.7313C69.78 73.9518 69.6836 74.2458 69.6836 74.6132C69.6836 75.1231 69.8719 75.5089 70.2486 75.7708C70.6252 76.028 71.1052 76.1566 71.6886 76.1566ZM87.1376 69.5767L85.2704 69.9074C85.1923 69.6685 85.0683 69.4412 84.8984 69.2253C84.733 69.0094 84.5079 68.8325 84.2232 68.6947C83.9384 68.5569 83.5824 68.488 83.1552 68.488C82.5719 68.488 82.085 68.619 81.6945 68.8808C81.3041 69.138 81.1089 69.471 81.1089 69.8798C81.1089 70.2335 81.2398 70.5183 81.5016 70.7342C81.7634 70.9501 82.186 71.1269 82.7694 71.2647L84.4505 71.6505C85.4243 71.8756 86.1501 72.2224 86.6278 72.6909C87.1055 73.1595 87.3443 73.7681 87.3443 74.5168C87.3443 75.1507 87.1606 75.7156 86.7931 76.2117C86.4302 76.7032 85.9227 77.089 85.2704 77.3692C84.6228 77.6494 83.8718 77.7895 83.0174 77.7895C81.8323 77.7895 80.8654 77.5369 80.1167 77.0316C79.368 76.5218 78.9087 75.7983 78.7387 74.8613L80.7299 74.5581C80.854 75.0772 81.1089 75.4699 81.4947 75.7363C81.8806 75.9981 82.3835 76.129 83.0036 76.129C83.6788 76.129 84.2186 75.9889 84.6228 75.7087C85.027 75.424 85.2291 75.0772 85.2291 74.6684C85.2291 74.3376 85.1051 74.0597 84.857 73.8347C84.6136 73.6096 84.2392 73.4396 83.734 73.3248L81.9426 72.9321C80.955 72.707 80.2247 72.3487 79.7516 71.8572C79.283 71.3658 79.0488 70.7434 79.0488 69.9901C79.0488 69.3654 79.2233 68.8188 79.5724 68.3502C79.9215 67.8817 80.4038 67.5166 81.0193 67.2547C81.6348 66.9883 82.3399 66.8551 83.1345 66.8551C84.2783 66.8551 85.1786 67.1032 85.8354 67.5992C86.4923 68.0907 86.9263 68.7499 87.1376 69.5767ZM106.629 68.054H104.48C104.397 67.5946 104.243 67.1904 104.018 66.8413C103.793 66.4923 103.517 66.196 103.191 65.9525C102.865 65.7091 102.5 65.5254 102.096 65.4013C101.696 65.2773 101.271 65.2153 100.821 65.2153C100.008 65.2153 99.2801 65.4197 98.637 65.8285C97.9985 66.2373 97.4932 66.8368 97.1212 67.6268C96.7537 68.4169 96.57 69.3814 96.57 70.5206C96.57 71.6689 96.7537 72.6381 97.1212 73.4282C97.4932 74.2182 98.0008 74.8153 98.6439 75.2196C99.2869 75.6238 100.01 75.8259 100.814 75.8259C101.26 75.8259 101.682 75.7662 102.082 75.6467C102.486 75.5227 102.851 75.3413 103.177 75.1024C103.504 74.8636 103.779 74.5719 104.004 74.2274C104.234 73.8783 104.392 73.4787 104.48 73.0285L106.629 73.0354C106.515 73.729 106.292 74.3675 105.961 74.9508C105.635 75.5296 105.215 76.0303 104.7 76.4529C104.19 76.8709 103.607 77.1947 102.95 77.4243C102.293 77.654 101.577 77.7688 100.8 77.7688C99.5786 77.7688 98.49 77.4795 97.5346 76.9007C96.5792 76.3174 95.8259 75.4837 95.2747 74.3996C94.7281 73.3156 94.4548 72.0226 94.4548 70.5206C94.4548 69.014 94.7304 67.721 95.2816 66.6415C95.8328 65.5575 96.5861 64.7261 97.5415 64.1474C98.4969 63.564 99.5832 63.2723 100.8 63.2723C101.549 63.2723 102.247 63.3803 102.895 63.5962C103.547 63.8075 104.133 64.1198 104.652 64.5332C105.171 64.942 105.6 65.4427 105.94 66.0352C106.28 66.6232 106.51 67.2961 106.629 68.054ZM112.091 77.8102C111.421 77.8102 110.814 77.6862 110.272 77.4381C109.73 77.1855 109.301 76.8203 108.984 76.3426C108.672 75.8649 108.515 75.2793 108.515 74.5857C108.515 73.9885 108.63 73.4971 108.86 73.1112C109.09 72.7254 109.4 72.4199 109.79 72.1949C110.181 71.9698 110.617 71.7998 111.099 71.685C111.582 71.5702 112.073 71.4829 112.574 71.4232C113.208 71.3497 113.722 71.29 114.117 71.244C114.512 71.1935 114.799 71.1131 114.978 71.0029C115.157 70.8927 115.247 70.7135 115.247 70.4655V70.4172C115.247 69.8155 115.077 69.3493 114.737 69.0186C114.402 68.6879 113.901 68.5225 113.235 68.5225C112.542 68.5225 111.995 68.6764 111.595 68.9841C111.2 69.2873 110.927 69.6249 110.775 69.997L108.839 69.556C109.069 68.9129 109.404 68.3939 109.845 67.9989C110.291 67.5992 110.803 67.3099 111.382 67.1307C111.96 66.947 112.569 66.8551 113.208 66.8551C113.63 66.8551 114.078 66.9057 114.551 67.0067C115.029 67.1032 115.474 67.2823 115.888 67.5441C116.306 67.8059 116.648 68.1803 116.914 68.6672C117.181 69.1495 117.314 69.7765 117.314 70.5482V77.5759H115.302V76.129H115.219C115.086 76.3954 114.886 76.6573 114.62 76.9145C114.354 77.1717 114.011 77.3853 113.593 77.5553C113.175 77.7252 112.675 77.8102 112.091 77.8102ZM112.539 76.1566C113.109 76.1566 113.596 76.0441 114 75.819C114.409 75.5939 114.719 75.2999 114.93 74.9371C115.146 74.5696 115.254 74.1769 115.254 73.7589V72.3947C115.18 72.4682 115.038 72.5371 114.827 72.6014C114.62 72.6611 114.383 72.7139 114.117 72.7598C113.851 72.8012 113.591 72.8402 113.338 72.877C113.086 72.9091 112.875 72.9367 112.705 72.9596C112.305 73.0102 111.94 73.0951 111.609 73.2146C111.283 73.334 111.021 73.5062 110.824 73.7313C110.631 73.9518 110.534 74.2458 110.534 74.6132C110.534 75.1231 110.723 75.5089 111.099 75.7708C111.476 76.028 111.956 76.1566 112.539 76.1566ZM120.058 77.5759V66.9929H122.049V68.6741H122.159C122.352 68.1045 122.692 67.6567 123.179 67.3305C123.671 66.9998 124.226 66.8345 124.846 66.8345C124.975 66.8345 125.127 66.839 125.301 66.8482C125.48 66.8574 125.62 66.8689 125.721 66.8827V68.8532C125.639 68.8303 125.492 68.805 125.281 68.7774C125.069 68.7453 124.858 68.7292 124.647 68.7292C124.16 68.7292 123.726 68.8325 123.344 69.0392C122.968 69.2414 122.669 69.5238 122.449 69.8867C122.228 70.245 122.118 70.6538 122.118 71.1131V77.5759H120.058ZM131.087 77.7826C130.233 77.7826 129.47 77.5644 128.8 77.1281C128.134 76.6871 127.61 76.0601 127.229 75.2471C126.852 74.4295 126.664 73.4488 126.664 72.3051C126.664 71.1614 126.854 70.183 127.236 69.37C127.621 68.5569 128.15 67.9346 128.82 67.5028C129.491 67.071 130.251 66.8551 131.101 66.8551C131.758 66.8551 132.286 66.9654 132.686 67.1858C133.09 67.4017 133.402 67.6544 133.623 67.9437C133.848 68.2331 134.022 68.488 134.146 68.7085H134.27V63.4653H136.33V77.5759H134.318V75.9292H134.146C134.022 76.1543 133.843 76.4115 133.609 76.7009C133.379 76.9903 133.062 77.2429 132.658 77.4588C132.254 77.6747 131.73 77.7826 131.087 77.7826ZM131.542 76.0257C132.134 76.0257 132.635 75.8695 133.044 75.5572C133.457 75.2402 133.77 74.8016 133.981 74.2412C134.197 73.6808 134.305 73.0285 134.305 72.2844C134.305 71.5495 134.199 70.9064 133.988 70.3552C133.776 69.804 133.466 69.3746 133.058 69.0668C132.649 68.7591 132.144 68.6052 131.542 68.6052C130.922 68.6052 130.405 68.7659 129.992 69.0875C129.578 69.409 129.266 69.8477 129.055 70.4035C128.848 70.9593 128.744 71.5862 128.744 72.2844C128.744 72.9918 128.85 73.628 129.061 74.1929C129.273 74.7579 129.585 75.2058 129.998 75.5365C130.416 75.8626 130.931 76.0257 131.542 76.0257Z" fill="white"/>
<path opacity="0.194" d="M278.724 78.9614V64.8508H283.754C284.852 64.8508 285.761 65.0506 286.482 65.4502C287.204 65.8498 287.743 66.3964 288.102 67.09C288.46 67.779 288.639 68.5553 288.639 69.4188C288.639 70.2869 288.458 71.0678 288.095 71.7614C287.736 72.4504 287.194 72.997 286.469 73.4012C285.747 73.8008 284.84 74.0006 283.747 74.0006H280.288V72.1955H283.554C284.248 72.1955 284.81 72.076 285.242 71.8372C285.674 71.5937 285.991 71.263 286.193 70.845C286.395 70.427 286.496 69.9516 286.496 69.4188C286.496 68.886 286.395 68.4129 286.193 67.9995C285.991 67.5861 285.672 67.2622 285.235 67.028C284.804 66.7937 284.234 66.6766 283.527 66.6766H280.853V78.9614H278.724ZM293.03 64.8508V78.9614H290.97V64.8508H293.03ZM298.881 79.1957C298.21 79.1957 297.604 79.0717 297.062 78.8236C296.52 78.571 296.091 78.2058 295.774 77.7281C295.461 77.2504 295.305 76.6648 295.305 75.9712C295.305 75.374 295.42 74.8826 295.65 74.4967C295.879 74.1109 296.189 73.8054 296.58 73.5804C296.97 73.3553 297.406 73.1853 297.889 73.0705C298.371 72.9557 298.863 72.8684 299.363 72.8087C299.997 72.7352 300.512 72.6755 300.907 72.6295C301.302 72.579 301.589 72.4986 301.768 72.3884C301.947 72.2781 302.037 72.099 302.037 71.851V71.8027C302.037 71.201 301.867 70.7348 301.527 70.4041C301.191 70.0734 300.691 69.908 300.025 69.908C299.331 69.908 298.784 70.0619 298.385 70.3696C297.99 70.6728 297.717 71.0104 297.565 71.3825L295.629 70.9415C295.859 70.2984 296.194 69.7794 296.635 69.3844C297.08 68.9847 297.593 68.6954 298.171 68.5162C298.75 68.3325 299.359 68.2406 299.997 68.2406C300.42 68.2406 300.868 68.2911 301.341 68.3922C301.818 68.4887 302.264 68.6678 302.677 68.9296C303.095 69.1914 303.438 69.5658 303.704 70.0527C303.97 70.535 304.104 71.162 304.104 71.9337V78.9614H302.092V77.5145H302.009C301.876 77.7809 301.676 78.0428 301.41 78.3C301.143 78.5572 300.801 78.7708 300.383 78.9408C299.965 79.1107 299.464 79.1957 298.881 79.1957ZM299.329 77.5421C299.898 77.5421 300.385 77.4296 300.789 77.2045C301.198 76.9794 301.508 76.6854 301.72 76.3226C301.935 75.9551 302.043 75.5624 302.043 75.1444V73.7802C301.97 73.8537 301.828 73.9226 301.616 73.9869C301.41 74.0466 301.173 74.0994 300.907 74.1453C300.64 74.1867 300.381 74.2257 300.128 74.2625C299.875 74.2946 299.664 74.3222 299.494 74.3451C299.095 74.3957 298.729 74.4806 298.399 74.6001C298.073 74.7195 297.811 74.8917 297.613 75.1168C297.42 75.3373 297.324 75.6313 297.324 75.9987C297.324 76.5086 297.512 76.8944 297.889 77.1563C298.265 77.4135 298.745 77.5421 299.329 77.5421ZM311.788 68.3784V70.032H306.007V68.3784H311.788ZM307.557 65.8429H309.617V75.854C309.617 76.2537 309.677 76.5545 309.796 76.7566C309.916 76.9541 310.07 77.0896 310.258 77.1631C310.451 77.232 310.66 77.2665 310.885 77.2665C311.05 77.2665 311.195 77.255 311.319 77.232C311.443 77.2091 311.54 77.1907 311.608 77.1769L311.981 78.8787C311.861 78.9247 311.691 78.9706 311.471 79.0165C311.25 79.0671 310.975 79.0946 310.644 79.0992C310.102 79.1084 309.597 79.012 309.128 78.8098C308.66 78.6077 308.281 78.2954 307.991 77.8728C307.702 77.4502 307.557 76.9197 307.557 76.2812V65.8429ZM314.066 78.9614V68.3784H316.127V78.9614H314.066ZM315.107 66.7455C314.749 66.7455 314.441 66.6261 314.184 66.3872C313.931 66.1438 313.805 65.8544 313.805 65.5191C313.805 65.1792 313.931 64.8898 314.184 64.6509C314.441 64.4075 314.749 64.2858 315.107 64.2858C315.465 64.2858 315.771 64.4075 316.023 64.6509C316.28 64.8898 316.409 65.1792 316.409 65.5191C316.409 65.8544 316.28 66.1438 316.023 66.3872C315.771 66.6261 315.465 66.7455 315.107 66.7455ZM320.958 72.6778V78.9614H318.898V68.3784H320.875V70.1009H321.006C321.25 69.5405 321.631 69.0904 322.15 68.7505C322.674 68.4106 323.333 68.2406 324.128 68.2406C324.849 68.2406 325.48 68.3922 326.022 68.6954C326.564 68.9939 326.985 69.4395 327.283 70.032C327.582 70.6246 327.731 71.3572 327.731 72.2299V78.9614H325.671V72.478C325.671 71.7109 325.471 71.1114 325.071 70.6797C324.672 70.2433 324.123 70.0251 323.425 70.0251C322.947 70.0251 322.522 70.1285 322.15 70.3352C321.783 70.5419 321.491 70.845 321.275 71.2447C321.064 71.6397 320.958 72.1174 320.958 72.6778ZM337.198 74.5725V68.3784H339.265V78.9614H337.239V77.1287H337.129C336.885 77.6937 336.495 78.1645 335.958 78.5411C335.425 78.9132 334.761 79.0992 333.966 79.0992C333.287 79.0992 332.685 78.9499 332.161 78.6514C331.642 78.3482 331.233 77.9004 330.935 77.3078C330.641 76.7153 330.494 75.9827 330.494 75.1099V68.3784H332.554V74.8619C332.554 75.583 332.754 76.1572 333.153 76.5844C333.553 77.0116 334.072 77.2252 334.711 77.2252C335.096 77.2252 335.48 77.1287 335.861 76.9358C336.247 76.7429 336.566 76.4512 336.819 76.0607C337.076 75.6703 337.202 75.1742 337.198 74.5725ZM342.033 78.9614V68.3784H344.01V70.1009H344.141C344.362 69.5176 344.722 69.0628 345.223 68.7367C345.724 68.406 346.323 68.2406 347.021 68.2406C347.729 68.2406 348.321 68.406 348.799 68.7367C349.281 69.0674 349.637 69.5222 349.867 70.1009H349.977C350.23 69.5359 350.632 69.0858 351.183 68.7505C351.734 68.4106 352.391 68.2406 353.153 68.2406C354.113 68.2406 354.896 68.5415 355.503 69.1432C356.114 69.7449 356.419 70.6521 356.419 71.8648V78.9614H354.359V72.0577C354.359 71.3411 354.164 70.8221 353.773 70.5005C353.383 70.179 352.917 70.0182 352.375 70.0182C351.704 70.0182 351.183 70.2249 350.811 70.6383C350.439 71.0471 350.253 71.5731 350.253 72.2161V78.9614H348.199V71.9268C348.199 71.3526 348.02 70.891 347.662 70.5419C347.304 70.1928 346.837 70.0182 346.263 70.0182C345.873 70.0182 345.512 70.1216 345.182 70.3283C344.855 70.5304 344.591 70.8129 344.389 71.1758C344.192 71.5386 344.093 71.9589 344.093 72.4366V78.9614H342.033ZM368.773 79.175C367.749 79.175 366.867 78.9431 366.127 78.4791C365.392 78.0106 364.827 77.3652 364.432 76.543C364.037 75.7208 363.84 74.7792 363.84 73.7182C363.84 72.6433 364.042 71.6948 364.446 70.8726C364.85 70.0458 365.42 69.4004 366.155 68.9365C366.89 68.4726 367.755 68.2406 368.752 68.2406C369.556 68.2406 370.273 68.3899 370.902 68.6885C371.531 68.9824 372.039 69.3958 372.425 69.9287C372.815 70.4615 373.047 71.0839 373.12 71.7959H371.115C371.005 71.2998 370.753 70.8726 370.358 70.5143C369.967 70.156 369.443 69.9769 368.787 69.9769C368.212 69.9769 367.709 70.1285 367.278 70.4316C366.851 70.7302 366.518 71.1574 366.279 71.7132C366.04 72.2644 365.92 72.9166 365.92 73.6699C365.92 74.4416 366.038 75.1076 366.272 75.668C366.506 76.2284 366.837 76.6625 367.264 76.9702C367.696 77.278 368.203 77.4319 368.787 77.4319C369.177 77.4319 369.531 77.3607 369.848 77.2183C370.169 77.0713 370.438 76.8623 370.654 76.5913C370.874 76.3203 371.028 75.9941 371.115 75.6129H373.12C373.047 76.2973 372.824 76.9082 372.452 77.4456C372.08 77.983 371.582 78.4056 370.957 78.7134C370.337 79.0211 369.609 79.175 368.773 79.175ZM378.403 79.1957C377.733 79.1957 377.126 79.0717 376.584 78.8236C376.042 78.571 375.613 78.2058 375.296 77.7281C374.984 77.2504 374.827 76.6648 374.827 75.9712C374.827 75.374 374.942 74.8826 375.172 74.4967C375.402 74.1109 375.712 73.8054 376.102 73.5804C376.492 73.3553 376.929 73.1853 377.411 73.0705C377.893 72.9557 378.385 72.8684 378.886 72.8087C379.519 72.7352 380.034 72.6755 380.429 72.6295C380.824 72.579 381.111 72.4986 381.29 72.3884C381.469 72.2781 381.559 72.099 381.559 71.851V71.8027C381.559 71.201 381.389 70.7348 381.049 70.4041C380.714 70.0734 380.213 69.908 379.547 69.908C378.853 69.908 378.307 70.0619 377.907 70.3696C377.512 70.6728 377.239 71.0104 377.087 71.3825L375.151 70.9415C375.381 70.2984 375.716 69.7794 376.157 69.3844C376.603 68.9847 377.115 68.6954 377.694 68.5162C378.272 68.3325 378.881 68.2406 379.519 68.2406C379.942 68.2406 380.39 68.2911 380.863 68.3922C381.341 68.4887 381.786 68.6678 382.2 68.9296C382.618 69.1914 382.96 69.5658 383.226 70.0527C383.493 70.535 383.626 71.162 383.626 71.9337V78.9614H381.614V77.5145H381.531C381.398 77.7809 381.198 78.0428 380.932 78.3C380.666 78.5572 380.323 78.7708 379.905 78.9408C379.487 79.1107 378.987 79.1957 378.403 79.1957ZM378.851 77.5421C379.421 77.5421 379.908 77.4296 380.312 77.2045C380.721 76.9794 381.031 76.6854 381.242 76.3226C381.458 75.9551 381.566 75.5624 381.566 75.1444V73.7802C381.492 73.8537 381.35 73.9226 381.139 73.9869C380.932 74.0466 380.695 74.0994 380.429 74.1453C380.163 74.1867 379.903 74.2257 379.65 74.2625C379.398 74.2946 379.186 74.3222 379.017 74.3451C378.617 74.3957 378.252 74.4806 377.921 74.6001C377.595 74.7195 377.333 74.8917 377.136 75.1168C376.943 75.3373 376.846 75.6313 376.846 75.9987C376.846 76.5086 377.035 76.8944 377.411 77.1563C377.788 77.4135 378.268 77.5421 378.851 77.5421ZM386.37 78.9614V68.3784H388.361V70.0596H388.471C388.664 69.49 389.004 69.0422 389.491 68.716C389.982 68.3853 390.538 68.22 391.158 68.22C391.287 68.22 391.439 68.2245 391.613 68.2337C391.792 68.2429 391.932 68.2544 392.033 68.2682V70.2387C391.951 70.2157 391.804 70.1905 391.592 70.1629C391.381 70.1308 391.17 70.1147 390.959 70.1147C390.472 70.1147 390.038 70.218 389.656 70.4247C389.28 70.6269 388.981 70.9093 388.761 71.2722C388.54 71.6305 388.43 72.0393 388.43 72.4986V78.9614H386.37ZM397.399 79.1681C396.545 79.1681 395.782 78.9499 395.112 78.5136C394.445 78.0726 393.922 77.4456 393.541 76.6326C393.164 75.815 392.976 74.8343 392.976 73.6906C392.976 72.5469 393.166 71.5685 393.547 70.7555C393.933 69.9424 394.462 69.3201 395.132 68.8883C395.803 68.4565 396.563 68.2406 397.413 68.2406C398.07 68.2406 398.598 68.3509 398.997 68.5713C399.402 68.7872 399.714 69.0399 399.934 69.3292C400.16 69.6186 400.334 69.8735 400.458 70.094H400.582V64.8508H402.642V78.9614H400.63V77.3147H400.458C400.334 77.5398 400.155 77.797 399.921 78.0864C399.691 78.3758 399.374 78.6284 398.97 78.8443C398.566 79.0602 398.042 79.1681 397.399 79.1681ZM397.854 77.4112C398.446 77.4112 398.947 77.255 399.356 76.9427C399.769 76.6257 400.081 76.1871 400.293 75.6267C400.509 75.0663 400.617 74.414 400.617 73.6699C400.617 72.935 400.511 72.2919 400.3 71.7407C400.088 71.1895 399.778 70.7601 399.37 70.4523C398.961 70.1446 398.455 69.9907 397.854 69.9907C397.234 69.9907 396.717 70.1514 396.303 70.473C395.89 70.7945 395.578 71.2332 395.366 71.789C395.16 72.3448 395.056 72.9717 395.056 73.6699C395.056 74.3773 395.162 75.0135 395.373 75.5784C395.585 76.1434 395.897 76.5913 396.31 76.922C396.728 77.2481 397.243 77.4112 397.854 77.4112Z" fill="white"/>
<defs>
<linearGradient id="paint0_linear_747_2" x1="243.993" y1="-41.9326" x2="253.221" y2="284.592" gradientUnits="userSpaceOnUse">
<stop stop-color="#00C9A7"/>
<stop offset="1" stop-color="#218B53"/>
</linearGradient>
<linearGradient id="paint1_linear_747_2" x1="219.78" y1="-25.2763" x2="229.083" y2="303.924" gradientUnits="userSpaceOnUse">
<stop stop-color="#00C9A7"/>
<stop offset="1" stop-color="#218B53"/>
</linearGradient>
<radialGradient id="paint2_radial_747_2" cx="0" cy="0" r="1" gradientUnits="userSpaceOnUse" gradientTransform="translate(71.9969 119.573) rotate(141.302) scale(31.0018 30.7667)">
<stop stop-color="white"/>
<stop offset="1" stop-color="#DDDCDA"/>
</radialGradient>
</defs>
</svg>