<svg width="32" height="33" viewBox="0 0 32 33" fill="none" xmlns="http://www.w3.org/2000/svg">
<path d="M17.3333 2.91667H17.697C22.0453 2.91667 24.2194 2.91667 25.7292 3.98045C26.1618 4.28524 26.5459 4.6467 26.8697 5.05386C28 6.4749 28 8.52115 28 12.6136V16.0076C28 19.9585 28 21.9339 27.3748 23.5117C26.3696 26.0481 24.2438 28.0488 21.5489 28.9949C19.8725 29.5833 17.7736 29.5833 13.5758 29.5833C11.177 29.5833 9.97763 29.5833 9.01971 29.2471C7.47973 28.7065 6.26501 27.5632 5.69063 26.1138C5.33334 25.2122 5.33334 24.0834 5.33334 21.8258V16.25" stroke="white" stroke-width="2" stroke-linecap="round" stroke-linejoin="round"/>
<path d="M28 16.25C28 18.7046 26.0101 20.6945 23.5555 20.6945C22.6678 20.6945 21.6213 20.5389 20.7582 20.7702C19.9913 20.9757 19.3923 21.5747 19.1868 22.3415C18.9556 23.2046 19.1111 24.2512 19.1111 25.1389C19.1111 27.5935 17.1213 29.5833 14.6667 29.5833" stroke="white" stroke-width="2" stroke-linecap="round" stroke-linejoin="round"/>
<path d="M14.6667 8.25L4 8.25M9.33333 2.91667V13.5833" stroke="white" stroke-width="2" stroke-linecap="round"/>
</svg>
