<svg width="20" height="21" viewBox="0 0 20 21" fill="none" xmlns="http://www.w3.org/2000/svg">
<path d="M9.99854 2.41663C7.49206 2.41663 5.86686 4.09912 3.9448 4.71238C3.16328 4.96173 2.77252 5.08641 2.61437 5.26217C2.45623 5.43792 2.40993 5.69475 2.31731 6.2084C1.32624 11.705 3.49246 16.7866 8.65862 18.7645C9.21369 18.977 9.49123 19.0833 10.0013 19.0833C10.5113 19.0833 10.7888 18.977 11.3439 18.7645C16.5097 16.7866 18.6739 11.7049 17.6825 6.2084C17.5899 5.69466 17.5435 5.43779 17.3854 5.26203C17.2272 5.08627 16.8364 4.96167 16.055 4.71245C14.1322 4.09925 12.5051 2.41663 9.99854 2.41663Z" stroke="white" stroke-width="1.5" stroke-linecap="round" stroke-linejoin="round"/>
<path d="M7.5 11.5833C7.5 11.5833 8.33333 11.5833 9.16667 13.25C9.16667 13.25 11.8137 9.08333 14.1667 8.25" stroke="white" stroke-width="1.5" stroke-linecap="round" stroke-linejoin="round"/>
</svg>
