<svg width="81" height="80" viewBox="0 0 81 80" fill="none" xmlns="http://www.w3.org/2000/svg">
<circle cx="40.8262" cy="32" r="32" fill="#81DB64"/>
<g clip-path="url(#clip0_1_303)">
<path d="M5.97158 52.8068C7.17849 44.6051 14.8057 38.9347 23.0073 40.1416C25.8056 40.5534 28.4306 41.7474 30.5799 43.586L28.645 45.5209C27.9965 46.1695 27.9967 47.2211 28.6454 47.8696C28.9568 48.1809 29.379 48.3558 29.8193 48.3559H37.4357C38.353 48.3559 39.0965 47.6123 39.0965 46.6951V39.0786C39.0963 38.1613 38.3526 37.418 37.4354 37.4181C36.9951 37.4182 36.5729 37.5931 36.2615 37.9044L34.1023 40.0634C25.8689 32.724 13.2446 33.4488 5.90525 41.6823C3.30512 44.5991 1.61779 48.2146 1.05229 52.081C0.829325 53.4517 1.75972 54.7436 3.13035 54.9666C3.25382 54.9867 3.37854 54.9975 3.50364 54.9991C4.75766 54.9855 5.81027 54.0505 5.97158 52.8068Z" fill="#218B53"/>
<path d="M38.1514 54.999C36.8974 55.0126 35.8448 55.9476 35.6835 57.1913C34.4766 65.393 26.8494 71.0634 18.6477 69.8565C15.8495 69.4448 13.2245 68.2508 11.0752 66.4121L13.0101 64.4773C13.6585 63.8287 13.6584 62.7771 13.0097 62.1286C12.6983 61.8173 12.2761 61.6424 11.8358 61.6423H4.2195C3.30226 61.6423 2.55872 62.3859 2.55872 63.3031V70.9196C2.55895 71.8368 3.30265 72.5802 4.21989 72.5801C4.66013 72.58 5.08239 72.4051 5.39372 72.0938L7.55274 69.9348C15.7843 77.2749 28.4076 76.5524 35.7478 68.3208C38.3493 65.4033 40.0374 61.7866 40.6028 57.9188C40.8267 56.5482 39.8972 55.2557 38.5267 55.0318C38.4026 55.0115 38.2772 55.0005 38.1514 54.999Z" fill="#218B53"/>
</g>
<defs>
<clipPath id="clip0_1_303">
<rect width="40" height="40" fill="white" transform="translate(0.827637 35)"/>
</clipPath>
</defs>
</svg>