<svg width="81" height="80" viewBox="0 0 81 80" fill="none" xmlns="http://www.w3.org/2000/svg">
<circle cx="40.8262" cy="32" r="32" fill="#81DB64"/>
<path d="M40.0943 70.7423L32.3524 62.9971C38.1453 55.2558 36.5658 44.2841 28.8245 38.4913C21.0832 32.6984 10.1115 34.2779 4.31867 42.0192C-1.4742 49.7605 0.105324 60.7322 7.84661 66.525C14.0651 71.1784 22.606 71.1784 28.8245 66.525L36.5697 74.2702C37.543 75.2435 39.121 75.2435 40.0943 74.2702C41.0676 73.2969 41.0676 71.7189 40.0943 70.7456L40.0943 70.7423ZM18.4001 65.0301C11.52 65.0301 5.94265 59.4528 5.94265 52.5727C5.94265 45.6926 11.52 40.1153 18.4001 40.1153C25.2802 40.1153 30.8575 45.6926 30.8575 52.5727C30.8502 59.4497 25.2771 65.0228 18.4001 65.0301Z" fill="#258C4E"/>
</svg>