<svg width="1608" height="895" viewBox="0 0 1608 895" fill="none" xmlns="http://www.w3.org/2000/svg">
<g opacity="0.2" filter="url(#filter0_f_300_1606)">
<circle cx="1258" cy="495" r="150" fill="#FC4FF6"/>
</g>
<g opacity="0.2" filter="url(#filter1_f_300_1606)">
<circle cx="814" cy="495" r="150" fill="#5D6EF3"/>
</g>
<g opacity="0.2" filter="url(#filter2_f_300_1606)">
<ellipse cx="350.649" cy="495" rx="150.649" ry="150" fill="#00C9A7"/>
</g>
<path d="M236.562 789.974C222.188 791.292 213.93 792.505 208.859 796.514C202.901 801.208 201.49 809.805 199.922 827C198.301 809.172 196.838 800.628 190.304 796.039C185.234 792.453 177.028 791.292 163.281 790.026C177.603 788.708 185.914 787.495 190.931 783.539C196.942 778.792 198.353 770.247 199.922 753C201.385 768.876 202.692 777.368 207.553 782.273C212.414 787.178 220.881 788.55 236.562 789.974Z" fill="white"/>
<path d="M182.562 681.072C176.225 692.893 172.723 698.788 169.193 698.788C165.663 698.788 162.161 692.893 155.853 681.072C162.161 692.893 165.171 699.131 163.406 702.406C161.64 705.681 155.13 706.024 142.484 706.024C155.593 706.024 162.103 706.367 163.579 709.985C164.968 713.353 161.959 719.56 155.853 730.976C162.19 719.155 165.692 713.26 169.222 713.26C172.752 713.26 176.253 719.155 182.591 730.976C175.877 718.406 172.926 712.168 175.414 709.049C177.614 706.305 184.095 706.024 195.959 706.024C182.591 706.024 176.08 705.65 174.778 701.813C173.591 698.382 176.601 692.207 182.562 681.072Z" fill="white"/>
<path d="M505.111 166.05C492.411 166.05 481.911 163.1 473.611 157.2C465.411 151.2 460.961 142.45 460.261 130.95H495.661C496.161 137.05 498.861 140.1 503.761 140.1C505.561 140.1 507.061 139.7 508.261 138.9C509.561 138 510.211 136.65 510.211 134.85C510.211 132.35 508.861 130.35 506.161 128.85C503.461 127.25 499.261 125.45 493.561 123.45C486.761 121.05 481.111 118.7 476.611 116.4C472.211 114.1 468.411 110.75 465.211 106.35C462.011 101.95 460.461 96.3 460.561 89.4C460.561 82.5 462.311 76.65 465.811 71.85C469.411 66.95 474.261 63.25 480.361 60.75C486.561 58.25 493.511 57 501.211 57C514.211 57 524.511 60 532.111 66C539.811 72 543.861 80.45 544.261 91.35H508.411C508.311 88.35 507.561 86.2 506.161 84.9C504.761 83.6 503.061 82.95 501.061 82.95C499.661 82.95 498.511 83.45 497.611 84.45C496.711 85.35 496.261 86.65 496.261 88.35C496.261 90.75 497.561 92.75 500.161 94.35C502.861 95.85 507.111 97.7 512.911 99.9C519.611 102.4 525.111 104.8 529.411 107.1C533.811 109.4 537.611 112.6 540.811 116.7C544.011 120.8 545.611 125.95 545.611 132.15C545.611 138.65 544.011 144.5 540.811 149.7C537.611 154.8 532.961 158.8 526.861 161.7C520.761 164.6 513.511 166.05 505.111 166.05ZM642.211 121.95C642.211 124.25 642.061 126.45 641.761 128.55H588.211C588.711 135.85 591.761 139.5 597.361 139.5C600.961 139.5 603.561 137.85 605.161 134.55H640.411C639.211 140.55 636.661 145.95 632.761 150.75C628.961 155.45 624.111 159.2 618.211 162C612.411 164.7 606.011 166.05 599.011 166.05C590.611 166.05 583.111 164.3 576.511 160.8C570.011 157.3 564.911 152.3 561.211 145.8C557.611 139.2 555.811 131.5 555.811 122.7C555.811 113.9 557.611 106.25 561.211 99.75C564.911 93.15 570.011 88.1 576.511 84.6C583.111 81.1 590.611 79.35 599.011 79.35C607.411 79.35 614.861 81.1 621.361 84.6C627.961 88 633.061 92.9 636.661 99.3C640.361 105.7 642.211 113.25 642.211 121.95ZM608.461 114C608.461 111.2 607.561 109.1 605.761 107.7C603.961 106.2 601.711 105.45 599.011 105.45C593.111 105.45 589.661 108.3 588.661 114H608.461ZM689.042 96C692.442 91.1 696.592 87.2 701.492 84.3C706.392 81.3 711.492 79.8 716.792 79.8V115.35H707.342C701.042 115.35 696.392 116.45 693.392 118.65C690.492 120.85 689.042 124.75 689.042 130.35V165H655.742V80.4H689.042V96ZM771.662 133.35L785.162 80.4H820.562L792.362 165H750.812L722.612 80.4H758.012L771.662 133.35ZM849.196 73.65C843.396 73.65 838.746 72.1 835.246 69C831.746 65.9 829.996 62 829.996 57.3C829.996 52.5 831.746 48.55 835.246 45.45C838.746 42.25 843.396 40.65 849.196 40.65C854.896 40.65 859.496 42.25 862.996 45.45C866.496 48.55 868.246 52.5 868.246 57.3C868.246 62 866.496 65.9 862.996 69C859.496 72.1 854.896 73.65 849.196 73.65ZM865.696 80.4V165H832.396V80.4H865.696ZM879.236 122.7C879.236 113.9 881.036 106.25 884.636 99.75C888.336 93.15 893.436 88.1 899.936 84.6C906.536 81.1 914.036 79.35 922.436 79.35C933.436 79.35 942.686 82.45 950.186 88.65C957.786 94.85 962.586 103.45 964.586 114.45H929.336C928.036 110.05 925.486 107.85 921.686 107.85C918.986 107.85 916.836 109.1 915.236 111.6C913.736 114.1 912.986 117.8 912.986 122.7C912.986 127.6 913.736 131.3 915.236 133.8C916.836 136.3 918.986 137.55 921.686 137.55C925.486 137.55 928.036 135.35 929.336 130.95H964.586C962.586 141.95 957.786 150.55 950.186 156.75C942.686 162.95 933.436 166.05 922.436 166.05C914.036 166.05 906.536 164.3 899.936 160.8C893.436 157.3 888.336 152.3 884.636 145.8C881.036 139.2 879.236 131.5 879.236 122.7ZM1060.04 121.95C1060.04 124.25 1059.89 126.45 1059.59 128.55H1006.04C1006.54 135.85 1009.59 139.5 1015.19 139.5C1018.79 139.5 1021.39 137.85 1022.99 134.55H1058.24C1057.04 140.55 1054.49 145.95 1050.59 150.75C1046.79 155.45 1041.94 159.2 1036.04 162C1030.24 164.7 1023.84 166.05 1016.84 166.05C1008.44 166.05 1000.94 164.3 994.343 160.8C987.843 157.3 982.743 152.3 979.043 145.8C975.443 139.2 973.643 131.5 973.643 122.7C973.643 113.9 975.443 106.25 979.043 99.75C982.743 93.15 987.843 88.1 994.343 84.6C1000.94 81.1 1008.44 79.35 1016.84 79.35C1025.24 79.35 1032.69 81.1 1039.19 84.6C1045.79 88 1050.89 92.9 1054.49 99.3C1058.19 105.7 1060.04 113.25 1060.04 121.95ZM1026.29 114C1026.29 111.2 1025.39 109.1 1023.59 107.7C1021.79 106.2 1019.54 105.45 1016.84 105.45C1010.94 105.45 1007.49 108.3 1006.49 114H1026.29ZM1111.22 166.05C1103.22 166.05 1096.12 164.75 1089.92 162.15C1083.82 159.55 1078.97 155.95 1075.37 151.35C1071.77 146.75 1069.72 141.55 1069.22 135.75H1101.17C1101.57 138.25 1102.62 140.1 1104.32 141.3C1106.12 142.5 1108.37 143.1 1111.07 143.1C1112.77 143.1 1114.12 142.75 1115.12 142.05C1116.12 141.25 1116.62 140.3 1116.62 139.2C1116.62 137.3 1115.57 135.95 1113.47 135.15C1111.37 134.35 1107.82 133.45 1102.82 132.45C1096.72 131.25 1091.67 129.95 1087.67 128.55C1083.77 127.15 1080.32 124.75 1077.32 121.35C1074.42 117.95 1072.97 113.25 1072.97 107.25C1072.97 102.05 1074.32 97.35 1077.02 93.15C1079.82 88.85 1083.92 85.5 1089.32 83.1C1094.72 80.6 1101.27 79.35 1108.97 79.35C1120.37 79.35 1129.27 82.15 1135.67 87.75C1142.17 93.35 1146.07 100.65 1147.37 109.65H1117.82C1117.32 107.35 1116.27 105.6 1114.67 104.4C1113.07 103.1 1110.92 102.45 1108.22 102.45C1106.52 102.45 1105.22 102.8 1104.32 103.5C1103.42 104.1 1102.97 105.05 1102.97 106.35C1102.97 108.05 1104.02 109.35 1106.12 110.25C1108.22 111.05 1111.57 111.9 1116.17 112.8C1122.27 114 1127.42 115.35 1131.62 116.85C1135.82 118.35 1139.47 120.95 1142.57 124.65C1145.67 128.25 1147.22 133.25 1147.22 139.65C1147.22 144.65 1145.77 149.15 1142.87 153.15C1139.97 157.15 1135.77 160.3 1130.27 162.6C1124.87 164.9 1118.52 166.05 1111.22 166.05Z" fill="#0D0E11"/>
<defs>
<filter id="filter0_f_300_1606" x="908" y="145" width="700" height="700" filterUnits="userSpaceOnUse" color-interpolation-filters="sRGB">
<feFlood flood-opacity="0" result="BackgroundImageFix"/>
<feBlend mode="normal" in="SourceGraphic" in2="BackgroundImageFix" result="shape"/>
<feGaussianBlur stdDeviation="100" result="effect1_foregroundBlur_300_1606"/>
</filter>
<filter id="filter1_f_300_1606" x="414" y="95" width="800" height="800" filterUnits="userSpaceOnUse" color-interpolation-filters="sRGB">
<feFlood flood-opacity="0" result="BackgroundImageFix"/>
<feBlend mode="normal" in="SourceGraphic" in2="BackgroundImageFix" result="shape"/>
<feGaussianBlur stdDeviation="125" result="effect1_foregroundBlur_300_1606"/>
</filter>
<filter id="filter2_f_300_1606" x="0" y="145" width="701.299" height="700" filterUnits="userSpaceOnUse" color-interpolation-filters="sRGB">
<feFlood flood-opacity="0" result="BackgroundImageFix"/>
<feBlend mode="normal" in="SourceGraphic" in2="BackgroundImageFix" result="shape"/>
<feGaussianBlur stdDeviation="100" result="effect1_foregroundBlur_300_1606"/>
</filter>
</defs>
</svg>