<svg width="81" height="80" viewBox="0 0 81 80" fill="none" xmlns="http://www.w3.org/2000/svg">
<circle cx="40.8262" cy="32" r="32" fill="#81DB64"/>
<g clip-path="url(#clip0_1_271)">
<path d="M27.4943 61.6667C27.4943 62.1087 27.3187 62.5327 27.0062 62.8452C26.6936 63.1578 26.2697 63.3334 25.8276 63.3334H22.4943V66.6667C22.4943 67.1087 22.3187 67.5327 22.0062 67.8452C21.6936 68.1578 21.2697 68.3334 20.8276 68.3334C20.3856 68.3334 19.9617 68.1578 19.6491 67.8452C19.3366 67.5327 19.161 67.1087 19.161 66.6667V63.3334H15.8276C15.3856 63.3334 14.9617 63.1578 14.6491 62.8452C14.3366 62.5327 14.161 62.1087 14.161 61.6667C14.161 61.2247 14.3366 60.8008 14.6491 60.4882C14.9617 60.1756 15.3856 60 15.8276 60H19.161V56.6667C19.161 56.2247 19.3366 55.8008 19.6491 55.4882C19.9617 55.1756 20.3856 55 20.8276 55C21.2697 55 21.6936 55.1756 22.0062 55.4882C22.3187 55.8008 22.4943 56.2247 22.4943 56.6667V60H25.8276C26.2697 60 26.6936 60.1756 27.0062 60.4882C27.3187 60.8008 27.4943 61.2247 27.4943 61.6667ZM37.4943 52.475V66.6667C37.4917 68.876 36.6128 70.9941 35.0506 72.5563C33.4884 74.1186 31.3703 74.9974 29.161 75H12.4943C10.285 74.9974 8.16691 74.1186 6.60468 72.5563C5.04245 70.9941 4.16363 68.876 4.16098 66.6667V43.3334C4.16363 41.124 5.04245 39.006 6.60468 37.4437C8.16691 35.8815 10.285 35.0027 12.4943 35H20.0193C21.552 34.9961 23.0703 35.296 24.4864 35.8825C25.9024 36.4689 27.1882 37.3303 28.2693 38.4167L34.076 44.2267C35.163 45.3071 36.0249 46.5925 36.6117 48.0083C37.1985 49.4242 37.4985 50.9424 37.4943 52.475ZM25.9126 40.7734C25.3881 40.2653 24.7992 39.8282 24.161 39.4734V46.6667C24.161 47.1087 24.3366 47.5327 24.6491 47.8452C24.9617 48.1578 25.3856 48.3334 25.8276 48.3334H33.021C32.6659 47.6954 32.2282 47.1069 31.7193 46.5834L25.9126 40.7734ZM34.161 52.475C34.161 52.2 34.1076 51.9367 34.0826 51.6667H25.8276C24.5016 51.6667 23.2298 51.1399 22.2921 50.2022C21.3544 49.2646 20.8276 47.9928 20.8276 46.6667V38.4117C20.5576 38.3867 20.2926 38.3334 20.0193 38.3334H12.4943C11.1682 38.3334 9.89646 38.8602 8.95878 39.7978C8.0211 40.7355 7.49431 42.0073 7.49431 43.3334V66.6667C7.49431 67.9928 8.0211 69.2646 8.95878 70.2022C9.89646 71.1399 11.1682 71.6667 12.4943 71.6667H29.161C30.4871 71.6667 31.7588 71.1399 32.6965 70.2022C33.6342 69.2646 34.161 67.9928 34.161 66.6667V52.475Z" fill="#218B53"/>
</g>
<defs>
<clipPath id="clip0_1_271">
<rect width="40" height="40" fill="white" transform="translate(0.827637 35)"/>
</clipPath>
</defs>
</svg>