<svg width="81" height="80" viewBox="0 0 81 80" fill="none" xmlns="http://www.w3.org/2000/svg">
<circle cx="40.8262" cy="32" r="32" fill="#81DB64"/>
<path d="M34.8265 63.8266L29.8265 68.8266C29.4743 69.1789 28.9965 69.3767 28.4984 69.3767C28.0002 69.3767 27.5225 69.1789 27.1703 68.8266C26.818 68.4744 26.6201 67.9966 26.6201 67.4985C26.6201 67.0003 26.818 66.5226 27.1703 66.1704L28.9687 64.3751H8.49994C8.00266 64.3751 7.52575 64.1775 7.17412 63.8259C6.82248 63.4742 6.62494 62.9973 6.62494 62.5001C6.62494 62.0028 6.82248 61.5259 7.17412 61.1742C7.52575 60.8226 8.00266 60.6251 8.49994 60.6251H28.9687L27.1687 58.8266C26.8164 58.4744 26.6186 57.9966 26.6186 57.4985C26.6186 57.0003 26.8164 56.5226 27.1687 56.1704C27.5209 55.8181 27.9987 55.6202 28.4968 55.6202C28.995 55.6202 29.4727 55.8181 29.8249 56.1704L34.8249 61.1704C34.9998 61.3445 35.1387 61.5514 35.2334 61.7792C35.3282 62.0071 35.3771 62.2514 35.3772 62.4982C35.3773 62.7449 35.3288 62.9893 35.2343 63.2173C35.1398 63.4453 35.0012 63.6523 34.8265 63.8266ZM12.1703 53.8266C12.5225 54.1789 13.0002 54.3767 13.4984 54.3767C13.9965 54.3767 14.4743 54.1789 14.8265 53.8266C15.1787 53.4744 15.3766 52.9966 15.3766 52.4985C15.3766 52.0003 15.1787 51.5226 14.8265 51.1704L13.0312 49.3751H33.4999C33.9972 49.3751 34.4741 49.1775 34.8258 48.8259C35.1774 48.4742 35.3749 47.9973 35.3749 47.5001C35.3749 47.0028 35.1774 46.5259 34.8258 46.1742C34.4741 45.8226 33.9972 45.6251 33.4999 45.6251H13.0312L14.8265 43.8266C15.1787 43.4744 15.3766 42.9966 15.3766 42.4985C15.3766 42.0003 15.1787 41.5226 14.8265 41.1704C14.4743 40.8181 13.9965 40.6202 13.4984 40.6202C13.0002 40.6202 12.5225 40.8181 12.1703 41.1704L7.17025 46.1704C6.99545 46.3446 6.85676 46.5515 6.76212 46.7795C6.66749 47.0074 6.61877 47.2517 6.61877 47.4985C6.61877 47.7453 6.66749 47.9896 6.76212 48.2175C6.85676 48.4454 6.99545 48.6524 7.17025 48.8266L12.1703 53.8266Z" fill="#218B53"/>
</svg>