<svg width="81" height="80" viewBox="0 0 81 80" fill="none" xmlns="http://www.w3.org/2000/svg">
<circle cx="40.8262" cy="32" r="32" fill="#81DB64"/>
<path d="M34.8266 47.425L26.0766 38.675C25.9024 38.5007 25.6956 38.3623 25.468 38.268C25.2404 38.1736 24.9964 38.125 24.75 38.125H9.75C8.9212 38.125 8.12634 38.4542 7.54029 39.0403C6.95424 39.6263 6.625 40.4212 6.625 41.25V68.75C6.625 69.5788 6.95424 70.3737 7.54029 70.9597C8.12634 71.5458 8.9212 71.875 9.75 71.875H32.25C33.0788 71.875 33.8737 71.5458 34.4597 70.9597C35.0458 70.3737 35.375 69.5788 35.375 68.75V48.75C35.375 48.2531 35.1777 47.7765 34.8266 47.425ZM29.5938 47.5H26V43.9062L29.5938 47.5ZM10.375 68.125V41.875H22.25V49.375C22.25 49.8723 22.4475 50.3492 22.7992 50.7008C23.1508 51.0525 23.6277 51.25 24.125 51.25H31.625V68.125H10.375ZM25.45 60.5484C26.021 59.351 26.1504 57.9903 25.8153 56.7067C25.4802 55.4231 24.7023 54.2992 23.6189 53.5336C22.5355 52.768 21.2163 52.41 19.8945 52.5227C18.5727 52.6355 17.3333 53.2118 16.3952 54.1499C15.4572 55.088 14.8808 56.3274 14.7681 57.6492C14.6553 58.971 15.0133 60.2901 15.7789 61.3736C16.5445 62.457 17.6684 63.2349 18.952 63.57C20.2356 63.9051 21.5963 63.7757 22.7937 63.2047L24.6687 65.0797C25.021 65.4319 25.4987 65.6298 25.9969 65.6298C26.495 65.6298 26.9728 65.4319 27.325 65.0797C27.6772 64.7274 27.8751 64.2497 27.8751 63.7516C27.8751 63.2534 27.6772 62.7757 27.325 62.4234L25.45 60.5484ZM18.5 58.125C18.5 57.7542 18.61 57.3916 18.816 57.0833C19.022 56.775 19.3149 56.5346 19.6575 56.3927C20.0001 56.2508 20.3771 56.2137 20.7408 56.286C21.1045 56.3584 21.4386 56.537 21.7008 56.7992C21.963 57.0614 22.1416 57.3955 22.214 57.7592C22.2863 58.1229 22.2492 58.4999 22.1073 58.8425C21.9654 59.1851 21.725 59.478 21.4167 59.684C21.1084 59.89 20.7458 60 20.375 60C19.8777 60 19.4008 59.8025 19.0492 59.4508C18.6975 59.0992 18.5 58.6223 18.5 58.125Z" fill="#218B53"/>
</svg>