<svg width="80" height="80" viewBox="0 0 80 80" fill="none" xmlns="http://www.w3.org/2000/svg">
<circle cx="39.998" cy="32" r="32" fill="#81DB64"/>
<path d="M32.5 39.375H29.375V38.75C29.375 38.2527 29.1775 37.7758 28.8258 37.4242C28.4742 37.0725 27.9973 36.875 27.5 36.875C27.0027 36.875 26.5258 37.0725 26.1742 37.4242C25.8225 37.7758 25.625 38.2527 25.625 38.75V39.375H14.375V38.75C14.375 38.2527 14.1775 37.7758 13.8258 37.4242C13.4742 37.0725 12.9973 36.875 12.5 36.875C12.0027 36.875 11.5258 37.0725 11.1742 37.4242C10.8225 37.7758 10.625 38.2527 10.625 38.75V39.375H7.5C6.6712 39.375 5.87634 39.7042 5.29029 40.2903C4.70424 40.8763 4.375 41.6712 4.375 42.5V67.5C4.375 68.3288 4.70424 69.1237 5.29029 69.7097C5.87634 70.2958 6.6712 70.625 7.5 70.625H32.5C33.3288 70.625 34.1237 70.2958 34.7097 69.7097C35.2958 69.1237 35.625 68.3288 35.625 67.5V42.5C35.625 41.6712 35.2958 40.8763 34.7097 40.2903C34.1237 39.7042 33.3288 39.375 32.5 39.375ZM10.625 43.125C10.625 43.6223 10.8225 44.0992 11.1742 44.4508C11.5258 44.8025 12.0027 45 12.5 45C12.9973 45 13.4742 44.8025 13.8258 44.4508C14.1775 44.0992 14.375 43.6223 14.375 43.125H25.625C25.625 43.6223 25.8225 44.0992 26.1742 44.4508C26.5258 44.8025 27.0027 45 27.5 45C27.9973 45 28.4742 44.8025 28.8258 44.4508C29.1775 44.0992 29.375 43.6223 29.375 43.125H31.875V46.875H8.125V43.125H10.625ZM8.125 66.875V50.625H31.875V66.875H8.125ZM17.5 54.375V63.125C17.5 63.6223 17.3025 64.0992 16.9508 64.4508C16.5992 64.8025 16.1223 65 15.625 65C15.1277 65 14.6508 64.8025 14.2992 64.4508C13.9475 64.0992 13.75 63.6223 13.75 63.125V57.3938C13.3039 57.5402 12.819 57.5139 12.3913 57.32C11.9637 57.1262 11.6243 56.779 11.4403 56.347C11.2563 55.915 11.2411 55.4296 11.3977 54.987C11.5542 54.5443 11.8712 54.1765 12.2859 53.9562L14.7859 52.7063C15.0712 52.5635 15.3882 52.4959 15.7068 52.5098C16.0255 52.5237 16.3354 52.6187 16.6071 52.7858C16.8788 52.9529 17.1034 53.1865 17.2597 53.4646C17.4159 53.7427 17.4986 54.056 17.5 54.375ZM27.1078 59.6688L25.6094 61.25H26.25C26.7473 61.25 27.2242 61.4475 27.5758 61.7992C27.9275 62.1508 28.125 62.6277 28.125 63.125C28.125 63.6223 27.9275 64.0992 27.5758 64.4508C27.2242 64.8025 26.7473 65 26.25 65H21.25C20.8836 64.9999 20.5252 64.8924 20.2192 64.6908C19.9132 64.4893 19.673 64.2025 19.5282 63.8659C19.3835 63.5293 19.3405 63.1576 19.4046 62.7969C19.4687 62.4361 19.6372 62.102 19.8891 61.8359L24.2891 57.1875C24.3447 57.0927 24.3743 56.9849 24.375 56.875C24.3754 56.7371 24.3301 56.603 24.2463 56.4935C24.1625 56.384 24.0448 56.3053 23.9116 56.2697C23.7785 56.234 23.6372 56.2434 23.5099 56.2963C23.3826 56.3493 23.2764 56.4429 23.2078 56.5625C22.9544 56.9835 22.5458 57.2881 22.07 57.4109C21.5943 57.5337 21.0893 57.4648 20.6638 57.2191C20.2383 56.9734 19.9263 56.5704 19.7948 56.097C19.6634 55.6235 19.723 55.1174 19.9609 54.6875C20.4424 53.8533 21.1857 53.2014 22.0756 52.8328C22.9654 52.4641 23.952 52.3994 24.8823 52.6487C25.8126 52.898 26.6347 53.4473 27.221 54.2114C27.8073 54.9756 28.1251 55.9118 28.125 56.875C28.1279 57.826 27.8182 58.7515 27.2437 59.5094C27.2018 59.5653 27.1564 59.6185 27.1078 59.6688Z" fill="#218B53"/>
</svg>