<svg width="81" height="80" viewBox="0 0 81 80" fill="none" xmlns="http://www.w3.org/2000/svg">
<circle cx="40.8262" cy="32" r="32" fill="#81DB64"/>
<path d="M31.796 38.5667L21.3543 35.085C21.0124 34.9712 20.6428 34.9712 20.301 35.085L9.85929 38.5667C8.19913 39.1182 6.75498 40.1788 5.73203 41.5979C4.70907 43.017 4.15935 44.7223 4.16095 46.4717V55C4.16095 67.605 19.4943 74.5667 20.151 74.8567C20.364 74.9513 20.5945 75.0002 20.8276 75.0002C21.0607 75.0002 21.2913 74.9513 21.5043 74.8567C22.161 74.5667 37.4943 67.605 37.4943 55V46.4717C37.4959 44.7223 36.9462 43.017 35.9232 41.5979C34.9003 40.1788 33.4561 39.1182 31.796 38.5667ZM28.691 51.195L21.571 58.315C21.2796 58.6083 20.9329 58.8409 20.5509 58.9991C20.169 59.1573 19.7594 59.2381 19.346 59.2367H19.291C18.8691 59.2302 18.4529 59.1383 18.0676 58.9664C17.6823 58.7945 17.3359 58.5463 17.0493 58.2367L13.206 54.2367C13.0395 54.0823 12.9064 53.8955 12.8147 53.6877C12.723 53.48 12.6748 53.2557 12.6729 53.0287C12.671 52.8016 12.7156 52.5766 12.8038 52.3674C12.892 52.1582 13.022 51.9692 13.1859 51.812C13.3498 51.6549 13.544 51.5328 13.7567 51.4535C13.9695 51.3741 14.1962 51.339 14.4229 51.3503C14.6497 51.3617 14.8718 51.4193 15.0755 51.5195C15.2792 51.6198 15.4603 51.7606 15.6076 51.9334L19.3476 55.8334L26.3276 48.8334C26.642 48.5298 27.063 48.3618 27.5 48.3656C27.9369 48.3694 28.355 48.5447 28.664 48.8537C28.973 49.1627 29.1483 49.5807 29.1521 50.0177C29.1559 50.4547 28.9879 50.8757 28.6843 51.19L28.691 51.195Z" fill="#218B53"/>
</svg>