<svg width="80" height="80" viewBox="0 0 80 80" fill="none" xmlns="http://www.w3.org/2000/svg">
<circle cx="39.998" cy="32" r="32" fill="#81DB64"/>
<path d="M18.125 55.625V47.5C18.125 47.0027 18.3226 46.5258 18.6742 46.1742C19.0258 45.8226 19.5027 45.625 20 45.625C20.4973 45.625 20.9742 45.8226 21.3258 46.1742C21.6775 46.5258 21.875 47.0027 21.875 47.5V55.625C21.875 56.1223 21.6775 56.5992 21.3258 56.9508C20.9742 57.3025 20.4973 57.5 20 57.5C19.5027 57.5 19.0258 57.3025 18.6742 56.9508C18.3226 56.5992 18.125 56.1223 18.125 55.625ZM36.875 49.3047V60.6953C36.8761 61.1059 36.7958 61.5125 36.6386 61.8918C36.4814 62.271 36.2506 62.6153 35.9594 62.9047L27.9047 70.9594C27.6154 71.2506 27.2711 71.4815 26.8918 71.6387C26.5126 71.7959 26.1059 71.8762 25.6953 71.875H14.3047C13.8942 71.8762 13.4875 71.7959 13.1082 71.6387C12.7289 71.4815 12.3847 71.2506 12.0953 70.9594L4.04064 62.9047C3.74946 62.6153 3.5186 62.271 3.36143 61.8918C3.20426 61.5125 3.1239 61.1059 3.12501 60.6953V49.3047C3.1239 48.8942 3.20426 48.4875 3.36143 48.1083C3.5186 47.729 3.74946 47.3847 4.04064 47.0953L12.0953 39.0406C12.3847 38.7494 12.7289 38.5185 13.1082 38.3613C13.4875 38.2041 13.8942 38.1238 14.3047 38.125H25.6953C26.1059 38.1238 26.5126 38.2041 26.8918 38.3613C27.2711 38.5185 27.6154 38.7494 27.9047 39.0406L35.9594 47.0953C36.2506 47.3847 36.4814 47.729 36.6386 48.1083C36.7958 48.4875 36.8761 48.8942 36.875 49.3047ZM33.125 49.5641L25.4359 41.875H14.5641L6.87501 49.5641V60.436L14.5641 68.125H25.4359L33.125 60.436V49.5641ZM20 59.375C19.5056 59.375 19.0222 59.5216 18.6111 59.7963C18.2 60.071 17.8795 60.4615 17.6903 60.9183C17.5011 61.3751 17.4516 61.8778 17.548 62.3627C17.6445 62.8477 17.8826 63.2931 18.2322 63.6428C18.5819 63.9924 19.0273 64.2305 19.5123 64.327C19.9972 64.4234 20.4999 64.3739 20.9567 64.1847C21.4135 63.9955 21.804 63.6751 22.0787 63.2639C22.3534 62.8528 22.5 62.3695 22.5 61.875C22.5 61.212 22.2366 60.5761 21.7678 60.1072C21.2989 59.6384 20.6631 59.375 20 59.375Z" fill="#218B53"/>
</svg>