<svg width="30" height="30" viewBox="0 0 30 30" fill="none" xmlns="http://www.w3.org/2000/svg">
<path d="M14.9997 20.5833H15.0117" stroke="white" stroke-width="2.5" stroke-linecap="round" stroke-linejoin="round"/>
<path d="M15 16.5833L15 9.91668" stroke="white" stroke-width="2" stroke-linecap="round" stroke-linejoin="round"/>
<path d="M20.7443 5.09526C19.9563 5.09526 19.5623 5.09526 19.2033 4.96207C19.1535 4.94357 19.1043 4.92321 19.056 4.90104C18.708 4.7414 18.4294 4.46279 17.8722 3.90556C16.5896 2.62303 15.9484 1.98176 15.1593 1.92263C15.0532 1.91468 14.9467 1.91468 14.8406 1.92263C14.0516 1.98176 13.4103 2.62303 12.1278 3.90556C11.5705 4.46279 11.2919 4.7414 10.9439 4.90104C10.8956 4.92321 10.8464 4.94357 10.7966 4.96207C10.4376 5.09526 10.0436 5.09526 9.25557 5.09526H9.11021C7.09967 5.09526 6.0944 5.09526 5.46981 5.71985C4.84521 6.34445 4.84521 7.34972 4.84521 9.36025V9.50561C4.84521 10.2937 4.84521 10.6877 4.71202 11.0466C4.69353 11.0965 4.67317 11.1456 4.651 11.194C4.49135 11.542 4.21274 11.8206 3.65551 12.3778C2.37298 13.6603 1.73172 14.3016 1.67259 15.0906C1.66464 15.1967 1.66464 15.3033 1.67259 15.4094C1.73172 16.1984 2.37298 16.8397 3.65551 18.1222C4.21274 18.6794 4.49135 18.958 4.651 19.306C4.67317 19.3544 4.69353 19.4035 4.71202 19.4534C4.84521 19.8123 4.84521 20.2064 4.84521 20.9944V21.1398C4.84521 23.1503 4.84521 24.1556 5.46981 24.7802C6.0944 25.4047 7.09967 25.4047 9.11021 25.4047H9.25557C10.0436 25.4047 10.4376 25.4047 10.7966 25.5379C10.8464 25.5564 10.8956 25.5768 10.9439 25.599C11.2919 25.7586 11.5705 26.0372 12.1278 26.5944C13.4103 27.877 14.0516 28.5182 14.8406 28.5774C14.9467 28.5853 15.0532 28.5853 15.1593 28.5774C15.9484 28.5182 16.5896 27.877 17.8722 26.5945C18.4294 26.0372 18.708 25.7586 19.056 25.599C19.1043 25.5768 19.1535 25.5564 19.2033 25.5379C19.5623 25.4047 19.9563 25.4047 20.7443 25.4047H20.8897C22.9002 25.4047 23.9055 25.4047 24.5301 24.7802C25.1547 24.1556 25.1547 23.1503 25.1547 21.1398V20.9944C25.1547 20.2064 25.1547 19.8123 25.2879 19.4534C25.3064 19.4035 25.3267 19.3544 25.3489 19.306C25.5086 18.958 25.7872 18.6794 26.3444 18.1222C27.6269 16.8397 28.2682 16.1984 28.3273 15.4094C28.3353 15.3033 28.3353 15.1967 28.3273 15.0906C28.2682 14.3016 27.6269 13.6603 26.3444 12.3778C25.7872 11.8206 25.5086 11.542 25.3489 11.194C25.3267 11.1456 25.3064 11.0965 25.2879 11.0466C25.1547 10.6877 25.1547 10.2937 25.1547 9.50561V9.36025C25.1547 7.34972 25.1547 6.34445 24.5301 5.71985C23.9055 5.09526 22.9002 5.09526 20.8897 5.09526H20.7443Z" stroke="white" stroke-width="2"/>
</svg>
