<svg width="101" height="40" viewBox="0 0 101 40" fill="none" xmlns="http://www.w3.org/2000/svg">
<path d="M40.8491 23.7189C40.4792 23.1867 39.8873 22.8037 39.1108 22.583C39.2159 21.4802 39.2035 20.3866 39.071 19.3105C39.0306 18.9828 38.979 18.6564 38.9169 18.3319C39.8127 18.6875 40.5494 19.2017 41.081 19.8625C40.9684 20.0204 40.9175 20.2219 40.956 20.4276C41.0312 20.8286 41.4173 21.0935 41.8183 21.0182C42.2193 20.943 42.4841 20.557 42.4089 20.156C42.3337 19.755 41.9476 19.4901 41.5466 19.5654C41.5286 19.5685 41.5118 19.5734 41.4944 19.5778C40.8528 18.7758 39.9377 18.1653 38.7987 17.7755C38.4239 16.1647 37.773 14.5987 36.8547 13.0936C37.9215 13.4088 38.8659 13.8713 39.6616 14.4675C39.6324 14.5732 39.625 14.6863 39.6467 14.8014C39.722 15.2023 40.108 15.4672 40.509 15.392C40.91 15.3167 41.1748 14.9307 41.0996 14.5297C41.0244 14.1287 40.6383 13.8638 40.2373 13.9391C40.1267 13.9596 40.0272 14.005 39.9414 14.0665C38.9728 13.3441 37.8016 12.8076 36.4662 12.4831C36.2741 12.1946 36.0733 11.9086 35.8613 11.6245C34.7764 10.1735 33.6468 9.12285 32.5271 8.3731C33.5181 8.55525 34.4687 8.84371 35.3596 9.2304C35.3509 9.30252 35.3533 9.37712 35.3676 9.45235C35.4429 9.85334 35.8289 10.1182 36.2299 10.043C36.6309 9.96773 36.8958 9.58166 36.8205 9.18067C36.7453 8.77968 36.3592 8.51484 35.9583 8.59006C35.8084 8.61804 35.6772 8.68953 35.5765 8.78963C34.2884 8.23011 32.8877 7.87201 31.4305 7.72903C29.4803 6.73743 27.6183 6.5789 26.1455 6.71194C25.0756 6.80893 24.1275 7.05884 23.3591 7.33301V7.33239C23.3485 7.33612 23.3386 7.34047 23.328 7.3442C22.4247 7.66996 21.7744 8.02744 21.4785 8.20462C16.4708 11.0072 13.5582 16.7895 14.6716 22.7341C16.0667 30.1832 23.2621 35.1082 30.7112 33.7131C31.6307 33.5409 32.511 33.2792 33.3453 32.9404C33.8743 32.7862 34.4705 32.5232 35.068 32.1633C36.6266 31.2233 37.5995 29.9793 37.2408 29.3849C37.2016 29.3203 37.1482 29.2668 37.0823 29.222C37.3707 28.6694 37.6611 28.0502 37.9302 27.3725C38.1671 27.4098 38.3592 27.4782 38.4978 27.5764C38.3524 27.7412 38.2815 27.9681 38.325 28.2012C38.4002 28.6022 38.7863 28.8671 39.1873 28.7918C39.5883 28.7166 39.8531 28.3305 39.7779 27.9296C39.7052 27.5416 39.3415 27.2824 38.9548 27.334C38.7602 27.1301 38.473 26.9902 38.1049 26.9168C38.2231 26.5973 38.3356 26.2665 38.44 25.924C38.7328 24.9691 38.938 24.016 39.058 23.0692C39.6554 23.2538 40.118 23.5498 40.4151 23.9501C40.2616 24.1161 40.1851 24.3493 40.2299 24.588C40.3051 24.989 40.6912 25.2538 41.0922 25.1786C41.4931 25.1034 41.758 24.7173 41.6828 24.3163C41.6088 23.9221 41.2395 23.6617 40.8491 23.7189ZM38.6247 22.4686C38.113 22.3754 37.5373 22.3418 36.9038 22.3717C36.5234 22.3897 36.1305 22.4307 35.7276 22.4923C35.5013 21.0126 35.1022 19.4174 34.4413 17.7973C35.911 17.6748 37.2439 17.796 38.3685 18.1398C38.6943 19.6754 38.7422 21.1351 38.6247 22.4686ZM33.9023 29.9289L33.165 28.6333C33.9222 28.2398 34.7006 27.9184 35.436 27.6946C35.3925 28.2771 35.331 28.8167 35.2607 29.3035C34.833 29.4477 34.3692 29.6585 33.9023 29.9289ZM32.9238 28.2087L30.8828 24.6222C32.3655 23.873 33.8893 23.3347 35.3154 23.0555C35.4851 24.3598 35.5212 25.5609 35.4932 26.5867C35.4876 26.7856 35.4795 26.9802 35.4696 27.1717C34.6589 27.4042 33.7898 27.7573 32.9238 28.2087ZM28.0616 19.6661C29.6419 18.8709 31.2657 18.3127 32.8915 18.008C33.2458 17.9415 33.594 17.8893 33.9359 17.8483C34.6154 19.4783 35.0195 21.0866 35.247 22.5756C33.773 22.8584 32.1914 23.4124 30.6416 24.1982L28.0616 19.6661ZM25.2515 14.728C25.2584 14.7243 25.2646 14.7205 25.2714 14.7174C26.9556 13.8297 28.7063 13.2117 30.4737 12.881C30.6099 12.8555 30.7454 12.8325 30.8803 12.8107C31.4187 13.4678 31.9633 14.2219 32.5079 15.0892C32.986 15.8508 33.3913 16.6198 33.7351 17.3863C31.7942 17.6288 29.7644 18.2604 27.8197 19.2415L25.2515 14.728ZM22.3439 9.61896L21.7949 8.6541C22.2575 8.52292 23.2994 8.31528 24.6671 8.58509C23.9267 8.84869 23.1931 9.16886 22.4732 9.54809C22.4297 9.57109 22.3874 9.59533 22.3439 9.61896ZM22.7007 9.97954C23.6159 9.49711 24.5646 9.10793 25.5363 8.81263C26.9127 9.26149 28.6652 10.2562 30.5147 12.378C28.6777 12.7075 26.8194 13.3497 25.0439 14.286C25.0327 14.2922 25.0215 14.2984 25.0103 14.304L22.5851 10.0423C22.6236 10.0212 22.6616 10.0001 22.7007 9.97954ZM38.2448 17.6077C37.6449 17.4485 36.9915 17.3441 36.2921 17.2987C35.6294 17.2558 34.9437 17.2676 34.2443 17.3304C33.8787 16.4961 33.4423 15.6587 32.9213 14.8287C32.4277 14.0423 31.9322 13.3472 31.4411 12.7293C32.6907 12.5714 33.9092 12.5676 35.0748 12.7193C35.4503 12.7684 35.814 12.8343 36.1671 12.9139C37.206 14.5148 37.8637 16.0945 38.2448 17.6077ZM35.4702 11.9155C35.5753 12.056 35.6766 12.1965 35.7755 12.3364C35.566 12.2984 35.354 12.2636 35.1376 12.235C33.8321 12.0653 32.4637 12.0852 31.078 12.2854C29.3677 10.2593 27.7184 9.16823 26.3413 8.59193C26.6279 8.52106 26.9164 8.45578 27.2061 8.40169C28.6099 8.13872 29.9969 8.07904 31.326 8.20462C32.8287 8.99727 34.2138 10.2351 35.4702 11.9155ZM23.2093 7.91304C24.0001 7.60344 25.0308 7.29944 26.1996 7.19562C27.5574 7.07439 28.8499 7.22981 30.0721 7.65753C28.5819 7.64758 27.0519 7.85896 25.5394 8.30284C25.3653 8.24938 25.1968 8.204 25.0358 8.16607C24.2904 7.99076 23.6283 7.94786 23.0775 7.96775C23.1216 7.94848 23.1658 7.93107 23.2093 7.91304ZM31.9888 31.4943C31.4479 31.2786 30.8517 31.0175 30.2207 30.7054C30.12 30.8055 30.0236 30.9056 29.9341 31.0051C29.6991 31.2668 29.5144 31.5192 29.3808 31.7536C30.2058 31.8754 30.9829 31.9345 31.6817 31.955C31.5909 32.1284 31.5368 32.2913 31.5244 32.4374C30.8076 32.4119 30.0161 32.3467 29.1794 32.2173C29.1153 32.4449 29.1191 32.6413 29.1993 32.7924C29.3684 33.1138 29.857 33.268 30.5744 33.2406C30.0957 33.3283 29.6183 33.3886 29.1433 33.4228C28.9798 33.3159 28.853 33.1816 28.7678 33.0199C28.6341 32.7669 28.6124 32.4679 28.6957 32.1365C28.4495 32.0918 28.2002 32.042 27.9478 31.9855C26.6795 31.7007 25.4871 31.2904 24.3793 30.7595C24.1462 31.4806 24.1511 32.144 24.4402 32.6936C24.4918 32.7918 24.5546 32.8838 24.6236 32.9721C24.3911 32.9068 24.1605 32.8347 23.9329 32.757C23.6569 32.1197 23.6668 31.3669 23.9497 30.5456C23.2236 30.1689 22.536 29.7387 21.8907 29.2556C21.3809 28.8745 20.8985 28.4586 20.4415 28.0122C20.2183 29.1593 20.3501 30.2273 20.8456 31.1456C20.8736 31.1972 20.9041 31.2463 20.9339 31.2966C20.6485 31.1101 20.3719 30.9124 20.1015 30.7048C19.7695 29.7561 19.7446 28.6986 20.0213 27.5858C18.9538 26.4549 18.043 25.1357 17.2976 23.6393C16.919 24.9299 16.8283 26.1888 17.0266 27.3638C16.8214 27.0449 16.6281 26.716 16.4497 26.3772C16.4186 25.2762 16.6088 24.1385 16.9992 23.0064C16.9445 22.8852 16.8892 22.7646 16.8364 22.6409C15.9772 20.6334 15.7086 18.8287 15.7919 17.2465C15.3978 18.1417 15.1062 19.0649 14.924 19.9974C14.9383 19.0668 15.0515 18.1523 15.2548 17.2657C15.4637 16.7684 15.7024 16.2791 15.971 15.801C16.1146 15.0737 16.3297 14.4053 16.5846 13.7979C17.7017 11.7806 19.3349 10.061 21.3442 8.84869L21.918 9.85707C20.9028 10.4427 19.9759 11.1179 19.1441 11.8639C19.0402 12.1449 18.937 12.4259 18.8394 12.7088C18.8332 12.7523 18.8276 12.7964 18.8208 12.8399C19.7844 11.8707 20.9022 11.0041 22.1586 10.2798L24.5826 14.539C22.7038 15.594 21.0974 16.8989 19.8192 18.335C19.8764 18.506 19.938 18.6801 20.0026 18.856C21.2995 17.3509 22.9388 16.0199 24.8238 14.9624L27.387 19.4665C25.3808 20.5389 23.6507 21.8979 22.3445 23.4074C22.4415 23.5479 22.5391 23.6872 22.6386 23.8233C23.9137 22.3188 25.6295 20.961 27.6289 19.8924L30.2089 24.4257C28.5962 25.2917 27.1713 26.3331 26.0628 27.4446C26.1878 27.5478 26.3127 27.6492 26.4377 27.7474C27.4846 26.7135 28.8548 25.7052 30.4501 24.8497L32.4942 28.4418C31.5884 28.951 30.779 29.5261 30.1336 30.116C30.2928 30.1975 30.4501 30.2764 30.6055 30.351C31.1992 29.8294 31.9254 29.3209 32.7354 28.8658L33.4864 30.1857C32.8523 30.6016 32.3338 31.0629 31.9888 31.4943ZM36.6023 29.0766C36.3679 29.0585 36.0863 29.0865 35.7736 29.1574C35.8395 28.6681 35.8961 28.1316 35.9346 27.5559C36.1081 27.5124 36.2784 27.4745 36.4444 27.4434C36.8013 27.3763 37.127 27.3421 37.4142 27.339C37.1556 27.9725 36.8777 28.555 36.6023 29.0766ZM37.9756 25.7679C37.8606 26.1441 37.7357 26.5078 37.6039 26.8571C37.3633 26.8478 37.0997 26.859 36.8137 26.892C36.5433 26.9237 36.2585 26.9746 35.9638 27.043C35.9707 26.9007 35.9757 26.7564 35.98 26.6103C36.0098 25.5535 35.9719 24.3157 35.7954 22.9703C36.8609 22.8031 37.8034 22.7988 38.5743 22.9467C38.4512 23.9787 38.233 24.9274 37.9756 25.7679Z" fill="white"/>
<path d="M18.952 11.6979C19.0975 11.2074 19.2759 10.7791 19.4643 10.4092C18.9558 10.9252 18.4137 11.5593 17.9244 12.3091C17.4793 12.9911 17.1237 13.6905 16.8557 14.4066C17.4289 13.6065 18.091 12.8493 18.8327 12.148C18.8706 11.9914 18.9098 11.8403 18.952 11.6979Z" fill="white"/>
<path d="M18.683 12.9829C17.7809 13.9136 17.0181 14.9338 16.4107 16.0112C16.0371 18.0167 16.3149 20.1379 17.245 22.353C17.7548 21.1189 18.5002 19.9029 19.4495 18.7603C18.6015 16.3438 18.4946 14.4252 18.683 12.9829Z" fill="white"/>
<path d="M22.0164 23.7929C21.5936 23.1874 21.1932 22.5408 20.8246 21.8501C20.3397 20.9425 19.9505 20.0876 19.6415 19.2844C19.0378 20.0379 18.5175 20.8312 18.0966 21.6524C17.8709 22.0932 17.6794 22.534 17.5184 22.9723C18.2756 24.6011 19.187 25.9346 20.1824 27.0276C20.3931 26.3953 20.6977 25.7481 21.0956 25.0966C21.3667 24.6533 21.675 24.2175 22.0164 23.7929Z" fill="white"/>
<path d="M25.7222 27.7954C24.5479 26.8212 23.3716 25.6375 22.3172 24.2107C22.0269 24.5806 21.7633 24.958 21.5289 25.3415C21.0925 26.0565 20.7755 26.7627 20.5778 27.446C21.7049 28.5892 22.9228 29.4428 24.1338 30.0801C24.3452 29.6157 24.6368 29.1332 25.0098 28.6396C25.2255 28.3555 25.4642 28.0739 25.7222 27.7954Z" fill="white"/>
<path d="M26.0953 28.0981C25.3996 28.8411 24.8743 29.589 24.5585 30.2946C25.7714 30.8839 26.9657 31.2638 28.0437 31.5062C28.3228 31.569 28.5988 31.6237 28.8705 31.6716C29.0253 31.3589 29.2597 31.0257 29.5705 30.6794C29.6321 30.611 29.6973 30.542 29.7639 30.4736C29.688 30.4338 29.6122 30.394 29.5351 30.353C28.4969 29.7972 27.3045 29.0568 26.0953 28.0981Z" fill="white"/>
<path d="M43.4863 21.5553H44.3528L47.471 14.1756H48.6578L51.7821 21.5553H52.6485V22.7918H49.8371V21.5553H50.4779L49.6686 19.66H46.4677L45.6584 21.5553H46.2917V22.7918H43.4863V21.5553ZM46.9505 18.4235H49.1843L48.0682 15.8137L46.9505 18.4235ZM56.6587 21.6741V22.9166H56.2255C55.4563 22.9166 54.8737 22.7015 54.4776 22.2713C54.0825 21.8401 53.8849 21.25 53.8849 20.5009V17.8715H52.9629V16.6862H53.8849V15.1489H55.1214V16.6862H56.6587V17.8715H55.1214V20.4512C55.1214 20.8734 55.2031 21.1828 55.3666 21.3793C55.529 21.5759 55.8154 21.6741 56.2255 21.6741H56.6587ZM58.0652 21.5553H58.8368V14.5893H57.9132V13.416H60.0733V21.5553H60.8389V22.7918H58.0652V21.5553ZM64.986 22.9166C64.5097 22.9166 64.0675 22.8239 63.6593 22.6383C63.2512 22.4518 62.9122 22.2046 62.6425 21.8968C62.3727 21.5899 62.1616 21.2364 62.0092 20.8363C61.8558 20.4372 61.7791 20.024 61.7791 19.5968C61.7791 19.2168 61.8492 18.8477 61.9896 18.4897C62.13 18.1317 62.3246 17.8128 62.5733 17.533C62.822 17.2523 63.1338 17.0271 63.5089 16.8577C63.8829 16.6882 64.2876 16.6034 64.7228 16.6034C65.5431 16.6034 66.3022 16.9449 67.0002 17.6278V16.635H68.2426V21.5553H69.0083V22.7918H67.0002V21.9133C66.8628 22.0557 66.7314 22.1781 66.6061 22.2803C66.4797 22.3826 66.3318 22.4859 66.1623 22.5902C65.9939 22.6955 65.8098 22.7762 65.6103 22.8324C65.4117 22.8885 65.2036 22.9166 64.986 22.9166ZM63.0291 19.5968C63.0291 19.9528 63.1093 20.2888 63.2697 20.6046C63.4312 20.9205 63.6633 21.1767 63.9662 21.3733C64.27 21.5698 64.608 21.6681 64.98 21.6681C65.323 21.6681 65.6369 21.5804 65.9217 21.4049C66.2064 21.2294 66.4281 20.9962 66.5865 20.7054C66.746 20.4146 66.8257 20.1037 66.8257 19.7728C66.8257 19.4299 66.744 19.108 66.5805 18.8071C66.417 18.5053 66.1839 18.2626 65.881 18.0791C65.5772 17.8946 65.2412 17.8023 64.8732 17.8023C64.5182 17.8023 64.1983 17.886 63.9135 18.0535C63.6287 18.221 63.4101 18.4406 63.2577 18.7123C63.1053 18.9841 63.0291 19.2789 63.0291 19.5968ZM74.1617 20.8965C74.1617 20.7831 74.1176 20.6879 74.0294 20.6107C73.9411 20.5334 73.8218 20.4728 73.6714 20.4287C73.5209 20.3845 73.3474 20.3449 73.1509 20.3098C72.9543 20.2747 72.7493 20.2371 72.5357 20.197C72.3221 20.1569 72.1075 20.1128 71.8919 20.0646C71.6773 20.0165 71.4717 19.9488 71.2751 19.8616C71.0776 19.7733 70.9036 19.6685 70.7532 19.5472C70.6028 19.4258 70.4834 19.2689 70.3952 19.0764C70.3079 18.8838 70.2643 18.6642 70.2643 18.4175C70.2643 18.1207 70.3415 17.8489 70.496 17.6022C70.6514 17.3555 70.8545 17.1525 71.1052 16.993C71.3559 16.8346 71.6382 16.7122 71.952 16.626C72.2659 16.5408 72.5858 16.4981 72.9117 16.4981C73.3058 16.4981 73.6984 16.5754 74.0895 16.7298C74.4806 16.8842 74.8141 17.0788 75.0898 17.3134L75.147 17.3571V18.9455H73.9105V17.9723C73.5966 17.8128 73.2617 17.7331 72.9057 17.7331C72.6801 17.7331 72.4605 17.7657 72.2469 17.8309C72.0333 17.8961 71.8558 17.9883 71.7144 18.1077C71.572 18.227 71.5008 18.3599 71.5008 18.5063C71.5008 18.5935 71.5374 18.6707 71.6106 18.7379C71.6838 18.8051 71.7821 18.8593 71.9054 18.9004C72.0288 18.9425 72.1742 18.9836 72.3416 19.0237C72.5091 19.0628 72.6856 19.0984 72.8711 19.1305C73.0576 19.1616 73.2502 19.2012 73.4487 19.2494C73.6473 19.2975 73.8398 19.3486 74.0263 19.4028C74.2129 19.4569 74.3894 19.5311 74.5558 19.6254C74.7233 19.7197 74.8687 19.8255 74.992 19.9428C75.1154 20.0601 75.2137 20.2065 75.2869 20.382C75.3601 20.5575 75.3967 20.7541 75.3967 20.9717C75.3967 21.2735 75.3235 21.5498 75.1771 21.8005C75.0307 22.0512 74.8331 22.2573 74.5844 22.4187C74.3357 22.5792 74.0504 22.7035 73.7285 22.7918C73.4056 22.88 73.0647 22.9241 72.7056 22.9241C72.2915 22.9241 71.8738 22.8519 71.4526 22.7075C71.0325 22.5631 70.6674 22.3776 70.3576 22.151L70.2899 22.1074V20.6016H71.5248V21.4305C71.8808 21.5979 72.2744 21.6817 72.7056 21.6817C73.1108 21.6817 73.4547 21.6085 73.7375 21.462C74.0203 21.3156 74.1617 21.1271 74.1617 20.8965Z" fill="white"/>
<path d="M41.9188 26.7617H42.149L42.9778 24.7987H43.2937L44.124 26.7617H44.3541V27.0896H43.6065V26.7617H43.7765L43.5614 26.2578H42.7115L42.4964 26.7617H42.6649V27.0896H41.9188V26.7617ZM42.8394 25.9284H43.4336L43.1372 25.2349L42.8394 25.9284ZM47.0377 24.7987V25.1026H46.8331V27.0896H46.5037V27.0129L45.359 25.3493V26.7617H45.6041V27.0896H44.825V26.7617H45.0295V25.1026H44.825V24.7987H45.359V24.8754L46.5037 26.5406V25.1026H46.2991V24.7987H47.0377ZM48.6141 27.1227C48.4366 27.1227 48.2731 27.0941 48.1237 27.037C47.9743 26.9788 47.8489 26.8991 47.7476 26.7978C47.6454 26.6975 47.5656 26.5782 47.5085 26.4398C47.4523 26.3014 47.4242 26.1525 47.4242 25.9931C47.4242 25.8286 47.4568 25.6732 47.522 25.5268C47.5882 25.3793 47.678 25.2525 47.7913 25.1462C47.9056 25.0389 48.0445 24.9542 48.2079 24.892C48.3714 24.8298 48.5474 24.7987 48.7359 24.7987C48.7961 24.7987 48.8678 24.8067 48.951 24.8228C49.0342 24.8388 49.0929 24.8519 49.127 24.8619C49.1621 24.8719 49.1897 24.8804 49.2097 24.8875L49.2383 24.898V25.3568H48.9089V25.1447C48.8557 25.1357 48.8001 25.1311 48.7419 25.1311C48.6025 25.1311 48.4717 25.1532 48.3493 25.1973C48.227 25.2425 48.1227 25.3031 48.0365 25.3793C47.9492 25.4566 47.881 25.5488 47.8319 25.6561C47.7817 25.7634 47.7567 25.8782 47.7567 26.0006C47.7567 26.1119 47.7777 26.2162 47.8198 26.3135C47.863 26.4107 47.9221 26.4945 47.9973 26.5647C48.0726 26.6339 48.1638 26.689 48.2711 26.7301C48.3784 26.7702 48.4937 26.7903 48.6171 26.7903C48.7695 26.7903 48.9034 26.7557 49.0187 26.6865L49.0548 26.6639L49.2248 26.9422L49.1887 26.9648C49.0202 27.0701 48.8287 27.1227 48.6141 27.1227ZM51.3051 24.7987H52.0437V25.1026H51.8391V26.7617H52.0437V27.0896H51.3051V26.7617H51.5097V26.133H50.2416V26.7617H50.4447V27.0896H49.7076V26.7617H49.9137V25.1026H49.7076V24.7987H50.4447V25.1026H50.2416V25.805H51.5097V25.1026H51.3051V24.7987ZM53.2546 26.7241C53.3609 26.7702 53.4762 26.7933 53.6005 26.7933C53.7249 26.7933 53.8402 26.7707 53.9465 26.7256C54.0528 26.6805 54.1415 26.6188 54.2127 26.5406C54.285 26.4624 54.3411 26.3711 54.3812 26.2668C54.4223 26.1615 54.4429 26.0497 54.4429 25.9314C54.4429 25.8161 54.4223 25.7068 54.3812 25.6035C54.3411 25.5012 54.285 25.4124 54.2127 25.3372C54.1405 25.262 54.0513 25.2028 53.945 25.1597C53.8397 25.1156 53.7249 25.0935 53.6005 25.0935C53.4762 25.0935 53.3609 25.1156 53.2546 25.1597C53.1493 25.2028 53.0605 25.262 52.9883 25.3372C52.9171 25.4124 52.861 25.5012 52.8198 25.6035C52.7797 25.7058 52.7597 25.8151 52.7597 25.9314C52.7597 26.0507 52.7797 26.1625 52.8198 26.2668C52.861 26.3711 52.9171 26.4624 52.9883 26.5406C53.0605 26.6188 53.1493 26.68 53.2546 26.7241ZM53.6005 24.7656C53.777 24.7656 53.9395 24.7957 54.0879 24.8559C54.2353 24.917 54.3587 24.9998 54.4579 25.1041C54.5572 25.2084 54.6339 25.3317 54.6881 25.4741C54.7432 25.6165 54.7708 25.7689 54.7708 25.9314C54.7708 26.0618 54.7538 26.1866 54.7197 26.3059C54.6856 26.4253 54.6344 26.5346 54.5662 26.6339C54.498 26.7321 54.4173 26.8179 54.3241 26.8911C54.2308 26.9643 54.122 27.0214 53.9976 27.0626C53.8743 27.1027 53.7419 27.1227 53.6005 27.1227C53.4591 27.1227 53.3263 27.1027 53.2019 27.0626C53.0786 27.0214 52.9698 26.9643 52.8755 26.8911C52.7822 26.8179 52.702 26.7316 52.6348 26.6324C52.5676 26.5331 52.517 26.4243 52.4829 26.3059C52.4478 26.1866 52.4303 26.0618 52.4303 25.9314C52.4303 25.7699 52.4578 25.618 52.513 25.4756C52.5681 25.3332 52.6454 25.2099 52.7446 25.1056C52.8429 25.0003 52.9663 24.917 53.1147 24.8559C53.2621 24.7957 53.424 24.7656 53.6005 24.7656ZM55.1589 25.1071V24.7987H55.8538C55.9471 24.7997 56.0343 24.8042 56.1156 24.8123C56.1968 24.8203 56.2775 24.8323 56.3578 24.8484C56.438 24.8644 56.5102 24.8845 56.5744 24.9085C56.6395 24.9336 56.6997 24.9647 56.7549 25.0018C56.81 25.0399 56.8567 25.0835 56.8948 25.1327C56.9329 25.1818 56.9624 25.239 56.9835 25.3041C57.0046 25.3703 57.0151 25.4425 57.0151 25.5207C57.0151 25.6862 56.966 25.8246 56.8677 25.9359C56.7704 26.0482 56.6421 26.1274 56.4826 26.1736L56.8105 26.7617H57.0046V27.0896H56.6029L56.0689 26.2698C55.9887 26.2759 55.9035 26.2789 55.8132 26.2789H55.6914V26.7617H55.896V27.0896H55.1589V26.7617H55.3635V25.1071H55.1589ZM55.6914 25.9494H55.8132C55.8975 25.9494 55.9737 25.9474 56.0419 25.9434C56.1111 25.9394 56.1798 25.9314 56.2479 25.9194C56.3151 25.9083 56.3748 25.8928 56.4269 25.8727C56.4781 25.8517 56.5232 25.8266 56.5623 25.7975C56.6024 25.7684 56.633 25.7318 56.6541 25.6877C56.6761 25.6436 56.6872 25.5939 56.6872 25.5388C56.6872 25.4746 56.6711 25.4175 56.639 25.3673C56.607 25.3172 56.5643 25.2761 56.5112 25.244C56.457 25.2119 56.3919 25.1858 56.3156 25.1657C56.2404 25.1447 56.1617 25.1296 56.0795 25.1206C55.9972 25.1116 55.9085 25.1071 55.8132 25.1071H55.6914V25.9494ZM57.4859 26.7617H57.6905V25.0996H57.4859V24.7987H58.223V25.0996H58.0199V26.7617H58.223V27.0896H57.4859V26.7617ZM60.905 24.7987V25.1026H60.7019V27.0896H60.371V27.0129L59.2278 25.3493V26.7617H59.473V27.0896H58.6938V26.7617H58.8984V25.1026H58.6938V24.7987H59.2278V24.8754L60.371 26.5406V25.1026H60.1679V24.7987H60.905ZM62.6108 25.1311C62.4714 25.1311 62.3405 25.1532 62.2182 25.1973C62.0958 25.2425 61.9915 25.3031 61.9053 25.3793C61.818 25.4566 61.7494 25.5488 61.6992 25.6561C61.6491 25.7634 61.624 25.8782 61.624 26.0006C61.624 26.1119 61.6456 26.2162 61.6887 26.3135C61.7318 26.4107 61.791 26.4945 61.8662 26.5647C61.9404 26.6339 62.0311 26.689 62.1384 26.7301C62.2467 26.7702 62.3636 26.7903 62.4889 26.7903C62.5561 26.7903 62.6524 26.7732 62.7777 26.7392V26.133H62.2347V25.805H63.1057V26.9573L63.0861 26.9693C62.9166 27.0716 62.7196 27.1227 62.4949 27.1227C62.3154 27.1227 62.15 27.0941 61.9986 27.037C61.8471 26.9798 61.7203 26.9011 61.618 26.8008C61.5157 26.7005 61.436 26.5812 61.3788 26.4428C61.3217 26.3044 61.2931 26.1545 61.2931 25.9931C61.2931 25.8286 61.3257 25.6732 61.3909 25.5268C61.456 25.3793 61.5458 25.2525 61.6601 25.1462C61.7744 25.0389 61.9133 24.9542 62.0768 24.892C62.2402 24.8298 62.4157 24.7987 62.6032 24.7987C62.6634 24.7987 62.7351 24.8067 62.8183 24.8228C62.9026 24.8388 62.9617 24.8519 62.9958 24.8619C63.0299 24.8719 63.057 24.8804 63.0771 24.8875L63.1057 24.898V25.3568H62.7777V25.1447C62.7236 25.1357 62.6679 25.1311 62.6108 25.1311ZM64.8957 25.1086V25.2725H64.5677V24.7987H66.3638V25.2725H66.0359V25.1086H65.6568L65.6824 26.7617H65.8869V27.0896H65.1273V26.7617H65.3334L65.2747 25.1086H64.8957ZM66.8346 25.1071V24.7987H67.5295C67.6238 24.7997 67.7115 24.8042 67.7928 24.8123C67.873 24.8203 67.9532 24.8323 68.0335 24.8484C68.1137 24.8644 68.1864 24.8845 68.2516 24.9085C68.3157 24.9336 68.3754 24.9647 68.4306 25.0018C68.4867 25.0399 68.5333 25.0835 68.5705 25.1327C68.6086 25.1818 68.6381 25.239 68.6592 25.3041C68.6803 25.3703 68.6908 25.4425 68.6908 25.5207C68.6908 25.6862 68.6422 25.8246 68.5449 25.9359C68.4466 26.0482 68.3182 26.1274 68.1598 26.1736L68.4862 26.7617H68.6818V27.0896H68.2786L67.7446 26.2698C67.6654 26.2759 67.5807 26.2789 67.4904 26.2789H67.3686V26.7617H67.5717V27.0896H66.8346V26.7617H67.0392V25.1071H66.8346ZM67.3686 25.9494H67.4904C67.5737 25.9494 67.6499 25.9474 67.7191 25.9434C67.7873 25.9394 67.8555 25.9314 67.9236 25.9194C67.9918 25.9083 68.0515 25.8928 68.1026 25.8727C68.1538 25.8517 68.1994 25.8266 68.2395 25.7975C68.2796 25.7684 68.3102 25.7318 68.3313 25.6877C68.3523 25.6436 68.3629 25.5939 68.3629 25.5388C68.3629 25.4746 68.3468 25.4175 68.3147 25.3673C68.2837 25.3172 68.241 25.2761 68.1869 25.244C68.1327 25.2119 68.068 25.1858 67.9928 25.1657C67.9166 25.1447 67.8374 25.1296 67.7552 25.1206C67.6729 25.1116 67.5847 25.1071 67.4904 25.1071H67.3686V25.9494ZM69.6956 25.1026V26.2623C69.6956 26.3656 69.7071 26.4513 69.7302 26.5195C69.7523 26.5867 69.7889 26.6409 69.84 26.682C69.8912 26.7221 69.9543 26.7507 70.0295 26.7677C70.1048 26.7848 70.199 26.7933 70.3123 26.7933C70.4256 26.7933 70.5199 26.7848 70.5951 26.7677C70.6703 26.7507 70.7335 26.7221 70.7847 26.682C70.8358 26.6409 70.8729 26.5867 70.896 26.5195C70.919 26.4513 70.9306 26.3656 70.9306 26.2623V25.1026H70.7245V24.7987H71.4631V25.1026H71.2585V26.491C71.2585 26.6133 71.2169 26.7226 71.1336 26.8189C71.0504 26.9161 70.9371 26.9909 70.7937 27.043C70.6503 27.0962 70.4898 27.1227 70.3123 27.1227C70.1348 27.1227 69.9744 27.0962 69.831 27.043C69.6876 26.9909 69.5743 26.9161 69.491 26.8189C69.4078 26.7226 69.3662 26.6133 69.3662 26.491V25.1026H69.1616V24.7987H69.8987V25.1026H69.6956ZM72.8229 26.7978C72.873 26.7978 72.9136 26.7973 72.9447 26.7963C72.9748 26.7963 73.0084 26.7953 73.0455 26.7933C73.0826 26.7913 73.1117 26.7888 73.1327 26.7858C73.1548 26.7828 73.1784 26.7783 73.2034 26.7722C73.2285 26.7662 73.2476 26.7587 73.2606 26.7497C73.2736 26.7417 73.2877 26.7316 73.3027 26.7196C73.3177 26.7076 73.3293 26.693 73.3373 26.676C73.3443 26.6599 73.3508 26.6414 73.3569 26.6203C73.3639 26.5993 73.3684 26.5762 73.3704 26.5511C73.3734 26.5251 73.3749 26.4955 73.3749 26.4624C73.3749 26.4203 73.3684 26.3827 73.3554 26.3496C73.3423 26.3155 73.3203 26.2864 73.2892 26.2623C73.2581 26.2393 73.2285 26.2192 73.2004 26.2021C73.1713 26.1861 73.1292 26.1716 73.0741 26.1585C73.0199 26.1455 72.9758 26.1355 72.9417 26.1284C72.9076 26.1214 72.8565 26.1124 72.7883 26.1014C72.7311 26.0913 72.687 26.0838 72.6559 26.0788C72.6258 26.0738 72.5832 26.0653 72.528 26.0532C72.4729 26.0412 72.4298 26.0297 72.3987 26.0186C72.3686 26.0076 72.3305 25.9921 72.2844 25.972C72.2382 25.9519 72.2021 25.9314 72.1761 25.9103C72.15 25.8893 72.1209 25.8627 72.0888 25.8306C72.0577 25.7975 72.0342 25.7624 72.0181 25.7253C72.0011 25.6882 71.987 25.6451 71.976 25.5959C71.965 25.5478 71.9594 25.4947 71.9594 25.4365C71.9594 25.3332 71.9815 25.239 72.0256 25.1537C72.0698 25.0685 72.1299 24.9978 72.2061 24.9416C72.2834 24.8855 72.3736 24.8418 72.4769 24.8108C72.5802 24.7807 72.692 24.7656 72.8123 24.7656C72.9537 24.7656 73.0911 24.7872 73.2245 24.8303C73.3579 24.8724 73.4732 24.9246 73.5705 24.9867L73.5915 24.9988V25.5027H73.2591V25.1838C73.1227 25.1256 72.9798 25.0966 72.8304 25.0966C72.6639 25.0966 72.532 25.1266 72.4348 25.1868C72.3365 25.247 72.2874 25.3367 72.2874 25.4561C72.2874 25.4922 72.2934 25.5242 72.3054 25.5523C72.3174 25.5804 72.338 25.605 72.3671 25.626C72.3972 25.6471 72.4247 25.6651 72.4498 25.6802C72.4759 25.6942 72.5145 25.7083 72.5656 25.7223C72.6178 25.7363 72.6599 25.7469 72.692 25.7539C72.7241 25.7609 72.7717 25.7709 72.8349 25.784C72.8951 25.795 72.9407 25.8035 72.9718 25.8095C73.0029 25.8166 73.047 25.8271 73.1041 25.8411C73.1623 25.8562 73.2074 25.8697 73.2395 25.8818C73.2716 25.8938 73.3117 25.9108 73.3599 25.9329C73.408 25.956 73.4461 25.979 73.4742 26.0021C73.5023 26.0252 73.5329 26.0537 73.5659 26.0878C73.598 26.1219 73.6226 26.1585 73.6397 26.1976C73.6577 26.2377 73.6727 26.2834 73.6848 26.3345C73.6968 26.3867 73.7028 26.4418 73.7028 26.5C73.7028 26.5912 73.6878 26.6725 73.6577 26.7437C73.6276 26.8149 73.586 26.874 73.5329 26.9212C73.4807 26.9683 73.4165 27.0074 73.3403 27.0385C73.2641 27.0696 73.1829 27.0916 73.0966 27.1047C73.0104 27.1177 72.9161 27.1242 72.8138 27.1242C72.6644 27.1242 72.512 27.1062 72.3566 27.0701C72.2021 27.033 72.0688 26.9889 71.9564 26.9377L71.9324 26.9257V26.3977H72.2618V26.7106C72.348 26.7407 72.4338 26.7627 72.519 26.7768C72.6032 26.7908 72.7045 26.7978 72.8229 26.7978ZM74.5016 25.1086V25.2725H74.1736V24.7987H75.9697V25.2725H75.6418V25.1086H75.2627L75.2883 26.7617H75.4928V27.0896H74.7332V26.7617H74.9393L74.8806 25.1086H74.5016Z" fill="white"/>
</svg>
